<svg width="23" height="14" viewBox="0 0 23 14" fill="none" xmlns="http://www.w3.org/2000/svg">
<path d="M16.6 0.86186C16.413 0.672231 16.1584 0.564644 15.8921 0.562769C15.6258 0.560894 15.3696 0.664883 15.18 0.85186C14.9904 1.03884 14.8828 1.29349 14.8809 1.55979C14.879 1.82609 14.983 2.08223 15.17 2.27186L18.89 6.03186H1C0.734784 6.03186 0.48043 6.13722 0.292893 6.32475C0.105357 6.51229 0 6.76664 0 7.03186C0 7.29708 0.105357 7.55143 0.292893 7.73897C0.48043 7.9265 0.734784 8.03186 1 8.03186H18.89L15.17 11.7319C15.0774 11.8251 15.0041 11.9357 14.9543 12.0572C14.9044 12.1788 14.879 12.309 14.8794 12.4404C14.8799 12.5718 14.9062 12.7018 14.957 12.823C15.0077 12.9442 15.0818 13.0543 15.175 13.1469C15.2682 13.2394 15.3788 13.3128 15.5004 13.3626C15.6219 13.4125 15.7521 13.4379 15.8835 13.4374C16.0149 13.437 16.1449 13.4106 16.2662 13.3599C16.3874 13.3092 16.4974 13.2351 16.59 13.1419L22.7 7.03186L16.6 0.86186Z" fill="#2B2B37"/>
</svg>
