<svg width="32" height="32" viewBox="0 0 32 32" fill="none" xmlns="http://www.w3.org/2000/svg">
<g clip-path="url(#clip0_1648_28657)">
<path d="M15.9999 31.5336C24.8366 31.5336 32.0001 24.6984 32.0001 16.2668C32.0001 7.83518 24.8366 1 15.9999 1C7.16345 1 0 7.83518 0 16.2668C0 24.6984 7.16345 31.5336 15.9999 31.5336Z" fill="#0AC18E"/>
<path d="M21.3624 10.464C20.5485 8.71323 18.6735 8.34199 16.377 8.70406L15.6405 6L13.9012 6.42622L14.6279 9.12113C14.1725 9.23113 13.7025 9.32279 13.2374 9.44654L12.5107 6.76538L10.7713 7.19162L11.5078 9.89568C11.1347 9.99651 8 10.7573 8 10.7573L8.47966 12.5173C8.47966 12.5173 9.75872 12.1781 9.74419 12.2056C10.4516 12.0314 10.7859 12.366 10.9409 12.6823L12.9661 20.0932C12.9903 20.3087 12.9516 20.6753 12.4622 20.799C12.4913 20.8128 11.1977 21.1061 11.1977 21.1061L11.3866 23.1594C11.3866 23.1594 14.4922 22.4077 14.8992 22.3114L15.6453 25.0476L17.3847 24.6214L16.6386 21.8669C17.1183 21.7615 17.5834 21.6515 18.034 21.5414L18.7752 24.2823L20.5146 23.856L19.7684 21.1244C22.4477 20.5103 24.3372 18.9107 23.9496 16.4679C23.7024 14.9967 22.002 13.7868 20.5872 13.6493C21.4592 12.9206 21.9002 11.8573 21.3624 10.464ZM20.5242 16.9126C20.8682 19.3324 17.3168 19.6303 16.1396 19.919L15.1172 16.2983C16.2994 16.0097 19.9428 14.7814 20.5242 16.9126ZM18.3828 11.9856C18.7509 14.1351 15.7083 14.3872 14.7296 14.6255L13.7994 11.3394C14.7829 11.1056 17.6367 9.99194 18.3828 11.9856Z" fill="white"/>
</g>
<defs>
<clipPath id="clip0_1648_28657">
<rect width="32" height="32" fill="white"/>
</clipPath>
</defs>
</svg>
