<svg width="32" height="32" viewBox="0 0 32 32" fill="none" xmlns="http://www.w3.org/2000/svg">
<g clip-path="url(#clip0_2232_14918)">
<path d="M16 32C24.8366 32 32 24.8366 32 16C32 7.16344 24.8366 0 16 0C7.16344 0 0 7.16344 0 16C0 24.8366 7.16344 32 16 32Z" fill="#FFC331"/>
<path d="M22.9653 20.4058V17.7154L20.7824 18.9336V21.5735L22.9653 20.4058Z" fill="white"/>
<path d="M13.828 25.6851V28.4264L16.0616 29.6448L18.2445 28.4264V25.6851L16.0616 26.8528L13.828 25.6851Z" fill="white"/>
<path d="M25.3512 21.5228L20.7824 24.2639V27.0052L27.5341 22.944V20.9644V20.2028V15.1265L25.3512 16.294V21.5228Z" fill="white"/>
<path d="M23.0162 14.974V12.4358L20.7319 11.1667L16.1631 13.908L11.6451 11.2175L9.36072 12.5374V15.0755L13.8279 17.7152V22.944L16.0615 24.1622L18.2951 22.944V17.8675L23.0162 14.974Z" fill="white"/>
<path d="M16.0108 11.116L18.2952 9.74539L16.1124 8.42554L13.828 9.79616L16.0108 11.116Z" fill="white"/>
<path d="M25.4528 8.3241L23.1176 9.74547L25.4019 11.0653V13.5528L27.7371 12.1314V9.64395L25.4528 8.3241Z" fill="white"/>
<path d="M15.8586 5.83661L20.5797 8.3748L22.9147 6.90264L15.9602 3.1969L14.285 4.21216L13.625 4.61828L9.25934 7.258L11.3914 8.52709L15.8586 5.83661Z" fill="white"/>
<path d="M9.20831 20.4058L11.4927 21.7765V19.2382L9.20831 17.8677V20.4058Z" fill="white"/>
<path d="M7.0256 11.1159L9.25921 9.79603L6.92408 8.37463L4.63971 9.69449V12.1819L7.0256 13.6033V11.1159Z" fill="white"/>
<path d="M6.97489 16.497L4.58899 15.0756V22.9948L6.31496 24.0101L6.97489 24.4162L11.3913 27.0052V24.5176L6.97489 21.8272V16.497Z" fill="white"/>
</g>
<defs>
<clipPath id="clip0_2232_14918">
<rect width="32" height="32" fill="white"/>
</clipPath>
</defs>
</svg>
