<svg width="32" height="32" viewBox="0 0 32 32" fill="none" xmlns="http://www.w3.org/2000/svg">
<g clip-path="url(#clip0_2232_14955)">
<path d="M16 32C24.8366 32 32 24.8366 32 16C32 7.16344 24.8366 0 16 0C7.16344 0 0 7.16344 0 16C0 24.8366 7.16344 32 16 32Z" fill="#BFA64A"/>
<path d="M9.36407 8H15.749C18.3659 8 20.4054 8.72309 21.8674 10.1693C23.3293 11.6155 24.0603 13.654 24.0603 16.2847C24.0603 18.9232 23.3293 20.9772 21.8674 22.4464C20.4054 23.9157 18.3659 24.6503 15.749 24.6503H9.36407V8ZM12.4899 10.5154V22.1349H15.4219C17.1827 22.1349 18.5315 21.6348 19.4685 20.6349C20.4054 19.6348 20.8739 18.1886 20.8739 16.2963C20.8739 14.4347 20.4014 13.0078 19.4563 12.0155C18.5114 11.0155 17.1666 10.5154 15.4219 10.5154H12.4899Z" fill="white"/>
<path d="M18.055 14.8292V17.8213H7V14.8292H18.055Z" fill="white"/>
</g>
<defs>
<clipPath id="clip0_2232_14955">
<rect width="32" height="32" fill="white"/>
</clipPath>
</defs>
</svg>
