<svg width="32" height="32" viewBox="0 0 32 32" fill="none" xmlns="http://www.w3.org/2000/svg">
<g clip-path="url(#clip0_1648_28739)">
<path d="M16 32C24.8366 32 32 24.8366 32 16C32 7.16344 24.8366 0 16 0C7.16344 0 0 7.16344 0 16C0 24.8366 7.16344 32 16 32Z" fill="white"/>
<path d="M16.4044 1.7027L9.79312 10.7197L7.00195 24.0693L16.4044 29.7154L25.8069 24.0693L23.0158 10.7197L16.4044 1.7027ZM11.635 10.9543L16.4044 4.56267L21.16 10.9543L16.4044 25.453L11.635 10.9543ZM22.0056 13.64L23.9204 23.1898L17.6782 26.8954L22.0056 13.64ZM8.89939 23.1898L10.7149 13.441L15.1913 26.8954L8.89939 23.1898Z" fill="#35354C"/>
</g>
<defs>
<clipPath id="clip0_1648_28739">
<rect width="32" height="32" fill="white"/>
</clipPath>
</defs>
</svg>
