<svg width="32" height="32" viewBox="0 0 32 32" fill="none" xmlns="http://www.w3.org/2000/svg">
<g clip-path="url(#clip0_2232_14984)">
<path d="M15.9872 31.9106C24.7672 31.9106 31.8848 24.793 31.8848 16.013C31.8848 7.23292 24.7672 0.115326 15.9872 0.115326C7.20719 0.115326 0.0895996 7.23292 0.0895996 16.013C0.0895996 24.793 7.20719 31.9106 15.9872 31.9106Z" fill="#335E9F"/>
<path d="M8.92159 25.7662L11.2896 18.0734L8.71039 18.8606L9.3952 16.9662L11.7632 16.2302L15.072 5.34383C15.1424 5.11343 15.36 4.95343 15.6032 4.95343H18.9824C19.3536 4.95343 19.616 5.31183 19.5136 5.66383L16.8256 14.6494L19.2512 13.9646L18.8096 15.795L16.3072 16.5502L14.56 22.131H23.456C23.7248 22.131 23.9168 22.387 23.8464 22.643L23.072 25.4718C23.0208 25.6446 22.8672 25.7662 22.6816 25.7662H8.92159Z" fill="white"/>
</g>
<defs>
<clipPath id="clip0_2232_14984">
<rect width="32" height="32" fill="white"/>
</clipPath>
</defs>
</svg>
