<svg width="32" height="32" viewBox="0 0 32 32" fill="none" xmlns="http://www.w3.org/2000/svg">
<g clip-path="url(#clip0_2232_14890)">
<path d="M16 32C24.8366 32 32 24.8366 32 16C32 7.16344 24.8366 0 16 0C7.16344 0 0 7.16344 0 16C0 24.8366 7.16344 32 16 32Z" fill="#50AF95"/>
<path fill-rule="evenodd" clip-rule="evenodd" d="M18.1207 17.4457C18.0021 17.4547 17.3903 17.4912 16.0251 17.4912C14.9395 17.4912 14.1687 17.4585 13.8982 17.4457C9.70252 17.2613 6.57079 16.5309 6.57079 15.6563C6.57079 14.7819 9.70252 14.0525 13.8982 13.8649V16.7184C14.1726 16.7381 14.9583 16.7845 16.044 16.7845C17.3467 16.7845 17.9992 16.7302 18.1167 16.7193V13.8669C22.3035 14.0535 25.4284 14.7838 25.4284 15.6563C25.4284 16.5288 22.3045 17.2592 18.1167 17.4448L18.1207 17.4457ZM18.1207 13.5718V11.0185H23.9635V7.12476H8.05524V11.0185H13.8972V13.5708C9.14882 13.7889 5.57788 14.7295 5.57788 15.8567C5.57788 16.9838 9.14882 17.9235 13.8972 18.1425V26.3248H18.1195V18.1397C22.8572 17.9214 26.4223 16.9819 26.4223 15.8557C26.4223 14.7295 22.8602 13.7899 18.1195 13.5708L18.1207 13.5718Z" fill="white"/>
</g>
<defs>
<clipPath id="clip0_2232_14890">
<rect width="32" height="32" fill="white"/>
</clipPath>
</defs>
</svg>
