<svg width="20" height="21" viewBox="0 0 20 21" fill="none" xmlns="http://www.w3.org/2000/svg">
<path d="M14.5247 10.025C14.3689 9.867 14.1567 9.77734 13.9348 9.77578C13.7129 9.77421 13.4994 9.86087 13.3414 10.0167C13.1834 10.1725 13.0937 10.3847 13.0922 10.6066C13.0906 10.8285 13.1773 11.042 13.3331 11.2L16.4331 14.3334H1.52474C1.30373 14.3334 1.09176 14.4212 0.935484 14.5774C0.779204 14.7337 0.691406 14.9457 0.691406 15.1667C0.691406 15.3877 0.779204 15.5997 0.935484 15.7559C1.09176 15.9122 1.30373 16 1.52474 16H16.4331L13.3331 19.0834C13.2559 19.1611 13.1948 19.2532 13.1533 19.3545C13.1117 19.4558 13.0906 19.5643 13.0909 19.6738C13.0913 19.7833 13.1133 19.8916 13.1555 19.9927C13.1978 20.0937 13.2595 20.1854 13.3372 20.2625C13.4149 20.3397 13.5071 20.4008 13.6084 20.4423C13.7097 20.4839 13.8182 20.505 13.9277 20.5047C14.0372 20.5043 14.1455 20.4823 14.2465 20.4401C14.3476 20.3978 14.4393 20.3361 14.5164 20.2584L19.6081 15.1667L14.5247 10.025Z" fill="#2B2B37"/>
<path d="M6.03294 11.3751C6.19846 11.376 6.36052 11.3277 6.49845 11.2362C6.63639 11.1447 6.74395 11.0142 6.80742 10.8613C6.87089 10.7084 6.8874 10.5401 6.85484 10.3778C6.82228 10.2155 6.74213 10.0666 6.62461 9.95005L3.53294 6.83339H18.4329C18.654 6.83339 18.8659 6.74559 19.0222 6.58931C19.1785 6.43303 19.2663 6.22107 19.2663 6.00005C19.2663 5.77904 19.1785 5.56708 19.0222 5.4108C18.8659 5.25452 18.654 5.16672 18.4329 5.16672H3.53294L6.62461 2.05839C6.70176 1.98069 6.76285 1.88855 6.8044 1.78724C6.84594 1.68594 6.86713 1.57744 6.86674 1.46794C6.86635 1.35844 6.8444 1.2501 6.80214 1.14908C6.75988 1.04807 6.69814 0.956372 6.62044 0.87922C6.54274 0.802069 6.45061 0.740976 6.3493 0.699431C6.24799 0.657887 6.13949 0.636703 6.03 0.63709C5.80886 0.637872 5.59709 0.726467 5.44128 0.883387L0.349609 6.00005L5.44128 11.1167C5.51776 11.197 5.60948 11.2612 5.71108 11.3055C5.81267 11.3499 5.9221 11.3735 6.03294 11.3751Z" fill="#2B2B37"/>
</svg>
