<svg width="31" height="31" viewBox="0 0 31 31" fill="none" xmlns="http://www.w3.org/2000/svg">
<path d="M16.9109 28.1832C23.1367 28.1832 28.1837 23.1362 28.1837 16.9104C28.1837 10.6847 23.1367 5.6377 16.9109 5.6377C10.6852 5.6377 5.63818 10.6847 5.63818 16.9104C5.63818 23.1362 10.6852 28.1832 16.9109 28.1832Z" fill="white"/>
<path d="M2.17376 7.52811C2.66875 6.83624 3.12874 6.12065 3.68645 5.47255C4.70082 4.29375 5.84949 3.28351 7.16483 2.44731C8.34477 1.69722 9.58909 1.10598 10.9206 0.692572C12.9939 0.0487719 15.1103 -0.142671 17.2661 0.103589C18.8418 0.283593 20.3599 0.686274 21.8059 1.33843C22.681 1.73314 23.5044 2.22084 24.3113 2.74755C25.9373 3.80888 27.2399 5.19049 28.3289 6.76901C29.4921 8.45506 30.2478 10.3306 30.6623 12.3423C30.9536 13.7551 31.0763 15.181 30.9514 16.6162C30.7975 18.3858 30.4049 20.0919 29.6714 21.7318C29.0511 23.1189 28.2854 24.3925 27.305 25.5428C26.3459 26.6681 25.2641 27.6527 24.0212 28.4642C23.1747 29.017 22.2924 29.5103 21.3611 29.8765C19.8027 30.4895 18.1865 30.9038 16.4956 30.9765C15.3049 31.0275 14.1211 31.0075 12.9466 30.7989C11.9378 30.6197 10.9532 30.3582 9.98932 29.9958C9.05419 29.6443 8.14722 29.2278 7.31158 28.7014C6.10681 27.9422 5.02072 27.021 4.05425 25.9596C2.97742 24.7769 2.1043 23.4656 1.43622 22.0173C0.492476 19.9715 0.0283722 17.8145 0.000766065 15.5636C-0.0096344 14.7171 0.0873724 13.8771 0.200108 13.0392C0.208198 12.9792 0.19998 12.9171 0.199338 12.8559C0.297949 12.7948 0.289218 12.6877 0.307001 12.5943C0.557769 11.278 0.980721 10.02 1.55365 8.80877C1.75665 8.37987 2.03675 7.9885 2.17376 7.52811ZM20.2607 15.842C20.6804 15.6188 21.0793 15.4908 21.3944 15.209C22.609 14.123 22.9326 11.5669 20.9613 10.3356C20.347 9.95202 19.692 9.66772 18.9858 9.37764C19.1025 8.43096 19.4807 7.54507 19.6035 6.57551C19.0209 6.43099 18.4749 6.23916 17.907 6.17753C17.6748 7.08861 17.4521 7.96208 17.2218 8.86615C16.7865 8.73274 16.3383 8.74541 15.9286 8.51444C16.0765 7.58966 16.4277 6.72326 16.5237 5.79515C15.9252 5.70108 15.4184 5.46779 14.8374 5.44266C14.6087 6.3558 14.3873 7.23936 14.1578 8.15559C13.0058 7.97885 11.9481 7.58229 10.786 7.36905C10.5307 7.94165 10.4176 8.5458 10.3151 9.18857C10.6937 9.27802 11.0228 9.35713 11.3525 9.43348C12.1849 9.62615 12.4129 10.0816 12.2153 10.8103C12.0747 11.3286 11.9478 11.8507 11.8184 12.372C11.3533 14.2459 10.8919 16.1206 10.424 17.994C10.3185 18.4159 10.0558 18.5534 9.628 18.4908C9.20666 18.4291 8.80899 18.2397 8.34464 18.2534C8.1433 18.8981 7.74256 19.4662 7.60069 20.1779C8.70723 20.46 9.77777 20.7331 10.897 21.0185C10.8128 21.9958 10.4082 22.8901 10.2886 23.8744C10.8497 24.0091 11.3778 24.1357 11.9286 24.2679C12.2915 23.3654 12.3752 22.4169 12.7135 21.4833C13.1212 21.6932 13.5736 21.6323 13.9726 21.8964C13.7551 22.7964 13.5385 23.6927 13.3191 24.6004C13.896 24.8072 14.4589 24.8915 15.037 25.0355C15.271 24.097 15.4973 23.1893 15.7161 22.3117C15.8525 22.2414 15.9522 22.2545 16.0462 22.2748C16.9524 22.4688 17.8689 22.5141 18.7862 22.4123C19.5801 22.3241 20.2847 22.021 20.85 21.4243C21.4787 20.7609 21.7944 19.9493 21.9465 19.0765C22.0703 18.3654 22.0387 17.6449 21.6216 17.0155C21.2947 16.5223 20.8458 16.1459 20.2607 15.842ZM13.7104 19.5472C14.8282 19.8252 15.9449 20.1224 17.1144 19.9087C17.7381 19.7946 18.2082 19.4762 18.3974 18.8482C18.5759 18.2558 18.4722 17.7175 18.0332 17.2494C17.5767 16.7625 16.9897 16.5094 16.3845 16.2978C15.6612 16.0448 14.9281 15.8153 14.138 15.7528C13.8352 16.9846 13.5414 18.1803 13.241 19.4022C13.4324 19.462 13.5695 19.5122 13.7104 19.5472ZM17.6587 14.3853C18.2769 14.2974 18.7894 13.888 18.9401 13.3318C19.1242 12.6517 18.9184 12.0552 18.3686 11.6495C17.7447 11.1892 17.0263 10.955 16.284 10.7924C16.0075 10.7318 15.7355 10.5704 15.4008 10.6794C15.1349 11.7614 14.8678 12.8481 14.592 13.9703C15.6485 14.2373 16.6215 14.5328 17.6587 14.3853Z" fill="#F39321"/>
</svg>
