<svg width="32" height="32" viewBox="0 0 32 32" fill="none" xmlns="http://www.w3.org/2000/svg">
<path d="M16 32C24.8365 32 32 24.8365 32 16C32 7.16344 24.8365 0 16 0C7.16344 0 0 7.16344 0 16C0 24.8365 7.16344 32 16 32Z" fill="#4D4D4D"/>
<path fill-rule="evenodd" clip-rule="evenodd" d="M10.9883 13.9406L15.9999 8.92904L21.0115 13.9458L23.9277 11.0297L15.9999 3.09679L8.07217 11.0245L10.9883 13.9406ZM3.09668 16L6.01282 13.0839L8.92895 16L6.01282 18.9162L3.09668 16ZM10.9883 18.0594L15.9999 23.071L21.0115 18.0542L23.9328 20.9704L15.9999 28.9032L8.07217 20.9755L8.06702 20.9704L10.9883 18.0594ZM23.0709 16L25.987 13.0839L28.9032 16L25.987 18.9162L23.0709 16Z" fill="#F3BA2F"/>
<path fill-rule="evenodd" clip-rule="evenodd" d="M19.2519 16L16.0002 12.7381L13.5951 15.1484L13.3163 15.4271L12.7434 16L12.7383 16.0051L12.7434 16.0104L15.9951 19.2619L19.2519 16.0051V16Z" fill="#F3BA2F"/>
</svg>
