<svg width="32" height="32" viewBox="0 0 32 32" fill="none" xmlns="http://www.w3.org/2000/svg">
<g clip-path="url(#clip0_1648_28753)">
<path d="M32 16.0018C31.9944 24.8354 24.8678 31.9557 16.0205 31.9998C7.30296 32.0434 -0.185666 24.9027 0.00350794 15.6421C0.181184 6.94336 7.28931 -0.00487226 15.9844 2.56352e-06C24.8339 0.00487738 32.0056 7.16318 32 16.0018Z" fill="#048EE2"/>
<path d="M9.59961 23.9787C9.79731 22.8355 9.98459 21.7525 10.1759 20.6456C10.5167 20.6456 10.8109 20.6467 11.1051 20.6454C13.1189 20.6368 15.1348 20.6832 17.146 20.6008C18.6822 20.5378 20.0367 19.9778 20.8463 18.4618C21.243 17.7187 21.4058 16.8931 21.5814 16.0744C21.7206 15.4252 21.8078 14.7685 21.7831 14.0988C21.7327 12.7302 21.0641 11.8837 19.7906 11.5625C19.1972 11.4128 18.597 11.3613 17.9905 11.3611C16.0468 11.3607 14.1033 11.3623 12.1597 11.3619C12.035 11.3619 11.9103 11.3507 11.7157 11.3415C11.9063 10.2191 12.0917 9.12732 12.282 8.00711C12.5419 8.00711 12.7654 8.00678 12.9888 8.00719C15.3267 8.01121 17.6654 7.97563 20.0022 8.03343C21.5402 8.07143 23.018 8.41809 24.2132 9.5578C25.0478 10.3536 25.4756 11.3886 25.554 12.5249C25.7735 15.7071 25.2278 18.7077 23.3004 21.2818C22.1201 22.8582 20.4923 23.6264 18.627 23.8976C17.8702 24.0077 17.1103 23.997 16.3503 23.9981C14.2377 24.0011 12.1251 23.9998 10.0125 23.999C9.88785 23.9989 9.76339 23.987 9.59961 23.9787Z" fill="white"/>
<path d="M16.0004 14.4033C15.8121 15.1566 15.7293 15.8781 15.429 16.5341C15.094 17.2654 14.4483 17.5826 13.6764 17.5886C11.2917 17.6077 8.90673 17.5971 6.52186 17.5965C6.49738 17.5965 6.4729 17.5744 6.40039 17.5394C6.57002 16.7027 6.65237 15.8228 7.16188 15.0875C7.48519 14.621 8.02037 14.4168 8.57125 14.4122C11.0246 14.3916 13.4782 14.4033 16.0004 14.4033Z" fill="white"/>
</g>
<defs>
<clipPath id="clip0_1648_28753">
<rect width="32" height="32" fill="white"/>
</clipPath>
</defs>
</svg>
