<svg width="32" height="32" viewBox="0 0 32 32" fill="none" xmlns="http://www.w3.org/2000/svg">
<path d="M14.0977 18.963H21.9885C24.9203 18.963 27.3218 16.5926 27.3218 13.6297C27.3218 10.6667 24.9515 8.32755 22.0197 8.32755H19.4934L14.0977 3.64918H21.9885C27.509 3.618 32.0002 8.07803 32.0002 13.5985C32.0314 17.6843 29.5363 21.3646 25.7312 22.8928L31.969 28.2886H24.8579L14.0977 18.963Z" fill="url(#paint0_linear_1648_28768)"/>
<path d="M17.9633 13.0059H10.0725C7.1407 13.0059 4.73915 15.3762 4.73915 18.3391C4.73915 21.3022 7.10951 23.6726 10.0725 23.6726H12.5988L17.9633 28.351H10.0725C4.55201 28.351 0.0607751 23.8908 0.0295859 18.4015C-0.00160308 14.2846 2.49353 10.6043 6.29859 9.07604L0.0607751 3.64914H7.20308L17.9633 13.0059Z" fill="#4971FA"/>
<defs>
<linearGradient id="paint0_linear_1648_28768" x1="14.1129" y1="15.9705" x2="31.9934" y2="15.9705" gradientUnits="userSpaceOnUse">
<stop stop-color="#62D0C9"/>
<stop offset="1" stop-color="#7DE2AC"/>
</linearGradient>
</defs>
</svg>
