<svg width="32" height="32" viewBox="0 0 32 32" fill="none" xmlns="http://www.w3.org/2000/svg">
<g clip-path="url(#clip0_1648_28836)">
<path d="M16 32.1C24.8365 32.1 32 24.9366 32 16.1C32 7.26346 24.8365 0.100012 16 0.100012C7.16344 0.100012 0 7.26346 0 16.1C0 24.9366 7.16344 32.1 16 32.1Z" fill="#286BCB"/>
<path d="M7.79702 12.1984H18.1347C18.1347 12.1984 21.7029 12.165 19.235 16.7669C19.235 16.7669 17.4344 20.3685 12.9658 20.3018L15.3735 14.1525C15.4025 14.0796 15.4135 14.0008 15.4055 13.9227C15.3975 13.8446 15.3708 13.7696 15.3276 13.7041C15.2843 13.6386 15.2259 13.5845 15.1572 13.5465C15.0886 13.5084 15.0118 13.4875 14.9333 13.4856L11.7653 13.4322L7.76367 23.1696C7.76367 23.1696 9.09754 23.303 9.83119 23.2363L9.43102 24.2368H11.3185C11.3708 24.2371 11.422 24.2213 11.465 24.1915C11.508 24.1616 11.5407 24.1192 11.5586 24.0699L11.8987 23.1696L12.699 23.1029L12.2322 24.2368H14.073C14.1407 24.2373 14.207 24.217 14.263 24.1789C14.319 24.1408 14.362 24.0866 14.3864 24.0234L14.9 22.7027C14.9 22.7027 20.5022 21.769 23.0366 17.2338C23.0366 17.2338 26.4381 11.9649 22.4365 10.0975C21.6565 9.73989 20.8225 9.5145 19.9688 9.43056L20.4357 8.27675C20.4497 8.24251 20.4553 8.20533 20.4518 8.16845C20.4483 8.13155 20.4358 8.0961 20.4153 8.06517C20.395 8.03424 20.3673 8.00878 20.3349 7.99102C20.3022 7.97326 20.2659 7.96373 20.2288 7.96328H18.5014L17.968 9.36387H17.2342L17.6478 8.27675C17.6605 8.24194 17.6648 8.20461 17.6601 8.16782C17.6557 8.13106 17.6424 8.0959 17.6214 8.06526C17.6006 8.03464 17.5728 8.00941 17.5403 7.99168C17.5077 7.97394 17.4713 7.96421 17.4344 7.96328H15.7003L15.1667 9.36387H9.77783C9.633 9.36338 9.49076 9.40221 9.36626 9.47621C9.24175 9.55019 9.13967 9.65659 9.07087 9.78403L7.79702 12.1984Z" fill="white"/>
</g>
<defs>
<clipPath id="clip0_1648_28836">
<rect width="32" height="32" fill="white"/>
</clipPath>
</defs>
</svg>
