<svg width="32" height="32" viewBox="0 0 32 32" fill="none" xmlns="http://www.w3.org/2000/svg">
<g clip-path="url(#clip0_1648_28686)">
<path d="M16 32C24.8366 32 32 24.8366 32 16C32 7.16344 24.8366 0 16 0C7.16344 0 0 7.16344 0 16C0 24.8366 7.16344 32 16 32Z" fill="#7DFAA2"/>
<path d="M15.6504 21.5901C13.4865 20.3775 10.6849 18.8103 8 17.3132C9.8419 20.1623 12.0454 23.5586 14.1754 26.8415C14.6729 27.6084 15.1663 28.369 15.6503 29.1151C18.2014 25.1666 20.4906 21.5988 23.2381 17.3132L15.6504 21.5901Z" fill="black"/>
<path d="M15.6578 12.0036L8.29102 16.1312L15.6619 20.2331L22.9287 16.101L15.6578 12.0036Z" fill="black"/>
<path d="M15.6169 3.20001L23.2381 14.9362L15.6503 10.6815L8 14.9099L15.6169 3.20001Z" fill="black"/>
</g>
<defs>
<clipPath id="clip0_1648_28686">
<rect width="32" height="32" fill="white"/>
</clipPath>
</defs>
</svg>
