<svg width="17" height="16" viewBox="0 0 17 16" fill="none" xmlns="http://www.w3.org/2000/svg">
<path d="M8.21998 4.38011C8.09356 4.50476 8.02184 4.67453 8.02059 4.85206C8.01934 5.0296 8.08866 5.20036 8.21331 5.32678C8.33796 5.4532 8.50773 5.52492 8.68527 5.52617C8.8628 5.52742 9.03356 5.4581 9.15998 5.33344L11.6666 2.85344V14.7801C11.6666 14.9569 11.7369 15.1265 11.8619 15.2515C11.9869 15.3765 12.1565 15.4468 12.3333 15.4468C12.5101 15.4468 12.6797 15.3765 12.8047 15.2515C12.9297 15.1265 13 14.9569 13 14.7801V2.85344L15.4666 5.33344C15.5288 5.39516 15.6025 5.44404 15.6836 5.47727C15.7646 5.51051 15.8514 5.52746 15.939 5.52715C16.0266 5.52684 16.1133 5.50928 16.1941 5.47547C16.2749 5.44166 16.3483 5.39227 16.41 5.33011C16.4717 5.26795 16.5206 5.19424 16.5538 5.1132C16.587 5.03215 16.604 4.94535 16.6037 4.85775C16.6034 4.77016 16.5858 4.68348 16.552 4.60267C16.5182 4.52186 16.4688 4.4485 16.4066 4.38678L12.3333 0.313443L8.21998 4.38011Z" fill="white"/>
<path d="M9.29997 11.1733C9.30074 11.0409 9.26206 10.9112 9.18886 10.8009C9.11566 10.6905 9.01125 10.6045 8.88896 10.5537C8.76666 10.5029 8.63201 10.4897 8.50218 10.5158C8.37235 10.5418 8.25322 10.606 8.15997 10.7L5.66664 13.1733L5.66664 1.2533C5.66664 1.07649 5.5964 0.906923 5.47137 0.781899C5.34635 0.656875 5.17678 0.586637 4.99997 0.586637C4.82316 0.586637 4.65359 0.656875 4.52856 0.781899C4.40354 0.906923 4.3333 1.07649 4.3333 1.2533L4.3333 13.1733L1.84664 10.7C1.78448 10.6382 1.71077 10.5894 1.62972 10.5561C1.54868 10.5229 1.46188 10.506 1.37428 10.5063C1.28668 10.5066 1.2 10.5241 1.11919 10.5579C1.03838 10.5918 0.965024 10.6411 0.903303 10.7033C0.841582 10.7655 0.792708 10.8392 0.759472 10.9202C0.726236 11.0013 0.709289 11.0881 0.709599 11.1757C0.710224 11.3526 0.7811 11.522 0.906636 11.6466L4.99997 15.72L9.0933 11.6466C9.1575 11.5855 9.20885 11.5121 9.24434 11.4308C9.27982 11.3495 9.29874 11.262 9.29997 11.1733Z" fill="white"/>
</svg>
