<svg width="32" height="32" viewBox="0 0 32 32" fill="none" xmlns="http://www.w3.org/2000/svg">
<g clip-path="url(#clip0_1648_28822)">
<path d="M16 32C24.8365 32 32 24.8365 32 16C32 7.16344 24.8365 0 16 0C7.16344 0 0 7.16344 0 16C0 24.8365 7.16344 32 16 32Z" fill="#1A53F0"/>
<path d="M11.8561 17.2901C10.7018 17.2907 9.5951 17.7501 8.77934 18.5667C7.96358 19.3834 7.50561 20.4907 7.50614 21.645C7.50561 22.7992 7.96345 23.9062 8.77899 24.7229C9.59453 25.5395 10.701 25.9989 11.8551 26C12.4269 25.9998 12.993 25.887 13.5211 25.6682C14.0493 25.4493 14.5291 25.1283 14.9332 24.724C15.3374 24.3195 15.6579 23.8395 15.8765 23.3112C16.095 22.7829 16.2075 22.2168 16.2071 21.645C16.2075 21.0733 16.0951 20.5072 15.8766 19.979C15.658 19.4507 15.3376 18.9707 14.9336 18.5664C14.5296 18.1619 14.0499 17.8411 13.5218 17.6221C12.9938 17.403 12.4278 17.2902 11.8561 17.2901ZM11.8561 24.683C11.0514 24.6824 10.2798 24.3624 9.71102 23.793C9.14225 23.2237 8.82288 22.4517 8.82315 21.647C8.82288 21.2485 8.90113 20.8538 9.0534 20.4854C9.20569 20.1171 9.42902 19.7824 9.71067 19.5003C9.9923 19.2184 10.3267 18.9946 10.6949 18.8418C11.063 18.689 11.4576 18.6102 11.8561 18.6101C12.2548 18.6101 12.6495 18.6888 13.0177 18.8414C13.386 18.9942 13.7205 19.2179 14.0023 19.5C14.284 19.7821 14.5075 20.1168 14.6598 20.4851C14.8121 20.8536 14.8904 21.2483 14.8901 21.647C14.8891 22.4515 14.5692 23.2229 14.0005 23.7918C13.4318 24.361 12.6607 24.6814 11.8561 24.683ZM21.1502 8C20.5785 8.00026 20.0126 8.11312 19.4844 8.33211C18.9564 8.55112 18.4767 8.87198 18.0727 9.27638C17.6687 9.68078 17.3483 10.1608 17.1297 10.689C16.9113 11.2173 16.7988 11.7834 16.7991 12.355C16.7987 13.5093 17.2566 14.6166 18.0724 15.4333C18.8881 16.2499 19.9948 16.7093 21.1492 16.7099C21.7209 16.7099 22.287 16.5971 22.8151 16.3782C23.3433 16.1592 23.8231 15.8384 24.2273 15.434C24.6315 15.0296 24.9519 14.5495 25.1705 14.0212C25.3891 13.4929 25.5014 12.9267 25.5012 12.355C25.5014 11.7833 25.3891 11.2171 25.1705 10.6888C24.9519 10.1605 24.6315 9.68043 24.2273 9.27603C23.8231 8.87162 23.3433 8.55077 22.8151 8.33182C22.287 8.1129 21.7209 8.00013 21.1492 8H21.1502ZM21.1502 15.393C20.7516 15.3929 20.3569 15.3142 19.9887 15.1616C19.6206 15.0089 19.2862 14.7853 19.0044 14.5034C18.7227 14.2214 18.4991 13.8868 18.3468 13.5185C18.1943 13.1502 18.1161 12.7556 18.1161 12.357C18.1159 11.9584 18.1942 11.5636 18.3465 11.1952C18.4988 10.8268 18.7223 10.492 19.0041 10.21C19.2857 9.92797 19.6203 9.70421 19.9886 9.5515C20.3567 9.3988 20.7515 9.32013 21.1502 9.32C21.5487 9.32026 21.9433 9.39902 22.3115 9.55179C22.6796 9.70456 23.014 9.92834 23.2956 10.2104C23.5772 10.4924 23.8006 10.8271 23.9529 11.1954C24.1052 11.5637 24.1835 11.9584 24.1831 12.357C24.1822 13.1614 23.8623 13.9325 23.2939 14.5016C22.7254 15.0706 21.9545 15.3912 21.1502 15.393ZM11.8561 8C10.8516 8.00133 9.87828 8.34968 9.10102 8.98611C8.32374 9.62253 7.79022 10.508 7.59072 11.4925C7.39121 12.4771 7.53798 13.5004 8.0062 14.3892C8.47441 15.278 9.23532 15.9777 10.1601 16.3701C11.0857 16.7611 12.1181 16.8198 13.082 16.5362C14.0459 16.2526 14.8819 15.644 15.4481 14.814C16.015 13.9835 16.2774 12.9826 16.1908 11.9808C16.1043 10.979 15.674 10.038 14.9731 9.31701H16.2062V8H11.8561ZM14.8901 12.355C14.8903 12.7536 14.8119 13.1482 14.6595 13.5165C14.5071 13.8848 14.2837 14.2194 14.0019 14.5014C13.7202 14.7833 13.3857 15.0069 13.0175 15.1596C12.6493 15.3122 12.2547 15.3909 11.8561 15.391C11.0514 15.3905 10.2798 15.0703 9.71102 14.501C9.14225 13.9317 8.82288 13.1598 8.82315 12.355C8.82288 11.5502 9.14225 10.7783 9.71102 10.209C10.2798 9.63966 11.0514 9.31954 11.8561 9.31901C12.6608 9.32032 13.4322 9.64064 14.0011 10.2097C14.57 10.7788 14.8901 11.5503 14.8911 12.355H14.8901Z" fill="white"/>
</g>
<defs>
<clipPath id="clip0_1648_28822">
<rect width="32" height="32" fill="white"/>
</clipPath>
</defs>
</svg>
