<svg width="32" height="32" viewBox="0 0 32 32" fill="none" xmlns="http://www.w3.org/2000/svg">
<path d="M19.3976 29.6042H10.6005L3.50234 24.4027L0.796875 16.0013L3.49651 7.59983L10.5947 2.39838H19.3976L26.4958 7.59983L29.1954 16.0013L26.4958 24.4027L26.3968 24.5016L19.3976 29.6042ZM10.7983 28.999H19.1998L26.0013 24.0013L28.6019 16.0013L26.0013 8.00129L19.1998 3.00346H10.7983L4.00269 8.00129L1.40197 16.0013L4.00269 24.0013L10.7983 28.999Z" fill="#2E9AD0"/>
<path d="M30.2024 28.2021L26.1004 24.5018L22.0976 23.0006L14.9994 23.9024L7.80228 23.0006L3.79939 24.5018L3.60156 23.9024L7.69756 22.3024H7.80228L14.9994 23.3032L22.2024 22.3024L22.3012 22.4013L26.5019 24.0013L30.5979 27.8006L30.2024 28.2021Z" fill="#2E9AD0"/>
<path d="M19.1996 29.9008L14.9989 24.1002L10.6004 29.9008L7.40039 22.8027L7.99967 22.5002L10.7982 28.7022L14.9989 23.0005L19.1007 28.7022L21.8993 22.5002L25.6986 14.9016L26.6004 24.199H26.001L25.297 17.1008L22.4986 22.8027L19.1996 29.9008Z" fill="#2E9AD0"/>
<path d="M1.19922 15.6975H28.9985V16.2968H1.19922V15.6975Z" fill="#2E9AD0"/>
<path d="M25.6986 17.1L22.2018 10.1996L19.1997 16.6986L14.9989 9.19886L10.6993 16.6986L7.69709 10.1996L4.20037 17.1L3.39746 7.9014L4.00255 7.80249L4.60181 14.9996L7.69709 8.90214L10.6993 15.4011L14.9989 8.0003L19.1007 15.4011L22.2018 8.90214L25.2972 14.9007L25.7975 7.80249H26.4026L25.6986 17.1Z" fill="#2E9AD0"/>
<path d="M21.8992 9.69963L19.1007 3.39854L14.9989 9.19928L10.7982 3.39854L7.99964 9.69963L7.49927 9.40291L10.6004 2.2L14.9989 8.09963L19.1997 2.2L22.4986 9.40291L21.8992 9.69963ZM26.0012 24.1986L25.2972 17.1003L22.2018 23.3026L19.1007 16.6989L14.9989 24.1986L10.6993 16.6989L7.69709 23.3026L4.60181 17.1003L4.00255 24.1986H3.39746L4.20037 14.9011L7.69709 21.9003L10.6993 15.4015L14.9989 22.9011L19.1997 15.4015L22.2018 21.9992L25.6986 14.9011L26.6004 24.1986H26.0012Z" fill="#2E9AD0"/>
<path d="M22.2024 9.90343L14.9006 8.90271L7.69759 9.90343L3.60156 8.09981L3.79939 7.50055L7.80233 9.19943L14.9006 8.30345L22.2024 9.19943L26.1006 7.50055L26.4032 8.09981L22.2024 9.90343Z" fill="#2E9AD0"/>
<path d="M10.6995 30.4982C11.3615 30.4982 11.8981 29.9616 11.8981 29.2997C11.8981 28.6376 11.3615 28.101 10.6995 28.101C10.0376 28.101 9.50098 28.6376 9.50098 29.2997C9.50098 29.9616 10.0376 30.4982 10.6995 30.4982Z" fill="#2E9AD0"/>
<path d="M19.1009 30.4982C19.7628 30.4982 20.2995 29.9616 20.2995 29.2997C20.2995 28.6376 19.7628 28.101 19.1009 28.101C18.439 28.101 17.9023 28.6376 17.9023 29.2997C17.9023 29.9616 18.439 30.4982 19.1009 30.4982Z" fill="#2E9AD0"/>
<path d="M10.6995 3.99694C11.3615 3.99694 11.8981 3.46034 11.8981 2.7984C11.8981 2.13646 11.3615 1.59985 10.6995 1.59985C10.0376 1.59985 9.50098 2.13646 9.50098 2.7984C9.50098 3.46034 10.0376 3.99694 10.6995 3.99694Z" fill="#2E9AD0"/>
<path d="M19.1009 3.99694C19.7628 3.99694 20.2995 3.46034 20.2995 2.7984C20.2995 2.13646 19.7628 1.59985 19.1009 1.59985C18.439 1.59985 17.9023 2.13646 17.9023 2.7984C17.9023 3.46034 18.439 3.99694 19.1009 3.99694Z" fill="#2E9AD0"/>
<path d="M26.1001 9.00051C26.762 9.00051 27.2986 8.4639 27.2986 7.80197C27.2986 7.14003 26.762 6.60342 26.1001 6.60342C25.438 6.60342 24.9014 7.14003 24.9014 7.80197C24.9014 8.4639 25.438 9.00051 26.1001 9.00051Z" fill="#2E9AD0"/>
<path d="M3.70149 9.00051C4.36344 9.00051 4.90007 8.4639 4.90007 7.80197C4.90007 7.14003 4.36344 6.60342 3.70149 6.60342C3.03954 6.60342 2.50293 7.14003 2.50293 7.80197C2.50293 8.4639 3.03954 9.00051 3.70149 9.00051Z" fill="#2E9AD0"/>
<path d="M3.70149 25.5008C4.36344 25.5008 4.90007 24.9642 4.90007 24.3022C4.90007 23.6403 4.36344 23.1037 3.70149 23.1037C3.03954 23.1037 2.50293 23.6403 2.50293 24.3022C2.50293 24.9642 3.03954 25.5008 3.70149 25.5008Z" fill="#2E9AD0"/>
<path d="M1.19856 17.1989C1.8605 17.1989 2.39712 16.6622 2.39712 16.0003C2.39712 15.3384 1.8605 14.8018 1.19856 14.8018C0.536613 14.8018 0 15.3384 0 16.0003C0 16.6622 0.536613 17.1989 1.19856 17.1989Z" fill="#2E9AD0"/>
<path d="M28.8988 17.1989C29.5607 17.1989 30.0973 16.6622 30.0973 16.0003C30.0973 15.3384 29.5607 14.8018 28.8988 14.8018C28.2368 14.8018 27.7002 15.3384 27.7002 16.0003C27.7002 16.6622 28.2368 17.1989 28.8988 17.1989Z" fill="#2E9AD0"/>
<path d="M25.5015 17.1989C26.1634 17.1989 26.7 16.6622 26.7 16.0003C26.7 15.3384 26.1634 14.8018 25.5015 14.8018C24.8394 14.8018 24.3027 15.3384 24.3027 16.0003C24.3027 16.6622 24.8394 17.1989 25.5015 17.1989Z" fill="#2E9AD0"/>
<path d="M4.39874 17.1989C5.06068 17.1989 5.59728 16.6622 5.59728 16.0003C5.59728 15.3384 5.06068 14.8018 4.39874 14.8018C3.7368 14.8018 3.2002 15.3384 3.2002 16.0003C3.2002 16.6622 3.7368 17.1989 4.39874 17.1989Z" fill="#2E9AD0"/>
<path d="M10.6995 17.1989C11.3615 17.1989 11.8981 16.6622 11.8981 16.0003C11.8981 15.3384 11.3615 14.8018 10.6995 14.8018C10.0376 14.8018 9.50098 15.3384 9.50098 16.0003C9.50098 16.6622 10.0376 17.1989 10.6995 17.1989Z" fill="#2E9AD0"/>
<path d="M19.1009 17.1989C19.7628 17.1989 20.2995 16.6622 20.2995 16.0003C20.2995 15.3384 19.7628 14.8018 19.1009 14.8018C18.439 14.8018 17.9023 15.3384 17.9023 16.0003C17.9023 16.6622 18.439 17.1989 19.1009 17.1989Z" fill="#2E9AD0"/>
<path d="M16.1825 8.79199C16.2885 8.1386 15.8449 7.52297 15.1915 7.41692C14.5381 7.31087 13.9225 7.75459 13.8164 8.40796C13.7104 9.06134 14.1541 9.67697 14.8075 9.78302C15.4609 9.88907 16.0765 9.44537 16.1825 8.79199Z" fill="#2E9AD0"/>
<path d="M7.69659 10.7989C8.35854 10.7989 8.89515 10.2623 8.89515 9.60034C8.89515 8.93842 8.35854 8.40181 7.69659 8.40181C7.03465 8.40181 6.49805 8.93842 6.49805 9.60034C6.49805 10.2623 7.03465 10.7989 7.69659 10.7989Z" fill="#2E9AD0"/>
<path d="M22.2025 10.7989C22.8644 10.7989 23.401 10.2623 23.401 9.60034C23.401 8.93842 22.8644 8.40181 22.2025 8.40181C21.5404 8.40181 21.0039 8.93842 21.0039 9.60034C21.0039 10.2623 21.5404 10.7989 22.2025 10.7989Z" fill="#2E9AD0"/>
<path d="M14.9993 24.797C15.6613 24.797 16.1979 24.2605 16.1979 23.5986C16.1979 22.9366 15.6613 22.4 14.9993 22.4C14.3374 22.4 13.8008 22.9366 13.8008 23.5986C13.8008 24.2605 14.3374 24.797 14.9993 24.797Z" fill="#2E9AD0"/>
<path d="M7.69659 23.7958C8.35854 23.7958 8.89515 23.2592 8.89515 22.5973C8.89515 21.9354 8.35854 21.3989 7.69659 21.3989C7.03465 21.3989 6.49805 21.9354 6.49805 22.5973C6.49805 23.2592 7.03465 23.7958 7.69659 23.7958Z" fill="#2E9AD0"/>
<path d="M22.2025 23.7958C22.8644 23.7958 23.401 23.2592 23.401 22.5973C23.401 21.9354 22.8644 21.3989 22.2025 21.3989C21.5404 21.3989 21.0039 21.9354 21.0039 22.5973C21.0039 23.2592 21.5404 23.7958 22.2025 23.7958Z" fill="#2E9AD0"/>
<path d="M30.3998 29.6022C31.2835 29.6022 31.9998 28.8859 31.9998 28.0022C31.9998 27.1186 31.2835 26.4022 30.3998 26.4022C29.5163 26.4022 28.7998 27.1186 28.7998 28.0022C28.7998 28.8859 29.5163 29.6022 30.3998 29.6022Z" fill="#2E9AD0"/>
</svg>
