<svg width="32" height="32" viewBox="0 0 32 32" fill="none" xmlns="http://www.w3.org/2000/svg">
<g clip-path="url(#clip0_2232_14971)">
<path d="M16 32C24.8366 32 32 24.8366 32 16C32 7.16344 24.8366 0 16 0C7.16344 0 0 7.16344 0 16C0 24.8366 7.16344 32 16 32Z" fill="#EB322A"/>
<path fill-rule="evenodd" clip-rule="evenodd" d="M6.50072 6.36695C6.6445 6.18767 6.87336 6.09926 7.10032 6.13527L23.3635 8.71675C23.5022 8.73874 23.6298 8.80569 23.7266 8.90727L27.6579 13.032C27.7376 13.1135 27.7963 13.217 27.8235 13.3345C27.8533 13.4635 27.8429 13.6002 27.7912 13.7246C27.7699 13.7759 27.7416 13.825 27.7062 13.8707C27.7026 13.8756 27.6987 13.8804 27.6947 13.8851L15.8863 28.4038C15.7429 28.5802 15.5167 28.6672 15.2921 28.6325C15.0674 28.5978 14.8781 28.4466 14.7945 28.2352L6.40477 7.00255C6.32032 6.78882 6.35695 6.54623 6.50072 6.36695ZM25.8776 13.0194L23.2922 10.3067L19.1515 13.9679L25.8776 13.0194ZM21.9466 9.78785L9.19903 7.76443L17.1474 14.0314L21.9466 9.78785ZM17.6963 15.4658L25.6744 14.3407L16.3685 25.7824L17.6963 15.4658ZM15.1083 25.5461L8.51223 8.85294L16.4512 15.1125L15.1083 25.5461Z" fill="white"/>
</g>
<defs>
<clipPath id="clip0_2232_14971">
<rect width="32" height="32" fill="white"/>
</clipPath>
</defs>
</svg>
