<svg width="32" height="32" viewBox="0 0 32 32" fill="none" xmlns="http://www.w3.org/2000/svg">
<g clip-path="url(#clip0_1648_28718)">
<path d="M16 32C7.2 32 0 24.8 0 16C0 7.2 7.2 0 16 0C24.8 0 32 7.2 32 16C32 24.8 24.8 32 16 32Z" fill="#002868"/>
<path d="M24.0644 25.6H7.93639C7.09159 25.6 6.40039 24.9088 6.40039 24.064V7.93599C6.40039 7.09119 7.09159 6.39999 7.93639 6.39999H24.0644C24.9092 6.39999 25.6004 7.09119 25.6004 7.93599V24.064C25.6004 24.9088 24.9092 25.6 24.0644 25.6Z" fill="white"/>
<path d="M10.1465 23.6669C10.0959 23.6669 10.0549 23.6208 10.0549 23.5702V20.9904C10.0549 20.9398 10.014 20.8938 9.96341 20.8938H9.05269C9.00149 20.8938 8.95605 20.8528 8.95605 20.8022V20.3037C8.95605 20.2531 9.00213 20.207 9.05269 20.207H11.8559C11.9065 20.207 11.9525 20.2525 11.9525 20.3037V20.8022C11.9525 20.8528 11.9065 20.8938 11.8559 20.8938H10.9503C10.8997 20.8938 10.8537 20.9392 10.8537 20.9904V23.5702C10.8537 23.6208 10.8127 23.6669 10.7621 23.6669H10.1465Z" fill="#002868"/>
<path d="M14.7507 20.3037C14.7507 20.2531 14.7916 20.207 14.8422 20.207H15.4528C15.5033 20.207 15.5494 20.2525 15.5494 20.3037V22.0643C15.5494 23.1075 14.9593 23.713 14.023 23.713C13.0918 23.713 12.5068 23.1075 12.5068 22.0643V20.3037C12.5068 20.2531 12.5478 20.207 12.5984 20.207H13.2089C13.2595 20.207 13.3056 20.2525 13.3056 20.3037V22.0893C13.3056 22.6032 13.5699 22.9693 14.0281 22.9693C14.4864 22.9693 14.7507 22.6032 14.7507 22.0893V20.3037Z" fill="#002868"/>
<path d="M18.3527 21.3365C18.2715 21.3365 18.2459 21.3058 18.2151 21.245C18.1083 20.9954 17.874 20.8379 17.5182 20.8379C17.1975 20.8379 16.9281 20.9499 16.9281 21.1637C16.9281 21.3979 17.1777 21.4946 17.7268 21.5605C18.5614 21.6571 19.0395 21.9118 19.0395 22.573C19.0395 23.316 18.3879 23.7077 17.554 23.7077C16.8315 23.7077 16.2107 23.3563 16.114 22.619C16.1038 22.548 16.1396 22.5224 16.2107 22.5224H16.7707C16.8417 22.5224 16.8827 22.5531 16.9031 22.6088C16.9793 22.8533 17.2391 23.0414 17.6155 23.0414C17.9463 23.0414 18.2363 22.9192 18.2363 22.66C18.2363 22.3496 17.931 22.2939 17.3204 22.2171C16.6183 22.1256 16.13 21.9221 16.13 21.2757C16.13 20.6293 16.6849 20.1666 17.5547 20.1666C18.338 20.1666 18.8827 20.589 18.9947 21.22C19.01 21.291 18.9895 21.3371 18.9134 21.3371H18.3527V21.3365Z" fill="#002868"/>
<path d="M19.7321 23.6669C19.6816 23.6669 19.6406 23.6208 19.6406 23.5702V20.3037C19.6406 20.2531 19.6816 20.207 19.7321 20.207H21.1158C22.1437 20.207 22.9424 20.9142 22.9424 21.9472C22.9424 22.9648 22.1539 23.6669 21.1158 23.6669H19.7321ZM21.1158 22.9795C21.6707 22.9795 22.1027 22.5418 22.1027 21.9363C22.1027 21.3309 21.6701 20.8931 21.1107 20.8931H20.536C20.4854 20.8931 20.4445 20.9386 20.4445 20.9898V22.8874C20.4445 22.9379 20.4854 22.9789 20.536 22.9789H21.1158V22.9795Z" fill="#002868"/>
<path d="M25.0882 18.304H6.91225C6.77145 18.304 6.65625 18.1888 6.65625 18.048V7.93595C6.65625 7.23195 7.23225 6.65594 7.93625 6.65594H24.0642C24.7682 6.65594 25.3442 7.23195 25.3442 7.93595V18.048C25.3442 18.1888 25.229 18.304 25.0882 18.304Z" fill="#002868"/>
<path d="M16.9429 16.2285H15.2789C15.1733 16.2285 15.0869 16.1421 15.0869 16.0365V8.9965C15.0869 8.8909 15.1733 8.8045 15.2789 8.8045H16.9429C17.0485 8.8045 17.1349 8.8909 17.1349 8.9965V16.0365C17.1349 16.1421 17.0485 16.2285 16.9429 16.2285Z" fill="white"/>
<path d="M19.7762 10.8525H12.2242C12.1186 10.8525 12.0322 10.7661 12.0322 10.6605V8.9965C12.0322 8.8909 12.1186 8.8045 12.2242 8.8045H19.7762C19.8818 8.8045 19.9682 8.8909 19.9682 8.9965V10.6605C19.9682 10.7661 19.8818 10.8525 19.7762 10.8525Z" fill="white"/>
</g>
<defs>
<clipPath id="clip0_1648_28718">
<rect width="32" height="32" fill="white"/>
</clipPath>
</defs>
</svg>
