<svg width="32" height="32" viewBox="0 0 32 32" fill="none" xmlns="http://www.w3.org/2000/svg">
<path d="M16.0255 32C24.8922 32 32.0255 24.8667 32.0255 16C32.0255 7.13328 24.8922 0 16.0255 0C7.15879 0 0.0255127 7.13328 0.0255127 16C0.0255127 24.8667 7.15879 32 16.0255 32Z" fill="#2775CA"/>
<path d="M20.4253 18.5333C20.4253 16.2 19.0253 15.3999 16.2253 15.0666C14.2254 14.7999 13.8254 14.2666 13.8254 13.3332C13.8254 12.3997 14.4921 11.7999 15.8254 11.7999C17.0253 11.7999 17.6921 12.1999 18.0253 13.1999C18.0921 13.3999 18.2922 13.5332 18.4922 13.5332H19.5586C19.8253 13.5332 20.0253 13.3332 20.0253 13.0666V12.9999C19.7586 11.5332 18.5586 10.3999 17.0253 10.2666V8.66662C17.0253 8.3999 16.8255 8.1999 16.4922 8.13318H15.4921C15.2254 8.13318 15.0254 8.33318 14.9587 8.66662V10.1999C12.9587 10.4666 11.6921 11.7999 11.6921 13.4666C11.6921 15.6666 13.0254 16.5333 15.8254 16.8667C17.6921 17.2 18.2922 17.6 18.2922 18.6667C18.2922 19.7334 17.3586 20.4667 16.0921 20.4667C14.3587 20.4667 13.7587 19.7333 13.5587 18.7333C13.4921 18.4667 13.2921 18.3333 13.0921 18.3333H11.9587C11.6921 18.3333 11.4921 18.5333 11.4921 18.8V18.8667C11.7587 20.5333 12.8254 21.7333 15.0254 22.0667V23.6667C15.0254 23.9333 15.2254 24.1333 15.5587 24.2H16.5586C16.8253 24.2 17.0255 24 17.0922 23.6667V22.0667C19.0922 21.7333 20.4253 20.3333 20.4253 18.5333Z" fill="white"/>
<path d="M12.6257 25.5334C7.42566 23.6669 4.75893 17.8669 6.69238 12.7334C7.69238 9.93337 9.89238 7.80009 12.6257 6.80009C12.8924 6.66681 13.0257 6.46681 13.0257 6.13337V5.20009C13.0257 4.93337 12.8924 4.73337 12.6257 4.66681C12.5589 4.66681 12.4257 4.66681 12.359 4.73337C6.02566 6.73337 2.55893 13.4668 4.55893 19.8002C5.75893 23.5334 8.62566 26.4002 12.359 27.6002C12.6257 27.7334 12.8924 27.6002 12.959 27.3335C13.0257 27.2669 13.0257 27.2002 13.0257 27.0669V26.1335C13.0257 25.9335 12.8257 25.6669 12.6257 25.5334ZM19.6924 4.73337C19.4257 4.60009 19.159 4.73337 19.0924 5.00009C19.0257 5.06681 19.0257 5.13337 19.0257 5.26681V6.20009C19.0257 6.46681 19.2257 6.73337 19.4257 6.86681C24.6257 8.73337 27.2924 14.5334 25.359 19.6669C24.359 22.4669 22.159 24.6002 19.4257 25.6002C19.159 25.7334 19.0257 25.9334 19.0257 26.2669V27.2002C19.0257 27.4669 19.159 27.6669 19.4257 27.7334C19.4924 27.7334 19.6257 27.7334 19.6924 27.6669C26.0257 25.6669 29.4924 18.9334 27.4924 12.6001C26.2924 8.80009 23.359 5.93337 19.6924 4.73337Z" fill="white"/>
</svg>
