<svg width="32" height="32" viewBox="0 0 32 32" fill="none" xmlns="http://www.w3.org/2000/svg">
<g clip-path="url(#clip0_1648_28541)">
<path d="M16.0254 32C24.8921 32 32.0254 24.8667 32.0254 16C32.0254 7.13328 24.8921 0 16.0254 0C7.15867 0 0.0253906 7.13328 0.0253906 16C0.0253906 24.8667 7.15867 32 16.0254 32Z" fill="#2775CA"/>
<path d="M20.4254 18.5333C20.4254 16.2 19.0254 15.3999 16.2254 15.0666C14.2255 14.7999 13.8255 14.2666 13.8255 13.3332C13.8255 12.3997 14.4922 11.7999 15.8255 11.7999C17.0254 11.7999 17.6921 12.1999 18.0254 13.1999C18.0921 13.3999 18.2923 13.5332 18.4923 13.5332H19.5587C19.8254 13.5332 20.0254 13.3332 20.0254 13.0666V12.9999C19.7587 11.5332 18.5587 10.3999 17.0254 10.2666V8.66662C17.0254 8.3999 16.8256 8.1999 16.4923 8.13318H15.4922C15.2255 8.13318 15.0255 8.33318 14.9588 8.66662V10.1999C12.9587 10.4666 11.6922 11.7999 11.6922 13.4666C11.6922 15.6666 13.0255 16.5333 15.8255 16.8667C17.6921 17.2 18.2923 17.6 18.2923 18.6667C18.2923 19.7334 17.3587 20.4667 16.0921 20.4667C14.3588 20.4667 13.7587 19.7333 13.5587 18.7333C13.4922 18.4667 13.2922 18.3333 13.0922 18.3333H11.9587C11.6922 18.3333 11.4922 18.5333 11.4922 18.8V18.8667C11.7587 20.5333 12.8255 21.7333 15.0255 22.0667V23.6667C15.0255 23.9333 15.2255 24.1333 15.5588 24.2H16.5587C16.8254 24.2 17.0256 24 17.0923 23.6667V22.0667C19.0923 21.7333 20.4254 20.3333 20.4254 18.5333Z" fill="white"/>
<path d="M12.6257 25.5334C7.42572 23.6668 4.75899 17.8668 6.69244 12.7333C7.69244 9.93331 9.89244 7.80003 12.6257 6.80003C12.8925 6.66675 13.0257 6.46675 13.0257 6.13331V5.20003C13.0257 4.93331 12.8925 4.73331 12.6257 4.66675C12.559 4.66675 12.4257 4.66675 12.359 4.73331C6.02572 6.73331 2.55899 13.4667 4.55899 19.8001C5.759 23.5334 8.62572 26.4001 12.359 27.6001C12.6257 27.7334 12.8925 27.6001 12.959 27.3334C13.0257 27.2668 13.0257 27.2001 13.0257 27.0668V26.1334C13.0257 25.9334 12.8257 25.6668 12.6257 25.5334ZM19.6925 4.73331C19.4257 4.60003 19.159 4.73331 19.0925 5.00003C19.0257 5.06675 19.0257 5.13331 19.0257 5.26675V6.20003C19.0257 6.46675 19.2257 6.73331 19.4257 6.86675C24.6257 8.73331 27.2925 14.5333 25.359 19.6668C24.359 22.4668 22.159 24.6001 19.4257 25.6001C19.159 25.7334 19.0257 25.9334 19.0257 26.2668V27.2001C19.0257 27.4668 19.159 27.6668 19.4257 27.7334C19.4925 27.7334 19.6257 27.7334 19.6925 27.6668C26.0257 25.6668 29.4925 18.9334 27.4925 12.6C26.2925 8.80003 23.359 5.93331 19.6925 4.73331Z" fill="white"/>
</g>
<defs>
<clipPath id="clip0_1648_28541">
<rect width="32" height="32" fill="white"/>
</clipPath>
</defs>
</svg>
