<svg width="32" height="32" viewBox="0 0 32 32" fill="none" xmlns="http://www.w3.org/2000/svg">
<path fill-rule="evenodd" clip-rule="evenodd" d="M5.85969 2.21834L0.0249644 14.4742C0.00276162 14.5198 -0.0042743 14.5713 0.00488557 14.6211C0.0140455 14.671 0.0389205 14.7166 0.0758733 14.7514L15.8341 29.8515C15.8788 29.8944 15.9384 29.9184 16.0004 29.9184C16.0625 29.9184 16.1222 29.8944 16.1668 29.8515L31.925 14.7523C31.962 14.7176 31.9868 14.672 31.9961 14.6221C32.0052 14.5722 31.9981 14.5207 31.9759 14.4751L26.1412 2.21928C26.1223 2.17811 26.0921 2.14325 26.054 2.11885C26.0159 2.09443 25.9716 2.08152 25.9263 2.08163H6.07652C6.03105 2.08107 5.98637 2.09368 5.94789 2.11794C5.90941 2.14219 5.87879 2.17706 5.85969 2.21834Z" fill="#50AF95"/>
<path fill-rule="evenodd" clip-rule="evenodd" d="M18.0245 15.7328C17.9114 15.7412 17.3269 15.7761 16.0231 15.7761C14.986 15.7761 14.2497 15.745 13.9914 15.7328C9.98372 15.5565 6.99235 14.8588 6.99235 14.0235C6.99235 13.1883 9.98372 12.4916 13.9914 12.3124V15.038C14.2534 15.0568 15.0039 15.1011 16.041 15.1011C17.2853 15.1011 17.9085 15.0493 18.0207 15.0389V12.3143C22.0199 12.4925 25.0047 13.1901 25.0047 14.0235C25.0047 14.8569 22.0208 15.5546 18.0207 15.7318L18.0245 15.7328ZM18.0245 12.0324V9.59354H23.6056V5.87435H8.41025V9.59354H13.9904V12.0315C9.45483 12.2398 6.04395 13.1383 6.04395 14.2149C6.04395 15.2916 9.45483 16.1891 13.9904 16.3984V24.2138H18.0236V16.3955C22.5488 16.1872 25.954 15.2897 25.954 14.214C25.954 13.1383 22.5516 12.2408 18.0236 12.0315L18.0245 12.0324Z" fill="white"/>
</svg>
