<svg width="32" height="32" viewBox="0 0 32 32" fill="none" xmlns="http://www.w3.org/2000/svg">
<g clip-path="url(#clip0_1648_28865)">
<path d="M16 32C24.8366 32 32 24.8366 32 16C32 7.16344 24.8366 0 16 0C7.16344 0 0 7.16344 0 16C0 24.8366 7.16344 32 16 32Z" fill="#EB322A"/>
<path fill-rule="evenodd" clip-rule="evenodd" d="M18.1208 17.4458C18.0024 17.4547 17.3904 17.4912 16.0255 17.4912C14.9397 17.4912 14.1689 17.4586 13.8985 17.4458C9.70276 17.2613 6.57104 16.5309 6.57104 15.6564C6.57104 14.7819 9.70276 14.0525 13.8985 13.865V16.7184C14.1729 16.7381 14.9584 16.7845 16.0442 16.7845C17.3471 16.7845 17.9994 16.7302 18.1168 16.7194V13.867C22.3037 14.0535 25.4285 14.7839 25.4285 15.6564C25.4285 16.529 22.3047 17.2592 18.1168 17.4448L18.1208 17.4458ZM18.1208 13.5719V11.0185H23.9639V7.1248H8.05547V11.0185H13.8975V13.5709C9.14907 13.789 5.57812 14.7296 5.57812 15.8567C5.57812 16.9838 9.14907 17.9235 13.8975 18.1426V26.3248H18.1199V18.1397C22.8575 17.9216 26.4224 16.9819 26.4224 15.8558C26.4224 14.7296 22.8603 13.79 18.1199 13.5709L18.1208 13.5719Z" fill="white"/>
</g>
<defs>
<clipPath id="clip0_1648_28865">
<rect width="32" height="32" fill="white"/>
</clipPath>
</defs>
</svg>
