<svg width="32" height="32" viewBox="0 0 32 32" fill="none" xmlns="http://www.w3.org/2000/svg">
<g clip-path="url(#clip0_1648_28671)">
<path d="M16 32C24.8366 32 32 24.8366 32 16C32 7.16344 24.8366 0 16 0C7.16344 0 0 7.16344 0 16C0 24.8366 7.16344 32 16 32Z" fill="white"/>
<path d="M16.0032 0C7.16341 0 0 7.07976 0 15.8085C0 17.553 0.283699 19.2338 0.812411 20.8H5.59661V7.49997L16.0032 17.7758L26.4034 7.49997V20.8H31.1875C31.7163 19.2274 32 17.553 32 15.8085C32.0064 7.07976 24.843 0 16.0032 0Z" fill="#FF6600"/>
<path d="M13.4808 20.4949L8.70116 16V24.3894H1.59961C4.55972 28.9546 9.90286 32 15.9996 32C22.0964 32 27.4394 28.9546 30.3996 24.3894H23.298V16L18.5185 20.4949L15.9996 22.8635L13.4808 20.4949Z" fill="#5E5E5E"/>
</g>
<defs>
<clipPath id="clip0_1648_28671">
<rect width="32" height="32" fill="white"/>
</clipPath>
</defs>
</svg>
