<svg width="32" height="32" viewBox="0 0 32 32" fill="none" xmlns="http://www.w3.org/2000/svg">
<g clip-path="url(#clip0_2232_14942)">
<path d="M16 32C24.8366 32 32 24.8366 32 16C32 7.16344 24.8366 0 16 0C7.16344 0 0 7.16344 0 16C0 24.8366 7.16344 32 16 32Z" fill="white"/>
<path d="M8.67932 25.172C7.74377 25.172 6.83994 25.172 5.81342 25.172C6.51657 24.4408 7.15102 23.7813 7.785 23.1214C9.227 21.6205 10.6493 20.1 12.1153 18.6227C14.197 16.5253 17.4779 16.4293 19.7234 18.3656C19.9086 18.5253 20.0837 18.6979 20.253 18.8746C22.2371 20.9437 24.2192 23.0146 26.2629 25.1488C25.2714 25.1488 24.3582 25.1488 23.6955 25.1488C22.5661 24.1066 21.5362 23.1861 20.5419 22.2285C19.8498 21.5616 19.2278 20.8219 18.5371 20.1533C17.0794 18.7422 14.8314 18.8091 13.403 20.2871C11.9322 21.8088 10.469 23.3381 9.0014 24.8629C8.89324 24.9754 8.7763 25.0794 8.67932 25.172ZM6.22993 7.68686C8.12801 9.67124 10.027 11.6548 11.9256 13.6386C14.2424 16.0594 17.9064 16.0251 20.2357 13.5746C21.9949 11.7241 23.7712 9.89001 25.5381 8.04684C25.7346 7.84183 25.9189 7.62519 26.173 7.34268C25.1131 7.34268 24.1746 7.34268 23.5846 7.34268C22.5864 8.24783 21.7613 8.95534 20.9842 9.71219C20.208 10.4682 19.487 11.2807 18.7293 12.056C17.1242 13.6978 14.872 13.662 13.3004 12.0024C11.8218 10.4411 10.3214 8.90059 8.82498 7.34507C7.89478 7.34507 6.96919 7.34507 5.93121 7.34507C6.07575 7.511 6.14918 7.60243 6.22993 7.68686Z" fill="black"/>
</g>
<defs>
<clipPath id="clip0_2232_14942">
<rect width="32" height="32" fill="white"/>
</clipPath>
</defs>
</svg>
