<svg width="32" height="32" viewBox="0 0 32 32" fill="none" xmlns="http://www.w3.org/2000/svg">
<g clip-path="url(#clip0_1648_28703)">
<path d="M16 32C24.8366 32 32 24.8366 32 16C32 7.16344 24.8366 0 16 0C7.16344 0 0 7.16344 0 16C0 24.8366 7.16344 32 16 32Z" fill="#2C7DF7"/>
<path d="M17.6597 26.6509C16.1397 26.6509 15.0302 26.2846 14.3313 25.5525C13.6838 24.9326 13.3081 24.0816 13.2863 23.1856C13.2784 22.9134 13.3415 22.6438 13.4693 22.4034C13.5886 22.1955 13.7608 22.0232 13.9685 21.9037C14.2099 21.7834 14.476 21.7206 14.7457 21.7206C15.0154 21.7206 15.2815 21.7834 15.5229 21.9037C15.7302 22.0227 15.9016 22.1952 16.0192 22.4034C16.1508 22.6426 16.2162 22.9126 16.2088 23.1856C16.2224 23.5115 16.129 23.8331 15.9426 24.101C15.7873 24.3195 15.5654 24.4819 15.31 24.5638C15.5597 24.8818 15.9131 25.1021 16.3085 25.1862C16.7509 25.3149 17.2092 25.381 17.6698 25.3826C18.2797 25.388 18.877 25.2093 19.384 24.8701C19.9098 24.4986 20.302 23.9675 20.5023 23.3557C20.7562 22.6275 20.8802 21.8603 20.8684 21.0891C20.8888 20.2851 20.7533 19.4848 20.469 18.7325C20.2552 18.1309 19.8493 17.6162 19.314 17.268C18.8165 16.9531 18.2389 16.788 17.6501 16.7922C17.137 16.8357 16.6423 17.0035 16.2088 17.2814L15.1402 17.8173V17.2814L19.9431 10.8384H13.2863V17.5243C13.2674 18.0069 13.3951 18.4838 13.6524 18.8923C13.7769 19.0704 13.9452 19.2133 14.1412 19.3072C14.3371 19.401 14.5539 19.4427 14.7707 19.4282C15.1712 19.42 15.5585 19.2835 15.8756 19.0387C16.2351 18.7754 16.5479 18.4536 16.801 18.0869C16.8237 18.0226 16.8658 17.9667 16.9213 17.9272C16.966 17.8886 17.0229 17.8674 17.0818 17.8672C17.1975 17.8778 17.3069 17.9243 17.3948 18.0003C17.506 18.1246 17.5664 18.2861 17.5644 18.453C17.5516 18.5651 17.5316 18.6762 17.5045 18.7858C17.268 19.3581 16.8717 19.8502 16.3628 20.2032C15.8902 20.523 15.332 20.6926 14.7613 20.6898C13.3201 20.6898 12.3216 20.4056 11.766 19.8376C11.4804 19.5237 11.2603 19.1558 11.1185 18.7558C10.9768 18.3557 10.9163 17.9314 10.9405 17.5077V10.8384H7.55469V9.5961H10.9563V6.76362L10.1775 5.98429V5.34912H12.4374L13.2863 5.78853V9.5961L22.0797 9.56935L22.9552 10.448L17.5632 15.8663C17.889 15.7353 18.232 15.6523 18.5816 15.6199C19.2736 15.6502 19.9487 15.843 20.5524 16.1826C21.2516 16.5147 21.8407 17.0405 22.25 17.6974C22.6168 18.2534 22.8765 18.8733 23.0156 19.5246C23.13 20.0386 23.1912 20.5629 23.1986 21.0893C23.2021 22.0939 22.9744 23.0858 22.533 23.9882C22.1143 24.8621 21.4096 25.5666 20.5359 25.9853C19.6413 26.4261 18.657 26.6539 17.6597 26.6509Z" fill="white"/>
</g>
<defs>
<clipPath id="clip0_1648_28703">
<rect width="32" height="32" fill="white"/>
</clipPath>
</defs>
</svg>
