<svg width="24" height="24" viewBox="0 0 24 24" fill="none" xmlns="http://www.w3.org/2000/svg">
<g clip-path="url(#clip0_1979_22679)">
<path d="M11.22 8.37999C11.0936 8.50464 11.0219 8.67441 11.0206 8.85194C11.0194 9.02948 11.0887 9.20024 11.2133 9.32665C11.338 9.45307 11.5077 9.5248 11.6853 9.52605C11.8628 9.5273 12.0336 9.45797 12.16 9.33332L14.6667 6.85332V18.78C14.6667 18.9568 14.7369 19.1264 14.8619 19.2514C14.9869 19.3764 15.1565 19.4467 15.3333 19.4467C15.5101 19.4467 15.6797 19.3764 15.8047 19.2514C15.9298 19.1264 16 18.9568 16 18.78V6.85332L18.4667 9.33332C18.5288 9.39504 18.6025 9.44392 18.6836 9.47715C18.7646 9.51039 18.8514 9.52734 18.939 9.52703C19.0266 9.52672 19.1133 9.50916 19.1941 9.47535C19.2749 9.44154 19.3483 9.39215 19.41 9.32999C19.4717 9.26783 19.5206 9.19412 19.5538 9.11308C19.5871 9.03203 19.604 8.94523 19.6037 8.85763C19.6034 8.77003 19.5858 8.68336 19.552 8.60255C19.5182 8.52174 19.4688 8.44838 19.4067 8.38665L15.3333 4.31332L11.22 8.37999Z" fill="white"/>
<path d="M11.5904 14.5866C11.5911 14.4542 11.5525 14.3246 11.4793 14.2142C11.4061 14.1039 11.3017 14.0178 11.1794 13.9671C11.0571 13.9163 10.9224 13.9031 10.7926 13.9291C10.6628 13.9552 10.5436 14.0193 10.4504 14.1133L7.95704 16.5866L7.95704 4.66663C7.95704 4.48982 7.8868 4.32025 7.76178 4.19523C7.63675 4.0702 7.46719 3.99997 7.29037 3.99997C7.11356 3.99997 6.94399 4.0702 6.81897 4.19523C6.69395 4.32025 6.62371 4.48982 6.62371 4.66663L6.62371 16.5866L4.13704 14.1133C4.07488 14.0516 4.00117 14.0027 3.92013 13.9695C3.83908 13.9362 3.75228 13.9193 3.66468 13.9196C3.57709 13.9199 3.49041 13.9375 3.4096 13.9713C3.32879 14.0051 3.25543 14.0545 3.19371 14.1166C3.13199 14.1788 3.08311 14.2525 3.04988 14.3335C3.01664 14.4146 2.99969 14.5014 3 14.589C3.00063 14.7659 3.07151 14.9353 3.19704 15.06L7.29037 19.1333L11.3837 15.06C11.4479 14.9988 11.4993 14.9254 11.5347 14.8441C11.5702 14.7629 11.5891 14.6753 11.5904 14.5866Z" fill="white"/>
</g>
<defs>
<clipPath id="clip0_1979_22679">
<rect width="24" height="24" fill="white" transform="translate(0 24) rotate(-90)"/>
</clipPath>
</defs>
</svg>
