<svg width="24" height="24" viewBox="0 0 24 24" fill="none" xmlns="http://www.w3.org/2000/svg">
<path d="M11.2374 8.56907C11.1186 8.68616 11.0512 8.84564 11.0501 9.01242C11.0489 9.17919 11.114 9.3396 11.2311 9.45836C11.3482 9.57712 11.5077 9.64449 11.6745 9.64567C11.8412 9.64684 12.0016 9.58172 12.1204 9.46462L14.4752 7.13493V18.3388C14.4752 18.5049 14.5411 18.6642 14.6586 18.7816C14.776 18.899 14.9353 18.965 15.1014 18.965C15.2675 18.965 15.4268 18.899 15.5442 18.7816C15.6617 18.6642 15.7277 18.5049 15.7277 18.3388V7.13493L18.0448 9.46462C18.1032 9.5226 18.1725 9.56851 18.2486 9.59974C18.3248 9.63096 18.4063 9.64688 18.4886 9.64659C18.5709 9.6463 18.6523 9.6298 18.7282 9.59804C18.8041 9.56628 18.873 9.51988 18.931 9.46149C18.989 9.4031 19.0349 9.33386 19.0661 9.25772C19.0973 9.18159 19.1133 9.10005 19.113 9.01776C19.1127 8.93547 19.0962 8.85405 19.0644 8.77814C19.0327 8.70222 18.9863 8.63331 18.9279 8.57533L15.1014 4.74886L11.2374 8.56907Z" fill="#6DD7C3"/>
<path d="M12.2519 14.9506C12.2527 14.8262 12.2163 14.7044 12.1476 14.6008C12.0788 14.4971 11.9807 14.4163 11.8658 14.3686C11.7509 14.3209 11.6245 14.3085 11.5025 14.333C11.3805 14.3574 11.2686 14.4177 11.181 14.506L8.8388 16.8294V5.63184C8.8388 5.46575 8.77282 5.30645 8.65538 5.18901C8.53793 5.07156 8.37864 5.00558 8.21254 5.00558C8.04645 5.00558 7.88715 5.07156 7.76971 5.18901C7.65226 5.30645 7.58628 5.46575 7.58628 5.63184L7.58628 16.8294L5.25032 14.506C5.19193 14.448 5.12269 14.4021 5.04655 14.3709C4.97042 14.3396 4.88888 14.3237 4.80659 14.324C4.7243 14.3243 4.64288 14.3408 4.56697 14.3726C4.49105 14.4043 4.42214 14.4507 4.36416 14.5091C4.30618 14.5675 4.26027 14.6367 4.22904 14.7129C4.19782 14.789 4.1819 14.8706 4.18219 14.9528C4.18278 15.119 4.24936 15.2782 4.36729 15.3953L8.21254 19.2217L12.0578 15.3953C12.1181 15.3378 12.1663 15.2689 12.1997 15.1925C12.233 15.1162 12.2508 15.0339 12.2519 14.9506Z" fill="#6DD7C3"/>
</svg>
