<svg width="100" height="100" viewBox="0 0 100 100" fill="none" xmlns="http://www.w3.org/2000/svg">
<g filter="url(#filter0_d_1648_27639)">
<path d="M50.456 91.9999C75.6092 91.9999 95.9999 71.6092 95.9999 46.456C95.9999 21.3028 75.6092 0.912109 50.456 0.912109C25.3028 0.912109 4.91211 21.3028 4.91211 46.456C4.91211 71.6092 25.3028 91.9999 50.456 91.9999Z" fill="#6DD7C3"/>
<path d="M25.6468 75.3758C25.4527 75.3103 25.2593 75.2431 25.0645 75.1798C22.9779 74.501 21.7843 72.3903 22.2732 70.2429C22.7352 68.2136 24.819 66.7761 26.8557 67.0818C29.0917 67.4173 30.6357 69.3184 30.4772 71.5408C30.3514 73.3052 29.0747 74.8032 27.3067 75.2643C27.2025 75.2915 27.1033 75.3382 27.0018 75.3758C26.5501 75.3758 26.0985 75.3758 25.6468 75.3758Z" fill="white"/>
<path d="M66.296 46.9974C66.2838 55.7261 59.1889 62.8 50.454 62.7927C41.7241 62.7854 34.6433 55.6935 34.6475 46.9613C34.6516 38.2085 41.7587 31.1224 50.514 31.1416C59.242 31.1608 66.3082 38.26 66.296 46.9974ZM47.6827 51.4174C46.5859 50.4368 45.5416 49.5022 44.4961 48.5689C43.8347 47.9784 43.1839 47.3751 42.505 46.8054C41.9593 46.3474 41.3271 46.2967 40.6941 46.6054C40.137 46.8772 39.8348 47.4641 40.0063 48.1608C40.1064 48.567 40.3791 48.9886 40.6916 49.2752C42.5807 51.0075 44.5039 52.7025 46.4151 54.4106C47.4728 55.3559 48.3502 55.3091 49.2814 54.2553C51.5019 51.7426 53.7217 49.2292 55.9431 46.7173C57.4702 44.9904 58.9968 43.263 60.5301 41.5416C60.9473 41.0731 61.2243 40.5595 61.0846 39.9174C60.9626 39.3564 60.6197 38.9681 60.052 38.8124C59.3249 38.613 58.7606 38.8979 58.2896 39.4305C55.6518 42.4133 53.0161 45.398 50.3783 48.3809C49.4936 49.3815 48.605 50.3787 47.6827 51.4174Z" fill="white"/>
<path d="M74.5851 38.8268C75.1323 37.8401 75.6302 36.94 76.1304 36.0411C76.4815 35.4102 76.6884 35.3222 77.3835 35.5712C77.9736 35.7827 78.5697 35.9918 79.1297 36.2694C79.6853 36.5448 79.7557 36.7676 79.5009 37.3244C78.6094 39.2722 77.7196 41.2215 76.7773 43.1447C76.4977 43.7153 76.0604 44.2121 75.6718 44.7249C75.2407 45.2937 74.6469 45.4534 73.9885 45.2291C73.2128 44.9648 72.434 44.6903 71.6961 44.3374C70.0928 43.5705 68.5675 42.6645 67.2018 41.516C66.529 40.9502 66.4242 40.5508 66.8611 39.7858C67.1504 39.2793 67.5558 38.8261 67.9679 38.4067C68.344 38.0239 68.8348 37.9852 69.3041 38.2687C69.7858 38.5598 70.2501 38.8797 70.7199 39.1902C70.8465 39.2739 70.9654 39.3693 71.1868 39.532C71.1023 39.2644 71.067 39.1109 71.0069 38.968C67.6903 31.0855 61.8438 26.2869 53.3858 24.9958C42.8101 23.3813 32.6442 29.7422 29.2212 39.8725C29.0261 40.4498 28.8252 41.0327 28.5491 41.5732C28.1993 42.2578 27.8599 42.3719 27.1261 42.1755C26.8163 42.0926 26.51 41.9936 26.2079 41.8857C25.5584 41.6539 25.3233 41.3286 25.4348 40.6357C25.5339 40.0201 25.6834 39.4022 25.898 38.8173C29.4089 29.2479 36.1555 23.383 46.1926 21.6124C58.1899 19.4961 70.206 26.6551 74.3335 38.1387C74.4042 38.3353 74.4769 38.5311 74.5851 38.8268Z" fill="white"/>
<path d="M26.0689 55.5841C25.5864 56.4778 25.1345 57.2755 24.7229 58.0936C24.517 58.5031 24.2009 58.6383 23.8125 58.5147C23.1241 58.2956 22.4372 58.055 21.7821 57.7531C21.2338 57.5004 21.1557 57.2492 21.4027 56.696C22.2817 54.7275 23.1565 52.7562 24.0918 50.8143C24.3807 50.2144 24.8377 49.6896 25.2537 49.1586C25.6285 48.68 26.1449 48.5645 26.733 48.707C28.4478 49.1227 29.9748 49.9572 31.4604 50.8646C32.2692 51.3586 33.0249 51.941 33.7932 52.4993C34.2618 52.8399 34.3479 53.3102 34.1447 53.834C34.052 54.0729 33.9426 54.3098 33.8077 54.5271C32.9066 55.9782 32.1591 56.1403 30.7685 55.1753C30.2666 54.8269 29.7898 54.4423 29.2419 54.0292C29.2889 54.2024 29.3108 54.3302 29.3575 54.4481C32.6477 62.7535 38.6597 67.7804 47.5324 68.9688C58.4821 70.4352 68.5878 63.6352 71.6501 53.0237C71.6724 52.9463 71.6937 52.8687 71.7175 52.7918C72.1255 51.4776 73.1985 50.9556 74.4383 51.4993C74.8622 51.6852 75.1436 52.0471 75.1031 52.5323C75.0592 53.0583 75.01 53.6003 74.8471 54.0974C71.5446 64.1727 64.705 70.3554 54.269 72.2217C42.4816 74.3296 30.6106 67.4091 26.3158 56.2016C26.2468 56.0216 26.1728 55.8435 26.0689 55.5841Z" fill="white"/>
<path d="M76.9412 21.4734C76.9372 23.2854 75.4563 24.7567 73.641 24.7522C71.8295 24.7477 70.3585 23.2667 70.3628 21.4517C70.3671 19.6405 71.8489 18.1676 73.6626 18.1719C75.4724 18.1762 76.9452 19.6593 76.9412 21.4734Z" fill="white"/>
<path d="M60.8776 16.209C60.8901 15.0447 61.8526 14.1006 63.02 14.1076C64.2044 14.1147 65.1575 15.0976 65.1328 16.2865C65.1085 17.4495 64.1355 18.3826 62.9666 18.3638C61.8033 18.345 60.865 17.3771 60.8776 16.209Z" fill="white"/>
</g>
<defs>
<filter id="filter0_d_1648_27639" x="0.912109" y="0.912109" width="99.0879" height="99.0878" filterUnits="userSpaceOnUse" color-interpolation-filters="sRGB">
<feFlood flood-opacity="0" result="BackgroundImageFix"/>
<feColorMatrix in="SourceAlpha" type="matrix" values="0 0 0 0 0 0 0 0 0 0 0 0 0 0 0 0 0 0 127 0" result="hardAlpha"/>
<feOffset dy="4"/>
<feGaussianBlur stdDeviation="2"/>
<feComposite in2="hardAlpha" operator="out"/>
<feColorMatrix type="matrix" values="0 0 0 0 0 0 0 0 0 0 0 0 0 0 0 0 0 0 0.25 0"/>
<feBlend mode="normal" in2="BackgroundImageFix" result="effect1_dropShadow_1648_27639"/>
<feBlend mode="normal" in="SourceGraphic" in2="effect1_dropShadow_1648_27639" result="shape"/>
</filter>
</defs>
</svg>
