<svg width="17" height="21" viewBox="0 0 17 21" fill="none" xmlns="http://www.w3.org/2000/svg">
<path d="M8.49987 12.4353C10.6347 12.4353 12.3708 10.6992 12.3708 8.56433C12.3708 6.42949 10.6347 4.69336 8.49987 4.69336C6.36504 4.69336 4.62891 6.42949 4.62891 8.56433C4.62891 10.6992 6.36504 12.4353 8.49987 12.4353ZM8.49987 6.62884C9.56729 6.62884 10.4354 7.49691 10.4354 8.56433C10.4354 9.63175 9.56729 10.4998 8.49987 10.4998C7.43245 10.4998 6.56439 9.63175 6.56439 8.56433C6.56439 7.49691 7.43245 6.62884 8.49987 6.62884Z" fill="white"/>
<path d="M7.93854 19.9972C8.10233 20.1142 8.29857 20.1771 8.49983 20.1771C8.7011 20.1771 8.89734 20.1142 9.06112 19.9972C9.35532 19.7892 16.2698 14.7966 16.2418 8.56432C16.2418 4.29561 12.7685 0.822388 8.49983 0.822388C4.23112 0.822388 0.757898 4.29561 0.757898 8.55948C0.729833 14.7966 7.64435 19.7892 7.93854 19.9972ZM8.49983 2.75787C11.7021 2.75787 14.3063 5.36207 14.3063 8.56916C14.3266 12.864 10.0598 16.7205 8.49983 17.9853C6.9408 16.7195 2.67306 12.8621 2.69338 8.56432C2.69338 5.36206 5.29757 2.75787 8.49983 2.75787Z" fill="white"/>
</svg>
