<svg width="19" height="15" viewBox="0 0 19 15" fill="none" xmlns="http://www.w3.org/2000/svg">
<path d="M4.05714 0.967651C3.19091 0.967651 2.36016 1.31176 1.74764 1.92428C1.13512 2.5368 0.791016 3.36755 0.791016 4.23378V10.766C0.791016 11.6323 1.13512 12.463 1.74764 13.0755C2.36016 13.6881 3.19091 14.0322 4.05714 14.0322H14.9442C15.8105 14.0322 16.6412 13.6881 17.2537 13.0755C17.8663 12.463 18.2104 11.6323 18.2104 10.766V4.23378C18.2104 3.36755 17.8663 2.5368 17.2537 1.92428C16.6412 1.31176 15.8105 0.967651 14.9442 0.967651H4.05714ZM2.96844 4.23378C2.96844 3.94504 3.08314 3.66812 3.28731 3.46395C3.49148 3.25977 3.7684 3.14507 4.05714 3.14507H14.9442C15.233 3.14507 15.5099 3.25977 15.7141 3.46395C15.9182 3.66812 16.033 3.94504 16.033 4.23378V4.60394L9.50069 7.4041L2.96844 4.60394V4.23378ZM2.96844 6.97297L9.07174 9.58805C9.20728 9.64616 9.35322 9.67612 9.50069 9.67612C9.64817 9.67612 9.7941 9.64616 9.92964 9.58805L16.033 6.97297V10.766C16.033 11.0548 15.9182 11.3317 15.7141 11.5359C15.5099 11.74 15.233 11.8547 14.9442 11.8547H4.05714C3.7684 11.8547 3.49148 11.74 3.28731 11.5359C3.08314 11.3317 2.96844 11.0548 2.96844 10.766V6.97297Z" fill="white"/>
</svg>
