<svg width="12" height="16" viewBox="0 0 12 16" fill="none" xmlns="http://www.w3.org/2000/svg">
<path d="M10.5 6.5H3.75V4.25C3.75 3.0095 4.7595 2 6 2C7.2405 2 8.25 3.0095 8.25 4.25H9.75C9.75 2.18225 8.06775 0.5 6 0.5C3.93225 0.5 2.25 2.18225 2.25 4.25V6.5H1.5C1.10218 6.5 0.720644 6.65804 0.43934 6.93934C0.158035 7.22064 0 7.60218 0 8V14C0 14.3978 0.158035 14.7794 0.43934 15.0607C0.720644 15.342 1.10218 15.5 1.5 15.5H10.5C10.8978 15.5 11.2794 15.342 11.5607 15.0607C11.842 14.7794 12 14.3978 12 14V8C12 7.60218 11.842 7.22064 11.5607 6.93934C11.2794 6.65804 10.8978 6.5 10.5 6.5ZM4.54575 10.6242C4.63794 10.2713 4.85545 9.96403 5.15766 9.75975C5.45987 9.55548 5.8261 9.46821 6.18795 9.51423C6.54981 9.56026 6.88253 9.73643 7.12398 10.0098C7.36543 10.2833 7.49909 10.6352 7.5 11C7.49957 11.2623 7.43002 11.5199 7.29835 11.7467C7.16668 11.9736 6.97754 12.1618 6.75 12.2922V14H5.25V12.2922C4.96622 12.1296 4.74363 11.8784 4.61642 11.5771C4.4892 11.2758 4.46437 10.941 4.54575 10.6242Z" fill="#2B2B37"/>
</svg>
