<svg width="14" height="16" viewBox="0 0 14 16" fill="none" xmlns="http://www.w3.org/2000/svg">
<path d="M4.33594 2.66671V10.6667C4.33594 11.0203 4.47641 11.3595 4.72646 11.6095C4.97651 11.8596 5.31565 12 5.66927 12H11.0026C11.3562 12 11.6954 11.8596 11.9454 11.6095C12.1955 11.3595 12.3359 11.0203 12.3359 10.6667V4.82804C12.3359 4.65041 12.3004 4.47458 12.2315 4.31087C12.1626 4.14716 12.0616 3.99887 11.9346 3.87471L9.7246 1.71337C9.47551 1.46981 9.14099 1.33342 8.7926 1.33337H5.66927C5.31565 1.33337 4.97651 1.47385 4.72646 1.7239C4.47641 1.97395 4.33594 2.31309 4.33594 2.66671V2.66671Z" stroke="#2B2B37" stroke-width="1.5" stroke-linecap="round" stroke-linejoin="round"/>
<path d="M9.66797 12.0001V13.3334C9.66797 13.687 9.52749 14.0262 9.27744 14.2762C9.0274 14.5263 8.68826 14.6667 8.33464 14.6667H3.0013C2.64768 14.6667 2.30854 14.5263 2.05849 14.2762C1.80844 14.0262 1.66797 13.687 1.66797 13.3334V6.00008C1.66797 5.64646 1.80844 5.30732 2.05849 5.05727C2.30854 4.80722 2.64768 4.66675 3.0013 4.66675H4.33464" stroke="#2B2B37" stroke-width="1.5" stroke-linecap="round" stroke-linejoin="round"/>
</svg>
