<svg width="96" height="96" viewBox="0 0 96 96" fill="none" xmlns="http://www.w3.org/2000/svg">
<path d="M0 0V33.2308H33.2308V0H0ZM40.6154 0V7.38462H48V0H40.6154ZM48 7.38462V14.7692H40.6154V29.5385H48V22.1538H55.3846V7.38462H48ZM48 29.5385V40.6154H14.7692V48H7.38462V55.3846H22.1538V48H29.5385V55.3846H48V48H55.3846V55.3846H66.4615V48H73.8462V40.6154H55.3846V29.5385H48ZM73.8462 48V55.3846H96V48H88.6154V40.6154H81.2308V48H73.8462ZM7.38462 48V40.6154H0V48H7.38462ZM62.7692 0V33.2308H96V0H62.7692ZM7.38462 7.38462H25.8462V25.8462H7.38462V7.38462ZM70.1538 7.38462H88.6154V25.8462H70.1538V7.38462ZM11.0769 11.0769V22.1538H22.1538V11.0769H11.0769ZM73.8462 11.0769V22.1538H84.9231V11.0769H73.8462ZM40.6154 59.0769V66.4615H48V59.0769H40.6154ZM48 66.4615V73.8462H40.6154V88.6154H48V81.2308H62.7692V73.8462H70.1538V66.4615H77.5385V73.8462H70.1538V81.2308H62.7692V96H70.1538V88.6154H77.5385V81.2308H81.2308V88.6154H77.5385V96H84.9231V88.6154H88.6154V81.2308H96V66.4615H88.6154V59.0769H62.7692V66.4615H48ZM88.6154 88.6154V96H96V88.6154H88.6154ZM48 88.6154V96H55.3846V88.6154H48ZM0 62.7692V96H33.2308V62.7692H0ZM7.38462 70.1538H25.8462V88.6154H7.38462V70.1538ZM11.0769 73.8462V84.9231H22.1538V73.8462H11.0769Z" fill="black"/>
</svg>
