<svg width="21" height="21" viewBox="0 0 21 21" fill="none" xmlns="http://www.w3.org/2000/svg">
<path d="M1.47254 5.09968C1.80786 4.63099 2.11947 4.14624 2.49727 3.7072C3.18442 2.90867 3.96255 2.22431 4.85358 1.65786C5.65289 1.14973 6.49582 0.749214 7.39782 0.469161C8.80231 0.033039 10.236 -0.0966482 11.6964 0.0701734C12.7638 0.192111 13.7922 0.464895 14.7717 0.906675C15.3645 1.17406 15.9223 1.50444 16.4689 1.86124C17.5704 2.58021 18.4528 3.51613 19.1905 4.58545C19.9785 5.72761 20.4904 6.99814 20.7712 8.36093C20.9685 9.31793 21.0517 10.2839 20.967 11.2561C20.8628 12.4549 20.5968 13.6106 20.0999 14.7215C19.6797 15.6612 19.161 16.524 18.4969 17.3032C17.8472 18.0655 17.1144 18.7324 16.2724 19.2822C15.699 19.6566 15.1013 19.9908 14.4704 20.2389C13.4147 20.6541 12.3199 20.9348 11.1744 20.984C10.3678 21.0186 9.56587 21.005 8.77025 20.8637C8.08689 20.7423 7.41992 20.5652 6.76694 20.3197C6.13347 20.0816 5.51907 19.7994 4.953 19.4429C4.13686 18.9286 3.40113 18.3045 2.74642 17.5855C2.01696 16.7844 1.42549 15.8961 0.972924 14.9149C0.333612 13.529 0.0192198 12.0679 0.000518946 10.543C-0.00652652 9.96963 0.0591877 9.4006 0.135557 8.83297C0.141037 8.79234 0.13547 8.75029 0.135035 8.70885C0.201836 8.6674 0.195922 8.59488 0.207968 8.53162C0.377842 7.63991 0.664358 6.7877 1.05247 5.96722C1.18999 5.67668 1.37973 5.41155 1.47254 5.09968ZM13.725 10.7316C14.0093 10.5804 14.2795 10.4937 14.4929 10.3028C15.3157 9.56716 15.535 7.83565 14.1996 7.00154C13.7835 6.74168 13.3397 6.54909 12.8613 6.35258C12.9404 5.71129 13.1966 5.11117 13.2798 4.45437C12.8851 4.35647 12.5153 4.22652 12.1305 4.18477C11.9733 4.80195 11.8224 5.39366 11.6663 6.00609C11.3715 5.91572 11.0678 5.9243 10.7903 5.76784C10.8905 5.14138 11.1284 4.55446 11.1934 3.92574C10.788 3.86202 10.4447 3.70398 10.0511 3.68696C9.89618 4.30554 9.74623 4.90408 9.59074 5.52474C8.81035 5.40502 8.09384 5.13638 7.30662 4.99193C7.13366 5.37982 7.05707 5.78908 6.98767 6.2245C7.24409 6.2851 7.46701 6.33869 7.69038 6.39042C8.25424 6.52093 8.40871 6.82949 8.27485 7.32308C8.1796 7.67418 8.09367 8.02785 8.00599 8.38099C7.6909 9.65044 7.37834 10.9204 7.06138 12.1894C6.98997 12.4753 6.812 12.5684 6.52218 12.526C6.23676 12.4842 5.96737 12.3559 5.65281 12.3652C5.51642 12.8019 5.24495 13.1867 5.14884 13.6689C5.89844 13.86 6.62364 14.045 7.38181 14.2383C7.32476 14.9003 7.05068 15.5062 6.9697 16.1729C7.34977 16.2642 7.70751 16.35 8.08062 16.4395C8.32648 15.8281 8.38319 15.1856 8.61234 14.5532C8.88854 14.6954 9.19498 14.6541 9.46528 14.833C9.31797 15.4427 9.17119 16.0499 9.02263 16.6648C9.41343 16.8048 9.79471 16.8619 10.1863 16.9595C10.3449 16.3237 10.4981 15.7088 10.6464 15.1143C10.7388 15.0668 10.8063 15.0756 10.87 15.0893C11.4838 15.2208 12.1047 15.2515 12.7261 15.1825C13.2639 15.1227 13.7412 14.9175 14.1242 14.5132C14.5501 14.0638 14.7639 13.514 14.867 12.9228C14.9508 12.441 14.9294 11.953 14.6469 11.5266C14.4254 11.1925 14.1213 10.9375 13.725 10.7316ZM9.2877 13.2417C10.0449 13.4299 10.8013 13.6313 11.5936 13.4865C12.0161 13.4092 12.3346 13.1936 12.4628 12.7681C12.5836 12.3668 12.5134 12.0021 12.216 11.685C11.9068 11.3552 11.5092 11.1838 11.0991 11.0404C10.6092 10.8691 10.1126 10.7136 9.57734 10.6713C9.37225 11.5057 9.17319 12.3157 8.9697 13.1434C9.09934 13.1839 9.19224 13.2179 9.2877 13.2417ZM11.9623 9.74486C12.3811 9.68532 12.7283 9.408 12.8304 9.03122C12.9551 8.5705 12.8157 8.16642 12.4432 7.89159C12.0206 7.57975 11.5339 7.42112 11.0311 7.31098C10.8438 7.26993 10.6595 7.16061 10.4328 7.23441C10.2526 7.96738 10.0717 8.70353 9.88487 9.46372C10.6006 9.64461 11.2597 9.84478 11.9623 9.74486Z" fill="#F39321"/>
</svg>
