<svg width="99" height="16" viewBox="0 0 99 16" fill="none" xmlns="http://www.w3.org/2000/svg">
<g clip-path="url(#clip0_2056_18559)">
<path d="M23.0125 11.9427C22.317 11.5819 21.737 11.0412 21.3365 10.38C20.9266 9.69566 20.7171 8.91497 20.7306 8.12275C20.7183 7.33052 20.93 6.55027 21.3424 5.86744C21.7466 5.20618 22.3285 4.66515 23.0254 4.30281C23.7612 3.91828 24.5854 3.72274 25.4202 3.73464C26.0936 3.72664 26.7617 3.85132 27.3844 4.1012C27.9629 4.33527 28.4767 4.69878 28.8842 5.1623L27.8338 6.12693C27.5409 5.80616 27.1803 5.55081 26.7767 5.37833C26.3731 5.20586 25.9361 5.12032 25.4955 5.12757C24.9325 5.11918 24.3768 5.25206 23.8818 5.51342C23.4165 5.75901 23.031 6.12657 22.769 6.57452C22.498 7.04553 22.3597 7.57801 22.3681 8.11792C22.3584 8.66117 22.4971 9.19716 22.77 9.67098C23.0323 10.1187 23.4177 10.4862 23.8828 10.7321C24.3778 10.9934 24.9335 11.1263 25.4965 11.1179C25.9383 11.1248 26.3763 11.0378 26.7801 10.8631C27.1839 10.6883 27.5438 10.43 27.8348 10.106L28.8852 11.0803C28.4761 11.5451 27.9597 11.9087 27.3784 12.1414C26.7536 12.3908 26.0836 12.5151 25.4083 12.507C24.5735 12.5202 23.749 12.326 23.0125 11.9427Z" fill="#002358"/>
<path d="M31.284 12.0468C30.7562 11.7753 30.3172 11.3649 30.0168 10.8622C29.7084 10.3381 29.5507 9.74258 29.5604 9.13845C29.5499 8.53576 29.7077 7.94161 30.0168 7.41948C30.3174 6.91633 30.7563 6.50504 31.284 6.23202C31.8519 5.95227 32.4792 5.80652 33.1155 5.80652C33.7518 5.80652 34.3792 5.95227 34.947 6.23202C35.4747 6.50317 35.9142 6.91241 36.2162 7.4137C36.5258 7.93564 36.6836 8.52991 36.6726 9.13267C36.6851 9.73845 36.5287 10.3362 36.2202 10.8622C35.9182 11.3656 35.477 11.7761 34.947 12.0468C34.3792 12.3266 33.7518 12.4723 33.1155 12.4723C32.4792 12.4723 31.8519 12.3266 31.284 12.0468ZM34.5362 10.6086C34.9117 10.2349 35.0991 9.7436 35.0985 9.1346C35.0978 8.52559 34.911 8.03395 34.5381 7.65968C34.3533 7.47519 34.1312 7.33018 33.8857 7.23387C33.6403 7.13755 33.377 7.09202 33.1125 7.10019C32.8489 7.09177 32.5863 7.13729 32.3418 7.23382C32.0972 7.33036 31.8762 7.47575 31.6929 7.66064C31.322 8.03427 31.1365 8.52591 31.1365 9.13556C31.1365 9.74521 31.322 10.2365 31.6929 10.6095C31.8762 10.7944 32.0972 10.9398 32.3418 11.0363C32.5863 11.1329 32.8489 11.1784 33.1125 11.17C33.3771 11.1779 33.6405 11.1321 33.886 11.0354C34.1314 10.9388 34.3535 10.7934 34.5381 10.6086H34.5362Z" fill="#002358"/>
<path d="M38.313 4.54587C38.2199 4.46359 38.1461 4.36278 38.0966 4.25027C38.0471 4.13775 38.0229 4.01618 38.0259 3.89378C38.0231 3.7714 38.0473 3.64986 38.0968 3.53737C38.1463 3.42488 38.22 3.32405 38.313 3.24169C38.5061 3.06653 38.7621 2.9723 39.0258 2.97931C39.2874 2.97186 39.5422 3.06151 39.7386 3.23012C39.8312 3.30734 39.9051 3.40364 39.955 3.51207C40.0048 3.6205 40.0293 3.73835 40.0267 3.85712C40.0295 3.98241 40.006 4.10693 39.9577 4.22305C39.9093 4.33917 39.8371 4.44443 39.7455 4.53237C39.6511 4.62349 39.5385 4.69481 39.4147 4.74193C39.291 4.78905 39.1586 4.81096 39.0258 4.80632C38.7623 4.81395 38.5063 4.72042 38.313 4.54587ZM38.2377 5.88092H39.8009V12.3883H38.2397L38.2377 5.88092Z" fill="#002358"/>
<path d="M47.7279 6.50115C48.2368 6.98089 48.4912 7.6915 48.4912 8.63298V12.3873H46.928V8.85291C46.928 8.2677 46.7904 7.83073 46.5152 7.54198C46.24 7.25324 45.8473 7.10918 45.3371 7.10983C44.7616 7.10983 44.3071 7.27831 43.9738 7.61529C43.6405 7.95227 43.4722 8.4378 43.4689 9.07188V12.3902H41.9077V5.87896H43.3927V6.71915C43.6561 6.39118 43.9966 6.15677 44.3708 6.01208C44.7936 5.85291 45.244 5.77478 45.6974 5.78153C46.5389 5.78089 47.2141 6.02012 47.723 6.49922" fill="#002358"/>
<path d="M54.4104 5.77864V7.25066C54.2906 7.20243 54.1698 7.19086 54.048 7.18893C53.4389 7.18893 52.9636 7.3616 52.6224 7.70693C52.2812 8.05227 52.1103 8.55099 52.1096 9.20308V12.3844H50.5454V5.87317H52.0304V6.82333C52.4832 6.12494 53.2752 5.77542 54.4064 5.77478" fill="#002358"/>
<path d="M60.5722 6.49535C61.0929 6.95451 61.3533 7.64711 61.3533 8.57316V12.3883H59.8782V11.5963C59.6771 11.8876 59.3918 12.1143 59.0584 12.2474C58.6515 12.4075 58.2151 12.4844 57.7764 12.4732C57.3252 12.4823 56.8772 12.3971 56.4627 12.2233C56.1116 12.0762 55.8103 11.8354 55.5934 11.5288C55.3894 11.2316 55.2828 10.8811 55.2875 10.5236C55.2783 10.2544 55.3341 9.98679 55.4503 9.74236C55.5665 9.49792 55.74 9.28347 55.9568 9.11625C56.4023 8.76255 57.1049 8.5857 58.0645 8.5857H59.7901V8.48924C59.7901 8.03393 59.6505 7.68474 59.3713 7.44165C59.0911 7.1976 58.6783 7.07509 58.1269 7.07509C57.7524 7.07573 57.3804 7.133 57.024 7.24486C56.689 7.34464 56.3768 7.50607 56.1043 7.72043L55.4915 6.6111C55.8709 6.33771 56.2993 6.13555 56.7547 6.01496C57.2609 5.8748 57.7848 5.80497 58.311 5.80756C59.297 5.80756 60.0508 6.03683 60.5722 6.49535ZM59.1456 11.1024C59.4444 10.9344 59.6726 10.669 59.7901 10.3529V9.5976H58.1764C57.2761 9.5976 56.826 9.88699 56.826 10.4658C56.822 10.5942 56.8508 10.7216 56.9097 10.8366C56.9686 10.9516 57.0558 11.0505 57.1636 11.1246C57.3893 11.2876 57.7012 11.3687 58.1021 11.3687C58.4683 11.3738 58.829 11.2818 59.1456 11.1024Z" fill="#002358"/>
<path d="M69.2307 6.50115C69.7376 6.98089 69.991 7.6915 69.991 8.63298V12.3873H68.4308V8.85291C68.4308 8.2677 68.2932 7.83073 68.018 7.54198C67.7428 7.25324 67.3507 7.10918 66.8419 7.10983C66.2663 7.10983 65.8119 7.27831 65.4786 7.61529C65.1453 7.95227 64.9803 8.4378 64.9836 9.07188V12.3902H63.4155V5.87896H64.9005V6.71915C65.1638 6.39118 65.5044 6.15677 65.8786 6.01208C66.3013 5.85291 66.7508 5.77478 67.2042 5.78153C68.047 5.78089 68.7225 6.02012 69.2307 6.49922" fill="#002358"/>
<path d="M74.7747 9.59861L73.6114 10.6693V12.3883H72.0482V3.34973H73.6114V8.80954L76.8507 5.88671H78.7317L75.93 8.61661L78.9822 12.398H77.0814" fill="#002358"/>
<path d="M80.0761 4.54587C79.9833 4.46344 79.9096 4.36259 79.8601 4.25012C79.8106 4.13764 79.7863 4.01614 79.789 3.89378C79.7864 3.77143 79.8107 3.64995 79.8602 3.53748C79.9097 3.42502 79.9833 3.32417 80.0761 3.24169C80.2695 3.06638 80.5259 2.97215 80.7899 2.97931C81.0515 2.97186 81.3063 3.06151 81.5027 3.23012C81.5951 3.30752 81.6687 3.40388 81.7184 3.51228C81.768 3.62068 81.7924 3.73845 81.7898 3.85712C81.7929 3.98244 81.7695 4.10703 81.7212 4.22318C81.6728 4.33933 81.6005 4.44457 81.5086 4.53237C81.4144 4.62347 81.302 4.69478 81.1784 4.7419C81.0548 4.78901 80.9226 4.81094 80.7899 4.80632C80.5261 4.81411 80.2698 4.72057 80.0761 4.54587ZM80.0019 5.88092H81.5651V12.3883H80.0019V5.88092Z" fill="#002358"/>
<path d="M89.496 6.50115C90.0036 6.98089 90.2577 7.6915 90.2583 8.63298V12.3873H88.6941V8.85291C88.6941 8.2677 88.5565 7.83073 88.2813 7.54198C88.0061 7.25324 87.614 7.10918 87.1052 7.10983C86.5296 7.10983 86.0752 7.27831 85.7419 7.61529C85.4086 7.95227 85.241 8.4378 85.239 9.07188V12.3902H83.6788V5.87896H85.1638V6.71915C85.4271 6.39118 85.7677 6.15677 86.1429 6.01208C86.5656 5.85291 87.0151 5.77478 87.4685 5.78153C88.3113 5.78089 88.9872 6.02012 89.496 6.49922" fill="#002358"/>
<path d="M99 5.88094V11.4006C99 13.6925 97.7991 14.8382 95.3974 14.8375C94.7805 14.8409 94.1662 14.761 93.5718 14.6002C93.0529 14.4691 92.5675 14.2346 92.1462 13.9115L92.8461 12.7655C93.1746 13.0202 93.5495 13.2123 93.951 13.3317C94.3884 13.4732 94.8463 13.5455 95.3073 13.5459C96.0412 13.5459 96.5794 13.3851 96.922 13.0636C97.2645 12.742 97.4354 12.2462 97.4348 11.5761V11.2356C97.1649 11.5213 96.8308 11.7422 96.4586 11.8809C96.0553 12.0302 95.6268 12.1045 95.1954 12.0999C94.5975 12.1085 94.0066 11.9726 93.4758 11.7044C92.9741 11.4478 92.5559 11.0599 92.268 10.5845C91.9667 10.0864 91.8128 9.51684 91.8235 8.93882C91.8121 8.36254 91.966 7.79461 92.268 7.29895C92.5585 6.82819 92.9786 6.44622 93.4807 6.19638C94.0133 5.93358 94.6035 5.80114 95.2004 5.81052C95.6502 5.80467 96.097 5.88225 96.517 6.03914C96.9034 6.18891 97.2442 6.43228 97.5071 6.74622V5.87805L99 5.88094ZM96.8923 10.2835C97.0808 10.1113 97.2291 9.90151 97.3272 9.66851C97.4252 9.4355 97.4707 9.18467 97.4605 8.93303C97.4695 8.68482 97.4233 8.43766 97.3253 8.20842C97.2272 7.97917 97.0795 7.77326 96.8923 7.60474C96.5154 7.2684 96.03 7.10023 95.436 7.10023C94.842 7.10023 94.3522 7.27065 93.9668 7.61149C93.7794 7.77996 93.6316 7.98585 93.5334 8.21508C93.4351 8.44432 93.3888 8.69151 93.3976 8.93978C93.3876 9.19149 93.4333 9.44234 93.5315 9.67534C93.6297 9.90835 93.7781 10.1181 93.9668 10.2903C94.3463 10.6369 94.836 10.8096 95.436 10.8083C96.0359 10.807 96.5213 10.6321 96.8923 10.2835Z" fill="#002358"/>
<path opacity="0.35" d="M11.8235 15.9497C11.3546 15.9501 10.8903 15.8603 10.4571 15.6855C10.0239 15.5107 9.63036 15.2543 9.29902 14.9311L1.04539 6.88799C0.546309 6.40166 0.206437 5.78205 0.0687481 5.10751C-0.068941 4.43298 0.00173574 3.7338 0.271842 3.0984C0.541947 2.463 0.999352 1.91991 1.58622 1.5378C2.17309 1.15568 2.86306 0.951706 3.5689 0.95166H11.8235C12.292 0.95166 12.7558 1.04164 13.1885 1.21646C13.6213 1.39128 14.0144 1.64751 14.3454 1.97049C14.6764 2.29346 14.9388 2.67686 15.1176 3.09874C15.2965 3.52062 15.3882 3.97271 15.3875 4.42915V12.4722C15.3882 12.9287 15.2965 13.3808 15.1176 13.8027C14.9388 14.2245 14.6764 14.6079 14.3454 14.9309C14.0144 15.2539 13.6213 15.5101 13.1885 15.6849C12.7558 15.8597 12.292 15.9497 11.8235 15.9497Z" fill="#32EF8F"/>
<path d="M3.56893 15.9497C2.86203 15.952 2.1704 15.7494 1.58199 15.3677C0.993578 14.9859 0.534959 14.4423 0.264446 13.806C-0.0060675 13.1696 -0.0762544 12.4692 0.0628091 11.7939C0.201873 11.1186 0.543904 10.4988 1.04542 10.0134L9.29608 1.9703C9.96562 1.31792 10.8737 0.951416 11.8206 0.951416C12.7674 0.951416 13.6755 1.31792 14.3451 1.9703C15.0146 2.62268 15.3908 3.5075 15.3908 4.43011C15.3908 5.35272 15.0146 6.23753 14.3451 6.88992L6.08848 14.933C5.42017 15.584 4.5139 15.9497 3.56893 15.9497Z" fill="#32EF8F"/>
</g>
<defs>
<clipPath id="clip0_2056_18559">
<rect width="99" height="15" fill="white" transform="translate(0 0.925659)"/>
</clipPath>
</defs>
</svg>
