<svg width="81" height="27" viewBox="0 0 81 27" fill="none" xmlns="http://www.w3.org/2000/svg">
<path d="M32.3112 18.1289V10.3315H33.3457L33.4655 11.17C33.6398 10.9159 33.8793 10.6909 34.1843 10.4948C34.4892 10.2988 34.8812 10.2008 35.3604 10.2008C35.8831 10.2008 36.3442 10.3242 36.7435 10.5711C37.1428 10.8179 37.455 11.1555 37.68 11.5839C37.9123 12.0122 38.0285 12.4986 38.0285 13.0431C38.0285 13.5877 37.9123 14.0741 37.68 14.5024C37.455 14.9235 37.1428 15.2575 36.7435 15.5043C36.3442 15.7439 35.8795 15.8637 35.3495 15.8637C34.9284 15.8637 34.5545 15.7802 34.2278 15.6132C33.9084 15.4463 33.6543 15.2103 33.4655 14.9054V18.1289H32.3112ZM35.1535 14.8618C35.6472 14.8618 36.0538 14.6948 36.3732 14.3609C36.6926 14.0196 36.8524 13.5768 36.8524 13.0323C36.8524 12.6765 36.7798 12.3607 36.6346 12.0848C36.4894 11.8089 36.2897 11.5948 36.0356 11.4423C35.7815 11.2826 35.4875 11.2027 35.1535 11.2027C34.6598 11.2027 34.2532 11.3733 33.9338 11.7145C33.6216 12.0558 33.4655 12.495 33.4655 13.0323C33.4655 13.5768 33.6216 14.0196 33.9338 14.3609C34.2532 14.6948 34.6598 14.8618 35.1535 14.8618Z" fill="black"/>
<path d="M40.475 9.30781C40.2572 9.30781 40.0757 9.24247 39.9305 9.11179C39.7925 8.97385 39.7235 8.80324 39.7235 8.59995C39.7235 8.39667 39.7925 8.22969 39.9305 8.099C40.0757 7.96106 40.2572 7.89209 40.475 7.89209C40.6928 7.89209 40.8706 7.96106 41.0086 8.099C41.1538 8.22969 41.2264 8.39667 41.2264 8.59995C41.2264 8.80324 41.1538 8.97385 41.0086 9.11179C40.8706 9.24247 40.6928 9.30781 40.475 9.30781ZM39.8978 15.733V10.3315H41.0521V15.733H39.8978Z" fill="black"/>
<path d="M42.5978 15.733L44.5145 13.0323L42.5978 10.3315H43.8284L45.2768 12.4006L46.7143 10.3315H47.9558L46.0391 13.0323L47.9558 15.733H46.7143L45.2768 13.6639L43.8284 15.733H42.5978Z" fill="black"/>
<path d="M51.7005 15.8637C51.1705 15.8637 50.6986 15.7475 50.2847 15.5152C49.8782 15.2756 49.5587 14.9453 49.3264 14.5242C49.0941 14.1031 48.9779 13.6131 48.9779 13.054C48.9779 12.4877 49.0904 11.9904 49.3155 11.5621C49.5478 11.1337 49.8673 10.7998 50.2738 10.5602C50.6877 10.3206 51.1668 10.2008 51.7113 10.2008C52.2413 10.2008 52.7024 10.3206 53.0944 10.5602C53.4864 10.7925 53.7914 11.1047 54.0092 11.4967C54.227 11.8888 54.3359 12.3208 54.3359 12.7927C54.3359 12.8653 54.3323 12.9451 54.325 13.0323C54.325 13.1121 54.3214 13.2029 54.3141 13.3045H50.1105C50.1468 13.8272 50.3174 14.2265 50.6223 14.5024C50.9345 14.7711 51.2939 14.9054 51.7005 14.9054C52.0272 14.9054 52.2994 14.8328 52.5172 14.6876C52.7423 14.5351 52.9093 14.3318 53.0182 14.0777H54.1725C54.0273 14.5859 53.7369 15.0106 53.3013 15.3519C52.873 15.6931 52.3393 15.8637 51.7005 15.8637ZM51.7005 11.1483C51.3157 11.1483 50.9744 11.2644 50.6768 11.4967C50.3791 11.7218 50.1976 12.063 50.1323 12.5204H53.1815C53.1597 12.0993 53.0109 11.7654 52.735 11.5185C52.4591 11.2717 52.1143 11.1483 51.7005 11.1483Z" fill="black"/>
<path d="M56.0781 15.733V7.89209H57.2325V15.733H56.0781Z" fill="black"/>
<path d="M61.504 15.733C60.974 15.733 60.5529 15.606 60.2407 15.3519C59.9286 15.0905 59.7725 14.6295 59.7725 13.9688V11.3007H58.8468V10.3315H59.7725L59.914 8.95933H60.9268V10.3315H62.4515V11.3007H60.9268V13.9688C60.9268 14.2665 60.9885 14.4734 61.112 14.5896C61.2426 14.6985 61.4641 14.7529 61.7763 14.7529H62.397V15.733H61.504Z" fill="black"/>
<path d="M64.1862 15.733V10.3315H65.2208L65.3188 11.3552C65.5076 10.9994 65.7689 10.7199 66.1029 10.5166C66.4441 10.3061 66.8543 10.2008 67.3335 10.2008V11.4096H67.0177C66.6982 11.4096 66.4115 11.4641 66.1574 11.573C65.9105 11.6746 65.7109 11.8525 65.5584 12.1066C65.4132 12.3534 65.3406 12.6983 65.3406 13.1412V15.733H64.1862Z" fill="black"/>
<path d="M70.8606 15.8637C70.2072 15.8637 69.6918 15.6604 69.3142 15.2539C68.944 14.8473 68.7588 14.2411 68.7588 13.4352V10.3315H69.9132V13.3154C69.9132 14.3609 70.3415 14.8836 71.1982 14.8836C71.6266 14.8836 71.9787 14.7311 72.2546 14.4262C72.5305 14.1213 72.6684 13.6857 72.6684 13.1194V10.3315H73.8228V15.733H72.7991L72.712 14.7856C72.545 15.1195 72.2981 15.3845 71.9714 15.5806C71.652 15.7693 71.2817 15.8637 70.8606 15.8637Z" fill="black"/>
<path d="M78.3623 15.8637C77.8323 15.8637 77.3604 15.7475 76.9465 15.5152C76.54 15.2756 76.2205 14.9453 75.9882 14.5242C75.7559 14.1031 75.6397 13.6131 75.6397 13.054C75.6397 12.4877 75.7523 11.9904 75.9773 11.5621C76.2096 11.1337 76.5291 10.7998 76.9357 10.5602C77.3495 10.3206 77.8287 10.2008 78.3732 10.2008C78.9032 10.2008 79.3642 10.3206 79.7562 10.5602C80.1483 10.7925 80.4532 11.1047 80.671 11.4967C80.8888 11.8888 80.9977 12.3208 80.9977 12.7927C80.9977 12.8653 80.9941 12.9451 80.9868 13.0323C80.9868 13.1121 80.9832 13.2029 80.9759 13.3045H76.7723C76.8086 13.8272 76.9792 14.2265 77.2841 14.5024C77.5963 14.7711 77.9557 14.9054 78.3623 14.9054C78.689 14.9054 78.9612 14.8328 79.179 14.6876C79.4041 14.5351 79.5711 14.3318 79.68 14.0777H80.8343C80.6891 14.5859 80.3987 15.0106 79.9631 15.3519C79.5348 15.6931 79.0012 15.8637 78.3623 15.8637ZM78.3623 11.1483C77.9775 11.1483 77.6363 11.2644 77.3386 11.4967C77.0409 11.7218 76.8594 12.063 76.7941 12.5204H79.8433C79.8216 12.0993 79.6727 11.7654 79.3968 11.5185C79.121 11.2717 78.7761 11.1483 78.3623 11.1483Z" fill="black"/>
<g clip-path="url(#clip0_2056_18578)">
<path fill-rule="evenodd" clip-rule="evenodd" d="M19.2584 13.0434V13.6502V16.4319V17.9459L14.5393 15.062L12.374 15.9933L7.19641 21.3944L11.2786 22.8364L21.5256 19.0213L25.3913 10.4119L19.2584 13.0434Z" fill="#FF5886"/>
<path fill-rule="evenodd" clip-rule="evenodd" d="M9.25348 17.3329L5.82721 20.9077L7.19644 21.3943L12.3741 15.9932L9.25348 17.3329Z" fill="#FF5886"/>
<path opacity="0.39" fill-rule="evenodd" clip-rule="evenodd" d="M8.31732 7.08936L6.24755 9.05997L5.65527 9.63073L8.31732 7.08936Z" fill="#070707"/>
<path fill-rule="evenodd" clip-rule="evenodd" d="M14.5394 15.062L19.2584 17.9458V16.4318L16.6155 14.1788L14.5394 15.062Z" fill="#FF5886"/>
<path fill-rule="evenodd" clip-rule="evenodd" d="M12.7944 2.81177L13.7751 3.743L18.2267 7.97262L22.2835 3.743L23.1751 2.81177H12.7944Z" fill="#433AF6"/>
<path fill-rule="evenodd" clip-rule="evenodd" d="M8.31727 7.08948L5.65523 9.63085L0.827881 14.245V26.1227L1.77042 25.1374L5.82718 20.9078L9.25345 17.3331L12.5778 13.8665L14.2273 12.1422L9.32987 7.95463L8.31727 7.08948Z" fill="#433AF6"/>
<g opacity="0.39">
<path fill-rule="evenodd" clip-rule="evenodd" d="M5.82721 20.9077L7.19644 21.3943L12.3741 15.9932L9.25348 17.3329L5.82721 20.9077Z" fill="#070707"/>
<path fill-rule="evenodd" clip-rule="evenodd" d="M16.6155 14.1787L14.5394 15.0619L19.2584 17.9457V16.4317L16.6155 14.1787Z" fill="#070707"/>
<path fill-rule="evenodd" clip-rule="evenodd" d="M8.31732 7.08936L5.65527 9.63073L6.82708 10.3457L12.5779 13.8663L14.2273 12.1421L9.32992 7.9545L8.31732 7.08936Z" fill="#070707"/>
</g>
<path fill-rule="evenodd" clip-rule="evenodd" d="M19.1884 8.88579L18.2267 7.97258L13.7751 3.74297L12.7944 2.81173L9.83938 0H0.019104L8.3173 7.08941L9.3299 7.95456L14.2273 12.1421L15.2399 13.0013L16.6155 14.1788L19.2584 16.4318V13.6501V13.0433V8.94587L19.1884 8.88579Z" fill="#DADAF6"/>
</g>
<defs>
<clipPath id="clip0_2056_18578">
<rect width="25.4104" height="26.1365" fill="white"/>
</clipPath>
</defs>
</svg>
