<svg width="21" height="21" viewBox="0 0 21 21" fill="none" xmlns="http://www.w3.org/2000/svg">
<g clip-path="url(#clip0_1979_22604)">
<path d="M10.5 21C16.299 21 21 16.299 21 10.5C21 4.70101 16.299 0 10.5 0C4.70101 0 0 4.70101 0 10.5C0 16.299 4.70101 21 10.5 21Z" fill="#50AF95"/>
<path fill-rule="evenodd" clip-rule="evenodd" d="M11.8917 11.4488C11.8139 11.4547 11.4123 11.4786 10.5165 11.4786C9.80404 11.4786 9.29817 11.4572 9.1207 11.4488C6.36726 11.3277 4.31207 10.8484 4.31207 10.2745C4.31207 9.70063 6.36726 9.22197 9.1207 9.0989V10.9715C9.30076 10.9844 9.81635 11.0148 10.5289 11.0148C11.3838 11.0148 11.812 10.9792 11.889 10.9721V9.1002C14.6367 9.22262 16.6873 9.70192 16.6873 10.2745C16.6873 10.847 14.6373 11.3264 11.889 11.4482L11.8917 11.4488ZM11.8917 8.90653V7.2309H15.7261V4.67566H5.28624V7.2309H9.12005V8.90589C6.0039 9.04904 3.66047 9.6663 3.66047 10.406C3.66047 11.1457 6.0039 11.7623 9.12005 11.9061V17.2757H11.8909V11.9042C15 11.761 17.3396 11.1444 17.3396 10.4053C17.3396 9.6663 15.002 9.04968 11.8909 8.90589L11.8917 8.90653Z" fill="white"/>
</g>
<defs>
<clipPath id="clip0_1979_22604">
<rect width="21" height="21" fill="white"/>
</clipPath>
</defs>
</svg>
