<svg width="31" height="31" viewBox="0 0 31 31" fill="none" xmlns="http://www.w3.org/2000/svg">
<g clip-path="url(#clip0_2541_12089)">
<path d="M26.0126 5.62007C24.0983 4.75679 22.0465 4.11872 19.9008 3.75589C19.8817 3.75222 19.8619 3.75458 19.8442 3.76265C19.8265 3.77072 19.8117 3.7841 19.802 3.80093C19.5392 4.2626 19.2465 4.86439 19.0413 5.33982C16.7656 4.99981 14.452 4.99981 12.1763 5.33982C11.9478 4.81292 11.6901 4.29916 11.4044 3.80093C11.3947 3.78389 11.38 3.77021 11.3624 3.76172C11.3447 3.75322 11.3249 3.75032 11.3055 3.75339C9.16111 4.11621 7.10925 4.75429 5.19378 5.61882C5.1773 5.62573 5.16333 5.63752 5.15374 5.6526C1.26023 11.3765 0.193013 16.9591 0.717237 22.4715C0.718695 22.485 0.722886 22.4981 0.729554 22.5099C0.736222 22.5217 0.745227 22.5321 0.756022 22.5403C3.02856 24.1949 5.56328 25.4552 8.25404 26.2687C8.2728 26.2745 8.29286 26.2745 8.31161 26.2687C8.33035 26.2629 8.34692 26.2515 8.35913 26.2362C8.93815 25.4618 9.45124 24.6403 9.89302 23.7802C9.89915 23.7684 9.90268 23.7555 9.90338 23.7423C9.90408 23.729 9.90192 23.7158 9.89706 23.7034C9.89219 23.6911 9.88473 23.68 9.87519 23.6708C9.86564 23.6615 9.85423 23.6545 9.84172 23.6501C9.0335 23.3457 8.25039 22.9784 7.49961 22.5516C7.48612 22.5439 7.47475 22.533 7.46652 22.5198C7.4583 22.5066 7.45347 22.4916 7.45248 22.4761C7.45149 22.4606 7.45436 22.4451 7.46084 22.431C7.46732 22.4169 7.4772 22.4046 7.4896 22.3952C7.64724 22.2789 7.80488 22.1575 7.95502 22.0361C7.96853 22.0252 7.98481 22.0183 8.00204 22.0161C8.01927 22.0139 8.03678 22.0165 8.05261 22.0236C12.9658 24.2306 18.2868 24.2306 23.1425 22.0236C23.1583 22.016 23.176 22.0131 23.1935 22.0151C23.211 22.0171 23.2275 22.0239 23.2413 22.0349C23.3914 22.1575 23.5478 22.2789 23.7067 22.3952C23.7192 22.4044 23.7293 22.4165 23.736 22.4305C23.7427 22.4445 23.7458 22.4599 23.745 22.4754C23.7443 22.4909 23.7397 22.506 23.7317 22.5193C23.7237 22.5326 23.7126 22.5437 23.6992 22.5516C22.9511 22.982 22.1728 23.3461 21.3559 23.6488C21.3433 23.6534 21.3319 23.6606 21.3223 23.6699C21.3128 23.6792 21.3053 23.6905 21.3005 23.7029C21.2956 23.7153 21.2935 23.7287 21.2942 23.742C21.2949 23.7553 21.2984 23.7684 21.3046 23.7802C21.755 24.6397 22.2704 25.458 22.8372 26.2349C22.849 26.2509 22.8654 26.2628 22.8842 26.2691C22.903 26.2753 22.9233 26.2756 22.9423 26.27C25.6377 25.4588 28.1765 24.1978 30.4516 22.5403C30.4627 22.5326 30.472 22.5225 30.4789 22.5109C30.4858 22.4992 30.4901 22.4862 30.4916 22.4728C31.1172 16.0995 29.4432 10.562 26.0513 5.6551C26.043 5.63916 26.0293 5.62672 26.0126 5.62007ZM10.6274 19.1147C9.1486 19.1147 7.92874 17.7773 7.92874 16.1371C7.92874 14.4956 9.12482 13.1594 10.6274 13.1594C12.1413 13.1594 13.3499 14.5068 13.3261 16.1371C13.3261 17.7785 12.13 19.1147 10.6274 19.1147ZM20.6052 19.1147C19.1251 19.1147 17.9065 17.7773 17.9065 16.1371C17.9065 14.4956 19.1013 13.1594 20.6052 13.1594C22.119 13.1594 23.3276 14.5068 23.3039 16.1371C23.3039 17.7785 22.1203 19.1147 20.6052 19.1147Z" fill="white"/>
</g>
<defs>
<clipPath id="clip0_2541_12089">
<rect width="30.0271" height="30.0271" fill="white" transform="translate(0.593384)"/>
</clipPath>
</defs>
</svg>
