<svg width="539" height="441" viewBox="0 0 539 441" fill="none" xmlns="http://www.w3.org/2000/svg">
<g filter="url(#filter0_d_2232_15113)">
<rect x="24" y="13" width="491" height="393" rx="20" fill="white" fill-opacity="0.6" shape-rendering="crispEdges"/>
<rect x="24.5" y="13.5" width="490" height="392" rx="19.5" stroke="white" shape-rendering="crispEdges"/>
</g>
<rect x="50" y="307.5" width="439" height="55" rx="10" fill="#6DD7C3"/>
<path d="M217.812 340V328.32H220.372V340H217.812ZM220.052 340V337.824H225.156V340H220.052ZM220.052 335.152V332.976H224.788V335.152H220.052ZM220.052 330.496V328.32H225.044V330.496H220.052ZM227.644 340L231.628 333.776L231.66 334.048L227.98 328.32H230.86L233.132 331.968H233.5L235.74 328.32H238.54L234.844 334.08L234.796 333.824L238.908 340H236.012L233.356 335.872H232.972L230.444 340H227.644ZM246.703 340.304C245.647 340.304 244.741 340.123 243.983 339.76C243.226 339.387 242.607 338.901 242.127 338.304C241.647 337.696 241.29 337.045 241.055 336.352C240.831 335.648 240.719 334.965 240.719 334.304V333.952C240.719 333.227 240.837 332.512 241.071 331.808C241.306 331.093 241.663 330.448 242.143 329.872C242.634 329.296 243.247 328.837 243.983 328.496C244.73 328.144 245.61 327.968 246.623 327.968C247.679 327.968 248.613 328.165 249.423 328.56C250.234 328.955 250.879 329.504 251.359 330.208C251.85 330.901 252.138 331.717 252.223 332.656H249.583C249.509 332.187 249.338 331.787 249.071 331.456C248.805 331.125 248.458 330.869 248.031 330.688C247.615 330.507 247.146 330.416 246.623 330.416C246.101 330.416 245.637 330.507 245.231 330.688C244.826 330.869 244.485 331.125 244.207 331.456C243.941 331.787 243.733 332.181 243.583 332.64C243.445 333.088 243.375 333.589 243.375 334.144C243.375 334.688 243.445 335.189 243.583 335.648C243.733 336.096 243.946 336.491 244.223 336.832C244.511 337.163 244.863 337.419 245.279 337.6C245.695 337.771 246.17 337.856 246.703 337.856C247.514 337.856 248.197 337.659 248.751 337.264C249.317 336.869 249.658 336.325 249.775 335.632H252.399C252.303 336.485 252.015 337.269 251.535 337.984C251.066 338.688 250.421 339.253 249.599 339.68C248.789 340.096 247.823 340.304 246.703 340.304ZM263.192 340V328.32H265.816V340H263.192ZM255.64 340V328.32H258.264V340H255.64ZM257.8 335.28V332.976H263.656V335.28H257.8ZM268.833 340L272.689 328.32H276.929L280.929 340H278.209L274.977 330.128L275.809 330.464H273.745L274.609 330.128L271.457 340H268.833ZM271.761 337.104L272.561 334.928H277.137L277.953 337.104H271.761ZM283.953 340V328.32H288.257L292.657 337.872H293.201L292.881 338.16V328.32H295.345V340H291.009L286.609 330.448H286.065L286.385 330.16V340H283.953ZM305.004 340.304C303.959 340.304 303.047 340.133 302.268 339.792C301.49 339.44 300.844 338.971 300.332 338.384C299.831 337.797 299.458 337.147 299.212 336.432C298.967 335.717 298.844 335.003 298.844 334.288V333.936C298.844 333.2 298.967 332.48 299.212 331.776C299.458 331.072 299.826 330.432 300.316 329.856C300.818 329.28 301.436 328.821 302.172 328.48C302.919 328.139 303.778 327.968 304.748 327.968C305.804 327.968 306.738 328.165 307.548 328.56C308.359 328.944 309.01 329.483 309.5 330.176C309.991 330.859 310.274 331.653 310.348 332.56H307.724C307.66 332.133 307.49 331.76 307.212 331.44C306.946 331.12 306.599 330.869 306.172 330.688C305.756 330.507 305.282 330.416 304.748 330.416C304.236 330.416 303.778 330.507 303.372 330.688C302.978 330.869 302.636 331.125 302.348 331.456C302.071 331.787 301.858 332.181 301.708 332.64C301.57 333.088 301.5 333.584 301.5 334.128C301.5 334.693 301.575 335.211 301.724 335.68C301.884 336.139 302.114 336.539 302.412 336.88C302.711 337.211 303.079 337.467 303.516 337.648C303.964 337.829 304.46 337.92 305.004 337.92C305.73 337.92 306.359 337.771 306.892 337.472C307.426 337.173 307.81 336.779 308.044 336.288L307.724 338.08V335.296H310.14V337.792C309.639 338.603 308.946 339.227 308.06 339.664C307.186 340.091 306.167 340.304 305.004 340.304ZM304.668 335.808V333.92H311.1V335.808H304.668ZM314.296 340V328.32H316.856V340H314.296ZM316.536 340V337.824H321.64V340H316.536ZM316.536 335.152V332.976H321.272V335.152H316.536ZM316.536 330.496V328.32H321.528V330.496H316.536Z" fill="white"/>
<path d="M53.22 56.094L50.14 49.78H52.184L54.536 54.722L54.088 54.582H55.418L54.942 54.722L57.084 49.78H59.016L56.174 56.094H53.22ZM53.724 60V55.786H55.67V60H53.724ZM63.6545 60.266C62.9825 60.266 62.3899 60.1587 61.8765 59.944C61.3632 59.7293 60.9292 59.44 60.5745 59.076C60.2199 58.7027 59.9492 58.2827 59.7625 57.816C59.5852 57.3493 59.4965 56.864 59.4965 56.36V56.066C59.4965 55.5433 59.5899 55.0487 59.7765 54.582C59.9725 54.106 60.2479 53.686 60.6025 53.322C60.9665 52.9487 61.4052 52.6593 61.9185 52.454C62.4319 52.2393 63.0105 52.132 63.6545 52.132C64.2985 52.132 64.8772 52.2393 65.3905 52.454C65.9039 52.6593 66.3379 52.9487 66.6925 53.322C67.0565 53.686 67.3319 54.106 67.5185 54.582C67.7052 55.0487 67.7985 55.5433 67.7985 56.066V56.36C67.7985 56.864 67.7052 57.3493 67.5185 57.816C67.3412 58.2827 67.0752 58.7027 66.7205 59.076C66.3659 59.44 65.9319 59.7293 65.4185 59.944C64.9052 60.1587 64.3172 60.266 63.6545 60.266ZM63.6545 58.6C64.1305 58.6 64.5319 58.4973 64.8585 58.292C65.1852 58.0773 65.4325 57.7927 65.6005 57.438C65.7685 57.074 65.8525 56.6633 65.8525 56.206C65.8525 55.7393 65.7639 55.3287 65.5865 54.974C65.4185 54.61 65.1665 54.3253 64.8305 54.12C64.5039 53.9053 64.1119 53.798 63.6545 53.798C63.1972 53.798 62.8005 53.9053 62.4645 54.12C62.1379 54.3253 61.8859 54.61 61.7085 54.974C61.5312 55.3287 61.4425 55.7393 61.4425 56.206C61.4425 56.6633 61.5265 57.074 61.6945 57.438C61.8719 57.7927 62.1239 58.0773 62.4505 58.292C62.7772 58.4973 63.1785 58.6 63.6545 58.6ZM72.5925 60.238C71.7152 60.238 71.0338 59.9487 70.5485 59.37C70.0725 58.7913 69.8345 57.9327 69.8345 56.794V52.384H71.7805V56.962C71.7805 57.4287 71.9112 57.802 72.1725 58.082C72.4338 58.3527 72.7885 58.488 73.2365 58.488C73.6845 58.488 74.0485 58.3433 74.3285 58.054C74.6178 57.7647 74.7625 57.3727 74.7625 56.878V52.384H76.7085V60H75.1685V56.766H75.3225C75.3225 57.5313 75.2245 58.1707 75.0285 58.684C74.8325 59.1973 74.5385 59.5847 74.1465 59.846C73.7545 60.1073 73.2645 60.238 72.6765 60.238H72.5925ZM85.7234 60.238C84.678 60.238 83.8567 60.0187 83.2594 59.58C82.6714 59.132 82.3634 58.516 82.3354 57.732H84.0854C84.1134 57.9933 84.258 58.2313 84.5194 58.446C84.7807 58.6607 85.1914 58.768 85.7514 58.768C86.218 58.768 86.5867 58.684 86.8574 58.516C87.1374 58.348 87.2774 58.1193 87.2774 57.83C87.2774 57.578 87.17 57.3773 86.9554 57.228C86.75 57.0787 86.3954 56.9807 85.8914 56.934L85.2194 56.864C84.37 56.7707 83.7167 56.528 83.2594 56.136C82.802 55.744 82.5734 55.2213 82.5734 54.568C82.5734 54.0453 82.704 53.6067 82.9654 53.252C83.2267 52.8973 83.586 52.6313 84.0434 52.454C84.51 52.2673 85.042 52.174 85.6394 52.174C86.5727 52.174 87.3287 52.3793 87.9074 52.79C88.486 53.2007 88.7894 53.8027 88.8174 54.596H87.0674C87.0487 54.3347 86.918 54.1107 86.6754 53.924C86.4327 53.7373 86.0827 53.644 85.6254 53.644C85.2147 53.644 84.8974 53.7233 84.6734 53.882C84.4494 54.0407 84.3374 54.246 84.3374 54.498C84.3374 54.7407 84.426 54.9273 84.6034 55.058C84.79 55.1887 85.0887 55.2773 85.4994 55.324L86.1714 55.394C87.0674 55.4873 87.7674 55.7347 88.2714 56.136C88.7847 56.5373 89.0414 57.0787 89.0414 57.76C89.0414 58.264 88.9014 58.7027 88.6214 59.076C88.3507 59.44 87.968 59.7247 87.4734 59.93C86.9787 60.1353 86.3954 60.238 85.7234 60.238ZM94.551 60.266C93.8976 60.266 93.3236 60.154 92.829 59.93C92.3436 59.706 91.9376 59.4073 91.611 59.034C91.2936 58.6513 91.051 58.2267 90.883 57.76C90.7243 57.2933 90.645 56.8173 90.645 56.332V56.066C90.645 55.562 90.7243 55.0767 90.883 54.61C91.051 54.134 91.2936 53.714 91.611 53.35C91.9376 52.9767 92.339 52.6827 92.815 52.468C93.291 52.244 93.8416 52.132 94.467 52.132C95.2883 52.132 95.9743 52.314 96.525 52.678C97.085 53.0327 97.505 53.504 97.785 54.092C98.065 54.6707 98.205 55.296 98.205 55.968V56.668H91.471V55.478H96.987L96.385 56.066C96.385 55.5807 96.315 55.1653 96.175 54.82C96.035 54.4747 95.8203 54.2087 95.531 54.022C95.251 53.8353 94.8963 53.742 94.467 53.742C94.0376 53.742 93.6736 53.84 93.375 54.036C93.0763 54.232 92.8476 54.5167 92.689 54.89C92.5396 55.254 92.465 55.6927 92.465 56.206C92.465 56.682 92.5396 57.1067 92.689 57.48C92.8383 57.844 93.067 58.1333 93.375 58.348C93.683 58.5533 94.075 58.656 94.551 58.656C95.027 58.656 95.4143 58.5627 95.713 58.376C96.0116 58.18 96.203 57.942 96.287 57.662H98.079C97.967 58.1847 97.7523 58.642 97.435 59.034C97.1176 59.426 96.7116 59.7293 96.217 59.944C95.7316 60.1587 95.1763 60.266 94.551 60.266ZM100.331 60V52.398H101.871V55.66H101.731C101.731 54.8853 101.833 54.2413 102.039 53.728C102.244 53.2053 102.547 52.8133 102.949 52.552C103.359 52.2907 103.868 52.16 104.475 52.16H104.559C105.464 52.16 106.15 52.454 106.617 53.042C107.083 53.6207 107.317 54.4887 107.317 55.646V60H105.371V55.478C105.371 55.0113 105.235 54.6333 104.965 54.344C104.703 54.0547 104.339 53.91 103.873 53.91C103.397 53.91 103.009 54.0593 102.711 54.358C102.421 54.6473 102.277 55.0393 102.277 55.534V60H100.331ZM113.059 60.252C112.527 60.252 112.037 60.154 111.589 59.958C111.141 59.762 110.753 59.4867 110.427 59.132C110.1 58.7773 109.848 58.3667 109.671 57.9C109.493 57.424 109.405 56.9107 109.405 56.36V56.066C109.405 55.5247 109.489 55.016 109.657 54.54C109.834 54.064 110.077 53.6487 110.385 53.294C110.702 52.9393 111.08 52.664 111.519 52.468C111.967 52.2627 112.461 52.16 113.003 52.16C113.6 52.16 114.123 52.2907 114.571 52.552C115.028 52.804 115.392 53.1867 115.663 53.7C115.933 54.2133 116.083 54.8573 116.111 55.632L115.537 54.96V49.78H117.483V60H115.943V56.766H116.279C116.251 57.5407 116.092 58.1893 115.803 58.712C115.513 59.2253 115.131 59.6127 114.655 59.874C114.188 60.126 113.656 60.252 113.059 60.252ZM113.493 58.614C113.875 58.614 114.225 58.53 114.543 58.362C114.86 58.1847 115.112 57.9327 115.299 57.606C115.495 57.27 115.593 56.878 115.593 56.43V55.87C115.593 55.422 115.495 55.0487 115.299 54.75C115.103 54.442 114.846 54.2087 114.529 54.05C114.211 53.882 113.866 53.798 113.493 53.798C113.073 53.798 112.699 53.9007 112.373 54.106C112.055 54.302 111.803 54.582 111.617 54.946C111.439 55.31 111.351 55.7347 111.351 56.22C111.351 56.7053 111.444 57.13 111.631 57.494C111.817 57.8487 112.069 58.124 112.387 58.32C112.713 58.516 113.082 58.614 113.493 58.614Z" fill="#666666"/>
<rect x="50" y="69" width="439" height="55" rx="10" fill="white" fill-opacity="0.5"/>
<path d="M77.338 104.418C76.0767 104.418 75.006 104.213 74.126 103.802C73.246 103.377 72.5273 102.805 71.97 102.086C71.4127 101.353 71.002 100.517 70.738 99.578C70.4887 98.6247 70.364 97.6273 70.364 96.586V95.354C70.364 93.8727 70.6133 92.538 71.112 91.35C71.6107 90.162 72.3733 89.2233 73.4 88.534C74.4267 87.83 75.7393 87.478 77.338 87.478C78.922 87.478 80.2273 87.83 81.254 88.534C82.2807 89.2233 83.036 90.162 83.52 91.35C84.0187 92.538 84.268 93.8727 84.268 95.354V96.586C84.268 97.6273 84.136 98.6247 83.872 99.578C83.6227 100.517 83.2193 101.353 82.662 102.086C82.1193 102.805 81.408 103.377 80.528 103.802C79.648 104.213 78.5847 104.418 77.338 104.418ZM77.338 101.558C78.6433 101.558 79.604 101.111 80.22 100.216C80.836 99.3067 81.144 97.8987 81.144 95.992C81.144 93.968 80.8287 92.5233 80.198 91.658C79.5673 90.778 78.614 90.338 77.338 90.338C76.0473 90.338 75.0793 90.778 74.434 91.658C73.8033 92.5233 73.488 93.9533 73.488 95.948C73.488 97.8693 73.8033 99.2847 74.434 100.194C75.0647 101.103 76.0327 101.558 77.338 101.558ZM87.3829 104V100.48H90.8149V104H87.3829ZM96.6071 104V89.876L97.5751 90.624H93.3291V87.94H99.7091V104H96.6071ZM103.813 104V100.92C103.813 100.245 103.915 99.6587 104.121 99.16C104.341 98.6613 104.693 98.2213 105.177 97.84C105.675 97.444 106.328 97.07 107.135 96.718L109.863 95.508C110.537 95.2 111.051 94.826 111.403 94.386C111.769 93.9313 111.953 93.352 111.953 92.648C111.953 91.8707 111.718 91.2547 111.249 90.8C110.794 90.3307 110.141 90.096 109.291 90.096C108.44 90.096 107.78 90.3307 107.311 90.8C106.856 91.2693 106.629 91.922 106.629 92.758H103.615C103.615 91.7607 103.827 90.866 104.253 90.074C104.678 89.2673 105.309 88.6367 106.145 88.182C106.981 87.7127 108.029 87.478 109.291 87.478C110.552 87.478 111.601 87.7053 112.437 88.16C113.273 88.6147 113.903 89.2233 114.329 89.986C114.754 90.734 114.967 91.57 114.967 92.494V92.78C114.967 93.9827 114.629 94.9873 113.955 95.794C113.28 96.586 112.29 97.2753 110.985 97.862L108.257 99.072C107.743 99.292 107.384 99.5267 107.179 99.776C106.973 100.011 106.871 100.333 106.871 100.744V102.152L106.123 101.338H115.033V104H103.813ZM120.746 104V89.876L121.714 90.624H117.468V87.94H123.848V104H120.746ZM134.859 104.418C133.598 104.418 132.527 104.213 131.647 103.802C130.767 103.377 130.049 102.805 129.491 102.086C128.934 101.353 128.523 100.517 128.259 99.578C128.01 98.6247 127.885 97.6273 127.885 96.586V95.354C127.885 93.8727 128.135 92.538 128.633 91.35C129.132 90.162 129.895 89.2233 130.921 88.534C131.948 87.83 133.261 87.478 134.859 87.478C136.443 87.478 137.749 87.83 138.775 88.534C139.802 89.2233 140.557 90.162 141.041 91.35C141.54 92.538 141.789 93.8727 141.789 95.354V96.586C141.789 97.6273 141.657 98.6247 141.393 99.578C141.144 100.517 140.741 101.353 140.183 102.086C139.641 102.805 138.929 103.377 138.049 103.802C137.169 104.213 136.106 104.418 134.859 104.418ZM134.859 101.558C136.165 101.558 137.125 101.111 137.741 100.216C138.357 99.3067 138.665 97.8987 138.665 95.992C138.665 93.968 138.35 92.5233 137.719 91.658C137.089 90.778 136.135 90.338 134.859 90.338C133.569 90.338 132.601 90.778 131.955 91.658C131.325 92.5233 131.009 93.9533 131.009 95.948C131.009 97.8693 131.325 99.2847 131.955 100.194C132.586 101.103 133.554 101.558 134.859 101.558Z" fill="#2B2B37"/>
<rect x="50.5" y="69.5" width="438" height="54" rx="9.5" stroke="#E0E0E0"/>
<path d="M376.18 104.1V101.82H379.84C380.507 101.82 381.013 101.64 381.36 101.28C381.707 100.907 381.88 100.4 381.88 99.76C381.88 99.12 381.707 98.6267 381.36 98.28C381.013 97.92 380.507 97.74 379.84 97.74H376.18V96H379.64C380.613 96 381.48 96.12 382.24 96.36C383.013 96.5867 383.613 96.9733 384.04 97.52C384.48 98.0667 384.7 98.8 384.7 99.72V100C384.7 100.867 384.507 101.607 384.12 102.22C383.747 102.82 383.18 103.287 382.42 103.62C381.673 103.94 380.747 104.1 379.64 104.1H376.18ZM373.8 104.1V89.3H376.58V104.1H373.8ZM376.18 97.28V95.54H379.3C379.98 95.54 380.48 95.36 380.8 95C381.12 94.64 381.28 94.16 381.28 93.56C381.28 92.96 381.12 92.48 380.8 92.12C380.48 91.76 379.98 91.58 379.3 91.58H376.18V89.3H379.04C380.693 89.3 381.947 89.6467 382.8 90.34C383.667 91.0333 384.1 92.0267 384.1 93.32V93.6C384.1 94.5067 383.88 95.2333 383.44 95.78C383.013 96.3133 382.42 96.7 381.66 96.94C380.9 97.1667 380.027 97.28 379.04 97.28H376.18ZM394.571 104.38C393.251 104.38 392.118 104.147 391.171 103.68C390.225 103.213 389.451 102.607 388.851 101.86C388.265 101.113 387.831 100.3 387.551 99.42C387.271 98.54 387.131 97.6933 387.131 96.88V96.44C387.131 95.5333 387.271 94.64 387.551 93.76C387.845 92.88 388.291 92.08 388.891 91.36C389.491 90.64 390.251 90.0667 391.171 89.64C392.105 89.2 393.205 88.98 394.471 88.98C395.791 88.98 396.938 89.22 397.911 89.7C398.898 90.1667 399.685 90.8333 400.271 91.7C400.858 92.5533 401.211 93.5533 401.331 94.7H398.471C398.365 94.0333 398.125 93.4733 397.751 93.02C397.391 92.5533 396.931 92.2067 396.371 91.98C395.811 91.74 395.178 91.62 394.471 91.62C393.751 91.62 393.111 91.7467 392.551 92C391.991 92.24 391.525 92.5867 391.151 93.04C390.778 93.4933 390.491 94.0267 390.291 94.64C390.105 95.2533 390.011 95.9333 390.011 96.68C390.011 97.4 390.105 98.0667 390.291 98.68C390.491 99.2933 390.785 99.8333 391.171 100.3C391.558 100.753 392.031 101.107 392.591 101.36C393.165 101.613 393.825 101.74 394.571 101.74C395.665 101.74 396.585 101.473 397.331 100.94C398.091 100.393 398.551 99.6333 398.711 98.66H401.571C401.438 99.7 401.085 100.653 400.511 101.52C399.938 102.387 399.151 103.08 398.151 103.6C397.151 104.12 395.958 104.38 394.571 104.38ZM407.231 104V91.5H410.071V104H407.231ZM403.011 91.9V89.4H414.291V91.9H403.011Z" fill="#2B2B37"/>
<path d="M462.25 94.375L466.5 98.625L470.75 94.375" stroke="#2B2B37" stroke-width="2" stroke-linecap="round" stroke-linejoin="round"/>
<g clip-path="url(#clip0_2232_15113)">
<path d="M353.455 105.091C357.672 105.091 361.091 101.672 361.091 97.4546C361.091 93.2372 357.672 89.8182 353.455 89.8182C349.237 89.8182 345.818 93.2372 345.818 97.4546C345.818 101.672 349.237 105.091 353.455 105.091Z" fill="white"/>
<path d="M343.473 91.0997C343.808 90.631 344.119 90.1462 344.497 89.7072C345.184 88.9087 345.963 88.2243 346.854 87.6579C347.653 87.1497 348.496 86.7492 349.398 86.4692C350.802 86.033 352.236 85.9034 353.696 86.0702C354.764 86.1921 355.792 86.4649 356.772 86.9067C357.365 87.1741 357.922 87.5044 358.469 87.8612C359.57 88.5802 360.453 89.5161 361.191 90.5855C361.978 91.7276 362.49 92.9981 362.771 94.3609C362.969 95.3179 363.052 96.2839 362.967 97.2561C362.863 98.4549 362.597 99.6106 362.1 100.722C361.68 101.661 361.161 102.524 360.497 103.303C359.847 104.065 359.114 104.732 358.272 105.282C357.699 105.657 357.101 105.991 356.47 106.239C355.415 106.654 354.32 106.935 353.174 106.984C352.368 107.019 351.566 107.005 350.77 106.864C350.087 106.742 349.42 106.565 348.767 106.32C348.133 106.082 347.519 105.799 346.953 105.443C346.137 104.929 345.401 104.305 344.746 103.586C344.017 102.784 343.425 101.896 342.973 100.915C342.334 99.529 342.019 98.0679 342.001 96.543C341.993 95.9696 342.059 95.4006 342.136 94.833C342.141 94.7923 342.135 94.7503 342.135 94.7088C342.202 94.6674 342.196 94.5949 342.208 94.5316C342.378 93.6399 342.664 92.7877 343.052 91.9672C343.19 91.6767 343.38 91.4116 343.473 91.0997ZM355.725 96.7316C356.009 96.5804 356.279 96.4937 356.493 96.3028C357.316 95.5672 357.535 93.8356 356.2 93.0015C355.783 92.7417 355.34 92.5491 354.861 92.3526C354.94 91.7113 355.197 91.1112 355.28 90.4544C354.885 90.3565 354.515 90.2265 354.131 90.1848C353.973 90.802 353.822 91.3937 353.666 92.0061C353.371 91.9157 353.068 91.9243 352.79 91.7678C352.89 91.1414 353.128 90.5545 353.193 89.9257C352.788 89.862 352.445 89.704 352.051 89.687C351.896 90.3055 351.746 90.9041 351.591 91.5247C350.81 91.405 350.094 91.1364 349.307 90.9919C349.134 91.3798 349.057 91.7891 348.988 92.2245C349.244 92.2851 349.467 92.3387 349.69 92.3904C350.254 92.5209 350.409 92.8295 350.275 93.3231C350.18 93.6742 350.094 94.0278 350.006 94.381C349.691 95.6504 349.378 96.9204 349.061 98.1894C348.99 98.4753 348.812 98.5684 348.522 98.526C348.237 98.4842 347.967 98.3559 347.653 98.3652C347.516 98.8019 347.245 99.1867 347.149 99.6689C347.898 99.86 348.624 100.045 349.382 100.238C349.325 100.9 349.051 101.506 348.97 102.173C349.35 102.264 349.708 102.35 350.081 102.44C350.326 101.828 350.383 101.186 350.612 100.553C350.889 100.695 351.195 100.654 351.465 100.833C351.318 101.443 351.171 102.05 351.023 102.665C351.413 102.805 351.795 102.862 352.186 102.959C352.345 102.324 352.498 101.709 352.646 101.114C352.739 101.067 352.806 101.076 352.87 101.089C353.484 101.221 354.105 101.251 354.726 101.182C355.264 101.123 355.741 100.917 356.124 100.513C356.55 100.064 356.764 99.514 356.867 98.9228C356.951 98.441 356.929 97.953 356.647 97.5266C356.425 97.1925 356.121 96.9375 355.725 96.7316ZM351.288 99.2417C352.045 99.4299 352.801 99.6313 353.594 99.4865C354.016 99.4092 354.335 99.1936 354.463 98.7681C354.584 98.3668 354.513 98.0021 354.216 97.685C353.907 97.3552 353.509 97.1838 353.099 97.0404C352.609 96.8691 352.113 96.7136 351.577 96.6713C351.372 97.5057 351.173 98.3157 350.97 99.1434C351.099 99.1839 351.192 99.2179 351.288 99.2417ZM353.962 95.7449C354.381 95.6853 354.728 95.408 354.83 95.0312C354.955 94.5705 354.816 94.1664 354.443 93.8916C354.021 93.5798 353.534 93.4211 353.031 93.311C352.844 93.2699 352.659 93.1606 352.433 93.2344C352.253 93.9674 352.072 94.7035 351.885 95.4637C352.601 95.6446 353.26 95.8448 353.962 95.7449Z" fill="#F39321"/>
</g>
<line x1="75.5" y1="192" x2="75.5" y2="124" stroke="#E0E0E0"/>
<path d="M53.22 214.094L50.14 207.78H52.184L54.536 212.722L54.088 212.582H55.418L54.942 212.722L57.084 207.78H59.016L56.174 214.094H53.22ZM53.724 218V213.786H55.67V218H53.724ZM63.6545 218.266C62.9825 218.266 62.3899 218.159 61.8765 217.944C61.3632 217.729 60.9292 217.44 60.5745 217.076C60.2199 216.703 59.9492 216.283 59.7625 215.816C59.5852 215.349 59.4965 214.864 59.4965 214.36V214.066C59.4965 213.543 59.5899 213.049 59.7765 212.582C59.9725 212.106 60.2479 211.686 60.6025 211.322C60.9665 210.949 61.4052 210.659 61.9185 210.454C62.4319 210.239 63.0105 210.132 63.6545 210.132C64.2985 210.132 64.8772 210.239 65.3905 210.454C65.9039 210.659 66.3379 210.949 66.6925 211.322C67.0565 211.686 67.3319 212.106 67.5185 212.582C67.7052 213.049 67.7985 213.543 67.7985 214.066V214.36C67.7985 214.864 67.7052 215.349 67.5185 215.816C67.3412 216.283 67.0752 216.703 66.7205 217.076C66.3659 217.44 65.9319 217.729 65.4185 217.944C64.9052 218.159 64.3172 218.266 63.6545 218.266ZM63.6545 216.6C64.1305 216.6 64.5319 216.497 64.8585 216.292C65.1852 216.077 65.4325 215.793 65.6005 215.438C65.7685 215.074 65.8525 214.663 65.8525 214.206C65.8525 213.739 65.7639 213.329 65.5865 212.974C65.4185 212.61 65.1665 212.325 64.8305 212.12C64.5039 211.905 64.1119 211.798 63.6545 211.798C63.1972 211.798 62.8005 211.905 62.4645 212.12C62.1379 212.325 61.8859 212.61 61.7085 212.974C61.5312 213.329 61.4425 213.739 61.4425 214.206C61.4425 214.663 61.5265 215.074 61.6945 215.438C61.8719 215.793 62.1239 216.077 62.4505 216.292C62.7772 216.497 63.1785 216.6 63.6545 216.6ZM72.5925 218.238C71.7152 218.238 71.0338 217.949 70.5485 217.37C70.0725 216.791 69.8345 215.933 69.8345 214.794V210.384H71.7805V214.962C71.7805 215.429 71.9112 215.802 72.1725 216.082C72.4338 216.353 72.7885 216.488 73.2365 216.488C73.6845 216.488 74.0485 216.343 74.3285 216.054C74.6178 215.765 74.7625 215.373 74.7625 214.878V210.384H76.7085V218H75.1685V214.766H75.3225C75.3225 215.531 75.2245 216.171 75.0285 216.684C74.8325 217.197 74.5385 217.585 74.1465 217.846C73.7545 218.107 73.2645 218.238 72.6765 218.238H72.5925ZM87.8794 218.266C87.002 218.266 86.2274 218.121 85.5554 217.832C84.8927 217.533 84.3327 217.137 83.8754 216.642C83.4274 216.138 83.0867 215.573 82.8534 214.948C82.6294 214.313 82.5174 213.655 82.5174 212.974V212.666C82.5174 212.022 82.6294 211.392 82.8534 210.776C83.0774 210.16 83.404 209.605 83.8334 209.11C84.272 208.615 84.8087 208.223 85.4434 207.934C86.0874 207.635 86.8247 207.486 87.6554 207.486C88.5514 207.486 89.3447 207.654 90.0354 207.99C90.726 208.317 91.2814 208.779 91.7014 209.376C92.1214 209.964 92.3687 210.65 92.4434 211.434H90.4414C90.376 210.995 90.2127 210.622 89.9514 210.314C89.69 209.997 89.3587 209.754 88.9574 209.586C88.5654 209.418 88.1314 209.334 87.6554 209.334C87.1794 209.334 86.7454 209.418 86.3534 209.586C85.9707 209.754 85.644 209.992 85.3734 210.3C85.1027 210.608 84.8927 210.977 84.7434 211.406C84.6034 211.835 84.5334 212.311 84.5334 212.834C84.5334 213.403 84.6127 213.912 84.7714 214.36C84.93 214.808 85.154 215.191 85.4434 215.508C85.7327 215.816 86.0827 216.054 86.4934 216.222C86.904 216.381 87.366 216.46 87.8794 216.46C88.5607 216.46 89.158 216.32 89.6714 216.04C90.1847 215.751 90.558 215.377 90.7914 214.92L90.4414 216.53V213.898H92.2754V216.166C91.8367 216.829 91.2394 217.347 90.4834 217.72C89.7274 218.084 88.8594 218.266 87.8794 218.266ZM87.5574 214.29V212.806H93.1294V214.29H87.5574ZM98.5158 218.266C97.8625 218.266 97.2885 218.154 96.7938 217.93C96.3085 217.706 95.9025 217.407 95.5758 217.034C95.2585 216.651 95.0158 216.227 94.8478 215.76C94.6891 215.293 94.6098 214.817 94.6098 214.332V214.066C94.6098 213.562 94.6891 213.077 94.8478 212.61C95.0158 212.134 95.2585 211.714 95.5758 211.35C95.9025 210.977 96.3038 210.683 96.7798 210.468C97.2558 210.244 97.8065 210.132 98.4318 210.132C99.2531 210.132 99.9391 210.314 100.49 210.678C101.05 211.033 101.47 211.504 101.75 212.092C102.03 212.671 102.17 213.296 102.17 213.968V214.668H95.4358V213.478H100.952L100.35 214.066C100.35 213.581 100.28 213.165 100.14 212.82C99.9998 212.475 99.7851 212.209 99.4958 212.022C99.2158 211.835 98.8611 211.742 98.4318 211.742C98.0025 211.742 97.6385 211.84 97.3398 212.036C97.0411 212.232 96.8125 212.517 96.6538 212.89C96.5045 213.254 96.4298 213.693 96.4298 214.206C96.4298 214.682 96.5045 215.107 96.6538 215.48C96.8031 215.844 97.0318 216.133 97.3398 216.348C97.6478 216.553 98.0398 216.656 98.5158 216.656C98.9918 216.656 99.3791 216.563 99.6778 216.376C99.9765 216.18 100.168 215.942 100.252 215.662H102.044C101.932 216.185 101.717 216.642 101.4 217.034C101.082 217.426 100.676 217.729 100.182 217.944C99.6965 218.159 99.1411 218.266 98.5158 218.266ZM107.599 218.098C106.899 218.098 106.321 218.009 105.863 217.832C105.415 217.645 105.079 217.337 104.855 216.908C104.631 216.469 104.519 215.881 104.519 215.144L104.533 208.256H106.353L106.339 215.27C106.339 215.643 106.437 215.933 106.633 216.138C106.839 216.334 107.128 216.432 107.501 216.432H108.691V218.098H107.599ZM103.315 211.826V210.398H108.691V211.826H103.315Z" fill="#666666"/>
<rect x="50" y="230" width="439" height="55" rx="10" fill="white" fill-opacity="0.5"/>
<path d="M70.43 265V261.92C70.43 261.245 70.5327 260.659 70.738 260.16C70.958 259.661 71.31 259.221 71.794 258.84C72.2927 258.444 72.9453 258.07 73.752 257.718L76.48 256.508C77.1547 256.2 77.668 255.826 78.02 255.386C78.3867 254.931 78.57 254.352 78.57 253.648C78.57 252.871 78.3353 252.255 77.866 251.8C77.4113 251.331 76.7587 251.096 75.908 251.096C75.0573 251.096 74.3973 251.331 73.928 251.8C73.4733 252.269 73.246 252.922 73.246 253.758H70.232C70.232 252.761 70.4447 251.866 70.87 251.074C71.2953 250.267 71.926 249.637 72.762 249.182C73.598 248.713 74.6467 248.478 75.908 248.478C77.1693 248.478 78.218 248.705 79.054 249.16C79.89 249.615 80.5207 250.223 80.946 250.986C81.3713 251.734 81.584 252.57 81.584 253.494V253.78C81.584 254.983 81.2467 255.987 80.572 256.794C79.8973 257.586 78.9073 258.275 77.602 258.862L74.874 260.072C74.3607 260.292 74.0013 260.527 73.796 260.776C73.5907 261.011 73.488 261.333 73.488 261.744V263.152L72.74 262.338H81.65V265H70.43ZM86.461 265L92.467 251.8L92.269 251.514H84.129V248.94H95.833V251.316L89.739 265H86.461ZM84.129 254.088V248.94H86.659V254.088H84.129ZM104.004 265.418C102.743 265.418 101.658 265.169 100.748 264.67C99.8538 264.171 99.1644 263.511 98.6804 262.69C98.2111 261.854 97.9764 260.945 97.9764 259.962H100.99C100.99 260.519 101.115 261.011 101.364 261.436C101.628 261.861 101.988 262.199 102.442 262.448C102.897 262.683 103.425 262.8 104.026 262.8C104.657 262.8 105.2 262.668 105.654 262.404C106.109 262.14 106.454 261.781 106.688 261.326C106.938 260.871 107.062 260.351 107.062 259.764C107.062 259.192 106.938 258.679 106.688 258.224C106.454 257.755 106.109 257.388 105.654 257.124C105.214 256.845 104.679 256.706 104.048 256.706C103.52 256.706 103.022 256.809 102.552 257.014C102.083 257.219 101.716 257.491 101.452 257.828H98.5704L99.3844 248.94H108.69V251.602H100.748L101.848 250.744L101.32 256.288L100.572 256.068C100.998 255.584 101.518 255.181 102.134 254.858C102.75 254.535 103.528 254.374 104.466 254.374C105.654 254.374 106.666 254.616 107.502 255.1C108.338 255.584 108.976 256.229 109.416 257.036C109.856 257.828 110.076 258.693 110.076 259.632V259.918C110.076 260.871 109.842 261.766 109.372 262.602C108.903 263.438 108.214 264.12 107.304 264.648C106.41 265.161 105.31 265.418 104.004 265.418ZM112.242 261.678V258.29L118.534 248.5L120.888 250.106L115.344 258.774L115.608 259.214H125.464V261.678H112.242ZM120.646 265V253.494H123.528V265H120.646ZM127.727 265V261.48H131.159V265H127.727ZM134.311 265V261.92C134.311 261.245 134.414 260.659 134.619 260.16C134.839 259.661 135.191 259.221 135.675 258.84C136.174 258.444 136.826 258.07 137.633 257.718L140.361 256.508C141.036 256.2 141.549 255.826 141.901 255.386C142.268 254.931 142.451 254.352 142.451 253.648C142.451 252.871 142.216 252.255 141.747 251.8C141.292 251.331 140.64 251.096 139.789 251.096C138.938 251.096 138.278 251.331 137.809 251.8C137.354 252.269 137.127 252.922 137.127 253.758H134.113C134.113 252.761 134.326 251.866 134.751 251.074C135.176 250.267 135.807 249.637 136.643 249.182C137.479 248.713 138.528 248.478 139.789 248.478C141.05 248.478 142.099 248.705 142.935 249.16C143.771 249.615 144.402 250.223 144.827 250.986C145.252 251.734 145.465 252.57 145.465 253.494V253.78C145.465 254.983 145.128 255.987 144.453 256.794C143.778 257.586 142.788 258.275 141.483 258.862L138.755 260.072C138.242 260.292 137.882 260.527 137.677 260.776C137.472 261.011 137.369 261.333 137.369 261.744V263.152L136.621 262.338H145.531V265H134.311ZM148.01 261.678V258.29L154.302 248.5L156.656 250.106L151.112 258.774L151.376 259.214H161.232V261.678H148.01ZM156.414 265V253.494H159.296V265H156.414Z" fill="#2B2B37"/>
<rect x="50.5" y="230.5" width="438" height="54" rx="9.5" stroke="#E0E0E0"/>
<g clip-path="url(#clip1_2232_15113)">
<path d="M352.5 268C358.299 268 363 263.299 363 257.5C363 251.701 358.299 247 352.5 247C346.701 247 342 251.701 342 257.5C342 263.299 346.701 268 352.5 268Z" fill="#50AF95"/>
<path fill-rule="evenodd" clip-rule="evenodd" d="M353.892 258.449C353.814 258.455 353.412 258.479 352.516 258.479C351.804 258.479 351.298 258.457 351.121 258.449C348.367 258.328 346.312 257.848 346.312 257.275C346.312 256.701 348.367 256.222 351.121 256.099V257.971C351.301 257.984 351.816 258.015 352.529 258.015C353.384 258.015 353.812 257.979 353.889 257.972V256.1C356.637 256.223 358.687 256.702 358.687 257.275C358.687 257.847 356.637 258.326 353.889 258.448L353.892 258.449ZM353.892 255.907V254.231H357.726V251.676H347.286V254.231H351.12V255.906C348.004 256.049 345.66 256.666 345.66 257.406C345.66 258.146 348.004 258.762 351.12 258.906V264.276H353.891V258.904C357 258.761 359.34 258.144 359.34 257.405C359.34 256.666 357.002 256.05 353.891 255.906L353.892 255.907Z" fill="white"/>
</g>
<path d="M330.5 255.5H323.75V253.25C323.75 252.01 324.76 251 326 251C327.24 251 328.25 252.01 328.25 253.25H329.75C329.75 251.182 328.068 249.5 326 249.5C323.932 249.5 322.25 251.182 322.25 253.25V255.5H321.5C321.102 255.5 320.721 255.658 320.439 255.939C320.158 256.221 320 256.602 320 257V263C320 263.398 320.158 263.779 320.439 264.061C320.721 264.342 321.102 264.5 321.5 264.5H330.5C330.898 264.5 331.279 264.342 331.561 264.061C331.842 263.779 332 263.398 332 263V257C332 256.602 331.842 256.221 331.561 255.939C331.279 255.658 330.898 255.5 330.5 255.5ZM324.546 259.624C324.638 259.271 324.855 258.964 325.158 258.76C325.46 258.555 325.826 258.468 326.188 258.514C326.55 258.56 326.883 258.736 327.124 259.01C327.365 259.283 327.499 259.635 327.5 260C327.5 260.262 327.43 260.52 327.298 260.747C327.167 260.974 326.978 261.162 326.75 261.292V263H325.25V261.292C324.966 261.13 324.744 260.878 324.616 260.577C324.489 260.276 324.464 259.941 324.546 259.624Z" fill="#2B2B37"/>
<path d="M379.82 265.38C378.46 265.38 377.313 265.12 376.38 264.6C375.447 264.08 374.733 263.353 374.24 262.42C373.76 261.473 373.52 260.367 373.52 259.1V250.4H376.36V259.26C376.36 259.953 376.493 260.567 376.76 261.1C377.027 261.62 377.413 262.027 377.92 262.32C378.44 262.6 379.073 262.74 379.82 262.74C380.553 262.74 381.173 262.6 381.68 262.32C382.2 262.027 382.587 261.62 382.84 261.1C383.107 260.58 383.24 259.967 383.24 259.26V250.4H386.08V259.1C386.08 260.367 385.84 261.473 385.36 262.42C384.893 263.353 384.193 264.08 383.26 264.6C382.327 265.12 381.18 265.38 379.82 265.38ZM394.885 265.38C393.592 265.38 392.499 265.173 391.605 264.76C390.725 264.347 390.052 263.78 389.585 263.06C389.119 262.327 388.885 261.5 388.885 260.58H391.665C391.665 260.967 391.772 261.347 391.985 261.72C392.199 262.08 392.539 262.373 393.005 262.6C393.485 262.827 394.112 262.94 394.885 262.94C395.579 262.94 396.159 262.84 396.625 262.64C397.092 262.44 397.439 262.18 397.665 261.86C397.892 261.527 398.005 261.153 398.005 260.74C398.005 260.22 397.785 259.807 397.345 259.5C396.905 259.18 396.225 258.98 395.305 258.9L394.025 258.8C392.625 258.68 391.505 258.247 390.665 257.5C389.839 256.74 389.425 255.74 389.425 254.5C389.425 253.567 389.645 252.767 390.085 252.1C390.525 251.42 391.139 250.9 391.925 250.54C392.725 250.167 393.659 249.98 394.725 249.98C395.832 249.98 396.785 250.173 397.585 250.56C398.385 250.947 399.005 251.493 399.445 252.2C399.885 252.893 400.105 253.713 400.105 254.66H397.325C397.325 254.26 397.225 253.893 397.025 253.56C396.839 253.213 396.552 252.94 396.165 252.74C395.792 252.527 395.312 252.42 394.725 252.42C394.165 252.42 393.699 252.513 393.325 252.7C392.952 252.887 392.672 253.14 392.485 253.46C392.299 253.78 392.205 254.127 392.205 254.5C392.205 254.953 392.372 255.353 392.705 255.7C393.039 256.033 393.565 256.227 394.285 256.28L395.565 256.4C396.605 256.48 397.519 256.7 398.305 257.06C399.092 257.42 399.699 257.907 400.125 258.52C400.565 259.133 400.785 259.873 400.785 260.74C400.785 261.66 400.545 262.473 400.065 263.18C399.585 263.873 398.899 264.413 398.005 264.8C397.125 265.187 396.085 265.38 394.885 265.38ZM406.322 265.08V262.44H409.342C410.102 262.44 410.775 262.327 411.362 262.1C411.962 261.86 412.469 261.527 412.882 261.1C413.295 260.673 413.609 260.173 413.822 259.6C414.049 259.013 414.162 258.367 414.162 257.66C414.162 256.927 414.049 256.273 413.822 255.7C413.609 255.113 413.295 254.613 412.882 254.2C412.469 253.787 411.962 253.473 411.362 253.26C410.775 253.047 410.102 252.94 409.342 252.94H406.322V250.3H409.162C410.482 250.3 411.635 250.493 412.622 250.88C413.609 251.267 414.429 251.8 415.082 252.48C415.735 253.147 416.222 253.913 416.542 254.78C416.875 255.633 417.042 256.52 417.042 257.44V257.88C417.042 258.76 416.875 259.627 416.542 260.48C416.222 261.333 415.735 262.107 415.082 262.8C414.429 263.493 413.609 264.047 412.622 264.46C411.635 264.873 410.482 265.08 409.162 265.08H406.322ZM403.882 265.08V250.3H406.722V265.08H403.882ZM422.535 265V252.5H425.375V265H422.535ZM418.315 252.9V250.4H429.595V252.9H418.315Z" fill="#2B2B37"/>
<circle cx="352.5" cy="257.5" r="10.5" fill="#E0E0E0"/>
<path d="M462.25 255.375L466.5 259.625L470.75 255.375" stroke="#2B2B37" stroke-width="2" stroke-linecap="round" stroke-linejoin="round"/>
<g clip-path="url(#clip2_2232_15113)">
<path d="M352.5 268C358.299 268 363 263.299 363 257.5C363 251.701 358.299 247 352.5 247C346.701 247 342 251.701 342 257.5C342 263.299 346.701 268 352.5 268Z" fill="#50AF95"/>
<path fill-rule="evenodd" clip-rule="evenodd" d="M353.892 258.449C353.814 258.455 353.412 258.479 352.516 258.479C351.804 258.479 351.298 258.457 351.121 258.449C348.367 258.328 346.312 257.848 346.312 257.275C346.312 256.701 348.367 256.222 351.121 256.099V257.971C351.301 257.984 351.816 258.015 352.529 258.015C353.384 258.015 353.812 257.979 353.889 257.972V256.1C356.637 256.223 358.687 256.702 358.687 257.275C358.687 257.847 356.637 258.326 353.889 258.448L353.892 258.449ZM353.892 255.907V254.231H357.726V251.676H347.286V254.231H351.12V255.906C348.004 256.049 345.66 256.666 345.66 257.406C345.66 258.146 348.004 258.762 351.12 258.906V264.276H353.891V258.904C357 258.761 359.34 258.144 359.34 257.405C359.34 256.666 357.002 256.05 353.891 255.906L353.892 255.907Z" fill="white"/>
</g>
<circle cx="75.5" cy="147.5" r="3.5" transform="rotate(-180 75.5 147.5)" fill="#F6F8FA"/>
<path d="M92.08 152V143.24H94.876L98.56 150.584H98.956L98.716 150.8V143.24H100.324V152H97.516L93.832 144.656H93.424L93.664 144.44V152H92.08ZM105.726 152.228C105.15 152.228 104.642 152.136 104.202 151.952C103.762 151.768 103.39 151.52 103.086 151.208C102.782 150.888 102.55 150.528 102.39 150.128C102.238 149.728 102.162 149.312 102.162 148.88V148.628C102.162 148.18 102.242 147.756 102.402 147.356C102.57 146.948 102.806 146.588 103.11 146.276C103.422 145.956 103.798 145.708 104.238 145.532C104.678 145.348 105.174 145.256 105.726 145.256C106.278 145.256 106.774 145.348 107.214 145.532C107.654 145.708 108.026 145.956 108.33 146.276C108.642 146.588 108.878 146.948 109.038 147.356C109.198 147.756 109.278 148.18 109.278 148.628V148.88C109.278 149.312 109.198 149.728 109.038 150.128C108.886 150.528 108.658 150.888 108.354 151.208C108.05 151.52 107.678 151.768 107.238 151.952C106.798 152.136 106.294 152.228 105.726 152.228ZM105.726 150.8C106.134 150.8 106.478 150.712 106.758 150.536C107.038 150.352 107.25 150.108 107.394 149.804C107.538 149.492 107.61 149.14 107.61 148.748C107.61 148.348 107.534 147.996 107.382 147.692C107.238 147.38 107.022 147.136 106.734 146.96C106.454 146.776 106.118 146.684 105.726 146.684C105.334 146.684 104.994 146.776 104.706 146.96C104.426 147.136 104.21 147.38 104.058 147.692C103.906 147.996 103.83 148.348 103.83 148.748C103.83 149.14 103.902 149.492 104.046 149.804C104.198 150.108 104.414 150.352 104.694 150.536C104.974 150.712 105.318 150.8 105.726 150.8ZM116.725 152.228C116.165 152.228 115.673 152.132 115.249 151.94C114.833 151.748 114.485 151.492 114.205 151.172C113.933 150.844 113.725 150.48 113.581 150.08C113.445 149.68 113.377 149.272 113.377 148.856V148.628C113.377 148.196 113.445 147.78 113.581 147.38C113.725 146.972 113.933 146.612 114.205 146.3C114.485 145.98 114.829 145.728 115.237 145.544C115.645 145.352 116.117 145.256 116.653 145.256C117.357 145.256 117.945 145.412 118.417 145.724C118.897 146.028 119.257 146.432 119.497 146.936C119.737 147.432 119.857 147.968 119.857 148.544V149.144H114.085V148.124H118.813L118.297 148.628C118.297 148.212 118.237 147.856 118.117 147.56C117.997 147.264 117.813 147.036 117.565 146.876C117.325 146.716 117.021 146.636 116.653 146.636C116.285 146.636 115.973 146.72 115.717 146.888C115.461 147.056 115.265 147.3 115.129 147.62C115.001 147.932 114.937 148.308 114.937 148.748C114.937 149.156 115.001 149.52 115.129 149.84C115.257 150.152 115.453 150.4 115.717 150.584C115.981 150.76 116.317 150.848 116.725 150.848C117.133 150.848 117.465 150.768 117.721 150.608C117.977 150.44 118.141 150.236 118.213 149.996H119.749C119.653 150.444 119.469 150.836 119.197 151.172C118.925 151.508 118.577 151.768 118.153 151.952C117.737 152.136 117.261 152.228 116.725 152.228ZM120.711 152L122.835 148.52L122.799 148.796L120.795 145.484H122.607L123.915 147.776H124.095L125.331 145.484H127.035L125.139 148.784L125.175 148.544L127.419 152H125.607L124.059 149.54H123.879L122.415 152H120.711ZM131.523 152.084C130.923 152.084 130.427 152.008 130.035 151.856C129.651 151.696 129.363 151.432 129.171 151.064C128.979 150.688 128.883 150.184 128.883 149.552L128.895 143.648H130.455L130.443 149.66C130.443 149.98 130.527 150.228 130.695 150.404C130.871 150.572 131.119 150.656 131.439 150.656H132.459V152.084H131.523ZM127.851 146.708V145.484H132.459V146.708H127.851ZM134.099 152V145.484H135.419V148.244H135.383C135.383 147.308 135.583 146.6 135.983 146.12C136.383 145.64 136.971 145.4 137.747 145.4H137.987V146.852H137.531C136.971 146.852 136.535 147.004 136.223 147.308C135.919 147.604 135.767 148.036 135.767 148.604V152H134.099ZM143.256 152V150.068H142.98V147.92C142.98 147.544 142.888 147.264 142.704 147.08C142.52 146.896 142.236 146.804 141.852 146.804C141.652 146.804 141.412 146.808 141.132 146.816C140.852 146.824 140.568 146.836 140.28 146.852C140 146.86 139.748 146.872 139.524 146.888V145.472C139.708 145.456 139.916 145.44 140.148 145.424C140.38 145.408 140.616 145.4 140.856 145.4C141.104 145.392 141.336 145.388 141.552 145.388C142.224 145.388 142.78 145.476 143.22 145.652C143.668 145.828 144.004 146.104 144.228 146.48C144.46 146.856 144.576 147.348 144.576 147.956V152H143.256ZM141.156 152.168C140.684 152.168 140.268 152.084 139.908 151.916C139.556 151.748 139.28 151.508 139.08 151.196C138.888 150.884 138.792 150.508 138.792 150.068C138.792 149.588 138.908 149.196 139.14 148.892C139.38 148.588 139.712 148.36 140.136 148.208C140.568 148.056 141.072 147.98 141.648 147.98H143.16V148.976H141.624C141.24 148.976 140.944 149.072 140.736 149.264C140.536 149.448 140.436 149.688 140.436 149.984C140.436 150.28 140.536 150.52 140.736 150.704C140.944 150.888 141.24 150.98 141.624 150.98C141.856 150.98 142.068 150.94 142.26 150.86C142.46 150.772 142.624 150.628 142.752 150.428C142.888 150.22 142.964 149.94 142.98 149.588L143.388 150.056C143.348 150.512 143.236 150.896 143.052 151.208C142.876 151.52 142.628 151.76 142.308 151.928C141.996 152.088 141.612 152.168 141.156 152.168ZM149.588 152V145.328C149.588 144.584 149.792 144.036 150.2 143.684C150.616 143.324 151.228 143.144 152.036 143.144H152.852V144.428H151.916C151.668 144.428 151.476 144.496 151.34 144.632C151.212 144.76 151.148 144.944 151.148 145.184V152H149.588ZM148.772 146.816V145.592H152.96V146.816H148.772ZM157.123 152.228C156.563 152.228 156.071 152.132 155.647 151.94C155.231 151.748 154.883 151.492 154.603 151.172C154.331 150.844 154.123 150.48 153.979 150.08C153.843 149.68 153.775 149.272 153.775 148.856V148.628C153.775 148.196 153.843 147.78 153.979 147.38C154.123 146.972 154.331 146.612 154.603 146.3C154.883 145.98 155.227 145.728 155.635 145.544C156.043 145.352 156.515 145.256 157.051 145.256C157.755 145.256 158.343 145.412 158.815 145.724C159.295 146.028 159.655 146.432 159.895 146.936C160.135 147.432 160.255 147.968 160.255 148.544V149.144H154.483V148.124H159.211L158.695 148.628C158.695 148.212 158.635 147.856 158.515 147.56C158.395 147.264 158.211 147.036 157.963 146.876C157.723 146.716 157.419 146.636 157.051 146.636C156.683 146.636 156.371 146.72 156.115 146.888C155.859 147.056 155.663 147.3 155.527 147.62C155.399 147.932 155.335 148.308 155.335 148.748C155.335 149.156 155.399 149.52 155.527 149.84C155.655 150.152 155.851 150.4 156.115 150.584C156.379 150.76 156.715 150.848 157.123 150.848C157.531 150.848 157.863 150.768 158.119 150.608C158.375 150.44 158.539 150.236 158.611 149.996H160.147C160.051 150.444 159.867 150.836 159.595 151.172C159.323 151.508 158.975 151.768 158.551 151.952C158.135 152.136 157.659 152.228 157.123 152.228ZM164.805 152.228C164.245 152.228 163.753 152.132 163.329 151.94C162.913 151.748 162.565 151.492 162.285 151.172C162.013 150.844 161.805 150.48 161.661 150.08C161.525 149.68 161.457 149.272 161.457 148.856V148.628C161.457 148.196 161.525 147.78 161.661 147.38C161.805 146.972 162.013 146.612 162.285 146.3C162.565 145.98 162.909 145.728 163.317 145.544C163.725 145.352 164.197 145.256 164.733 145.256C165.437 145.256 166.025 145.412 166.497 145.724C166.977 146.028 167.337 146.432 167.577 146.936C167.817 147.432 167.937 147.968 167.937 148.544V149.144H162.165V148.124H166.893L166.377 148.628C166.377 148.212 166.317 147.856 166.197 147.56C166.077 147.264 165.893 147.036 165.645 146.876C165.405 146.716 165.101 146.636 164.733 146.636C164.365 146.636 164.053 146.72 163.797 146.888C163.541 147.056 163.345 147.3 163.209 147.62C163.081 147.932 163.017 148.308 163.017 148.748C163.017 149.156 163.081 149.52 163.209 149.84C163.337 150.152 163.533 150.4 163.797 150.584C164.061 150.76 164.397 150.848 164.805 150.848C165.213 150.848 165.545 150.768 165.801 150.608C166.057 150.44 166.221 150.236 166.293 149.996H167.829C167.733 150.444 167.549 150.836 167.277 151.172C167.005 151.508 166.657 151.768 166.233 151.952C165.817 152.136 165.341 152.228 164.805 152.228ZM171.934 152.204C171.038 152.204 170.334 152.016 169.822 151.64C169.318 151.256 169.054 150.728 169.03 150.056H170.53C170.554 150.28 170.678 150.484 170.902 150.668C171.126 150.852 171.478 150.944 171.958 150.944C172.358 150.944 172.674 150.872 172.906 150.728C173.146 150.584 173.266 150.388 173.266 150.14C173.266 149.924 173.174 149.752 172.99 149.624C172.814 149.496 172.51 149.412 172.078 149.372L171.502 149.312C170.774 149.232 170.214 149.024 169.822 148.688C169.43 148.352 169.234 147.904 169.234 147.344C169.234 146.896 169.346 146.52 169.57 146.216C169.794 145.912 170.102 145.684 170.494 145.532C170.894 145.372 171.35 145.292 171.862 145.292C172.662 145.292 173.31 145.468 173.806 145.82C174.302 146.172 174.562 146.688 174.586 147.368H173.086C173.07 147.144 172.958 146.952 172.75 146.792C172.542 146.632 172.242 146.552 171.85 146.552C171.498 146.552 171.226 146.62 171.034 146.756C170.842 146.892 170.746 147.068 170.746 147.284C170.746 147.492 170.822 147.652 170.974 147.764C171.134 147.876 171.39 147.952 171.742 147.992L172.318 148.052C173.086 148.132 173.686 148.344 174.118 148.688C174.558 149.032 174.778 149.496 174.778 150.08C174.778 150.512 174.658 150.888 174.418 151.208C174.186 151.52 173.858 151.764 173.434 151.94C173.01 152.116 172.51 152.204 171.934 152.204Z" fill="#666666"/>
<circle cx="75.5" cy="168.5" r="3.5" transform="rotate(-180 75.5 168.5)" fill="#F6F8FA"/>
<path d="M92.08 173V164.24H93.748V173H92.08ZM93.508 173V171.56H97.48V173H93.508ZM93.508 169.268V167.828H97.168V169.268H93.508ZM93.508 165.68V164.24H97.384V165.68H93.508ZM101.583 173.204C100.687 173.204 99.9832 173.016 99.4712 172.64C98.9672 172.256 98.7032 171.728 98.6792 171.056H100.179C100.203 171.28 100.327 171.484 100.551 171.668C100.775 171.852 101.127 171.944 101.607 171.944C102.007 171.944 102.323 171.872 102.555 171.728C102.795 171.584 102.915 171.388 102.915 171.14C102.915 170.924 102.823 170.752 102.639 170.624C102.463 170.496 102.159 170.412 101.727 170.372L101.151 170.312C100.423 170.232 99.8632 170.024 99.4712 169.688C99.0792 169.352 98.8832 168.904 98.8832 168.344C98.8832 167.896 98.9952 167.52 99.2192 167.216C99.4432 166.912 99.7512 166.684 100.143 166.532C100.543 166.372 100.999 166.292 101.511 166.292C102.311 166.292 102.959 166.468 103.455 166.82C103.951 167.172 104.211 167.688 104.235 168.368H102.735C102.719 168.144 102.607 167.952 102.399 167.792C102.191 167.632 101.891 167.552 101.499 167.552C101.147 167.552 100.875 167.62 100.683 167.756C100.491 167.892 100.395 168.068 100.395 168.284C100.395 168.492 100.471 168.652 100.623 168.764C100.783 168.876 101.039 168.952 101.391 168.992L101.967 169.052C102.735 169.132 103.335 169.344 103.767 169.688C104.207 170.032 104.427 170.496 104.427 171.08C104.427 171.512 104.307 171.888 104.067 172.208C103.835 172.52 103.507 172.764 103.083 172.94C102.659 173.116 102.159 173.204 101.583 173.204ZM108.877 173.084C108.277 173.084 107.781 173.008 107.389 172.856C107.005 172.696 106.717 172.432 106.525 172.064C106.333 171.688 106.237 171.184 106.237 170.552L106.249 164.648H107.809L107.797 170.66C107.797 170.98 107.881 171.228 108.049 171.404C108.225 171.572 108.473 171.656 108.793 171.656H109.813V173.084H108.877ZM105.205 167.708V166.484H109.813V167.708H105.205ZM111.765 173V166.484H113.433V173H111.765ZM110.853 167.732V166.484H113.433V167.732H110.853ZM112.377 165.704C112.049 165.704 111.805 165.62 111.645 165.452C111.493 165.276 111.417 165.06 111.417 164.804C111.417 164.532 111.493 164.312 111.645 164.144C111.805 163.976 112.049 163.892 112.377 163.892C112.705 163.892 112.945 163.976 113.097 164.144C113.249 164.312 113.325 164.532 113.325 164.804C113.325 165.06 113.249 165.276 113.097 165.452C112.945 165.62 112.705 165.704 112.377 165.704ZM115.595 173V166.484H116.915V169.28H116.795C116.795 168.624 116.879 168.076 117.047 167.636C117.215 167.188 117.463 166.852 117.791 166.628C118.127 166.396 118.543 166.28 119.039 166.28H119.111C119.615 166.28 120.031 166.396 120.359 166.628C120.695 166.852 120.943 167.188 121.103 167.636C121.271 168.076 121.355 168.624 121.355 169.28H120.935C120.935 168.624 121.019 168.076 121.187 167.636C121.363 167.188 121.615 166.852 121.943 166.628C122.279 166.396 122.695 166.28 123.191 166.28H123.263C123.767 166.28 124.187 166.396 124.523 166.628C124.859 166.852 125.111 167.188 125.279 167.636C125.455 168.076 125.543 168.624 125.543 169.28V173H123.875V169.124C123.875 168.716 123.771 168.392 123.563 168.152C123.355 167.904 123.059 167.78 122.675 167.78C122.291 167.78 121.983 167.908 121.751 168.164C121.519 168.412 121.403 168.748 121.403 169.172V173H119.735V169.124C119.735 168.716 119.631 168.392 119.423 168.152C119.215 167.904 118.919 167.78 118.535 167.78C118.151 167.78 117.843 167.908 117.611 168.164C117.379 168.412 117.263 168.748 117.263 169.172V173H115.595ZM131.514 173V171.068H131.238V168.92C131.238 168.544 131.146 168.264 130.962 168.08C130.778 167.896 130.494 167.804 130.11 167.804C129.91 167.804 129.67 167.808 129.39 167.816C129.11 167.824 128.826 167.836 128.538 167.852C128.258 167.86 128.006 167.872 127.782 167.888V166.472C127.966 166.456 128.174 166.44 128.406 166.424C128.638 166.408 128.874 166.4 129.114 166.4C129.362 166.392 129.594 166.388 129.81 166.388C130.482 166.388 131.038 166.476 131.478 166.652C131.926 166.828 132.262 167.104 132.486 167.48C132.718 167.856 132.834 168.348 132.834 168.956V173H131.514ZM129.414 173.168C128.942 173.168 128.526 173.084 128.166 172.916C127.814 172.748 127.538 172.508 127.338 172.196C127.146 171.884 127.05 171.508 127.05 171.068C127.05 170.588 127.166 170.196 127.398 169.892C127.638 169.588 127.97 169.36 128.394 169.208C128.826 169.056 129.33 168.98 129.906 168.98H131.418V169.976H129.882C129.498 169.976 129.202 170.072 128.994 170.264C128.794 170.448 128.694 170.688 128.694 170.984C128.694 171.28 128.794 171.52 128.994 171.704C129.202 171.888 129.498 171.98 129.882 171.98C130.114 171.98 130.326 171.94 130.518 171.86C130.718 171.772 130.882 171.628 131.01 171.428C131.146 171.22 131.222 170.94 131.238 170.588L131.646 171.056C131.606 171.512 131.494 171.896 131.31 172.208C131.134 172.52 130.886 172.76 130.566 172.928C130.254 173.088 129.87 173.168 129.414 173.168ZM137.693 173.084C137.093 173.084 136.597 173.008 136.205 172.856C135.821 172.696 135.533 172.432 135.341 172.064C135.149 171.688 135.053 171.184 135.053 170.552L135.065 164.648H136.625L136.613 170.66C136.613 170.98 136.697 171.228 136.865 171.404C137.041 171.572 137.289 171.656 137.609 171.656H138.629V173.084H137.693ZM134.021 167.708V166.484H138.629V167.708H134.021ZM143.149 173.228C142.589 173.228 142.097 173.132 141.673 172.94C141.257 172.748 140.909 172.492 140.629 172.172C140.357 171.844 140.149 171.48 140.005 171.08C139.869 170.68 139.801 170.272 139.801 169.856V169.628C139.801 169.196 139.869 168.78 140.005 168.38C140.149 167.972 140.357 167.612 140.629 167.3C140.909 166.98 141.253 166.728 141.661 166.544C142.069 166.352 142.541 166.256 143.077 166.256C143.781 166.256 144.369 166.412 144.841 166.724C145.321 167.028 145.681 167.432 145.921 167.936C146.161 168.432 146.281 168.968 146.281 169.544V170.144H140.509V169.124H145.237L144.721 169.628C144.721 169.212 144.661 168.856 144.541 168.56C144.421 168.264 144.237 168.036 143.989 167.876C143.749 167.716 143.445 167.636 143.077 167.636C142.709 167.636 142.397 167.72 142.141 167.888C141.885 168.056 141.689 168.3 141.553 168.62C141.425 168.932 141.361 169.308 141.361 169.748C141.361 170.156 141.425 170.52 141.553 170.84C141.681 171.152 141.877 171.4 142.141 171.584C142.405 171.76 142.741 171.848 143.149 171.848C143.557 171.848 143.889 171.768 144.145 171.608C144.401 171.44 144.565 171.236 144.637 170.996H146.173C146.077 171.444 145.893 171.836 145.621 172.172C145.349 172.508 145.001 172.768 144.577 172.952C144.161 173.136 143.685 173.228 143.149 173.228ZM150.615 173.216C150.159 173.216 149.739 173.132 149.355 172.964C148.971 172.796 148.639 172.56 148.359 172.256C148.079 171.952 147.863 171.6 147.711 171.2C147.559 170.792 147.483 170.352 147.483 169.88V169.628C147.483 169.164 147.555 168.728 147.699 168.32C147.851 167.912 148.059 167.556 148.323 167.252C148.595 166.948 148.919 166.712 149.295 166.544C149.679 166.368 150.103 166.28 150.567 166.28C151.079 166.28 151.527 166.392 151.911 166.616C152.303 166.832 152.615 167.16 152.847 167.6C153.079 168.04 153.207 168.592 153.231 169.256L152.739 168.68V164.24H154.407V173H153.087V170.228H153.375C153.351 170.892 153.215 171.448 152.967 171.896C152.719 172.336 152.391 172.668 151.983 172.892C151.583 173.108 151.127 173.216 150.615 173.216ZM150.987 171.812C151.315 171.812 151.615 171.74 151.887 171.596C152.159 171.444 152.375 171.228 152.535 170.948C152.703 170.66 152.787 170.324 152.787 169.94V169.46C152.787 169.076 152.703 168.756 152.535 168.5C152.367 168.236 152.147 168.036 151.875 167.9C151.603 167.756 151.307 167.684 150.987 167.684C150.627 167.684 150.307 167.772 150.027 167.948C149.755 168.116 149.539 168.356 149.379 168.668C149.227 168.98 149.151 169.344 149.151 169.76C149.151 170.176 149.231 170.54 149.391 170.852C149.551 171.156 149.767 171.392 150.039 171.56C150.319 171.728 150.635 171.812 150.987 171.812ZM159.375 173V166.484H160.695V169.244H160.659C160.659 168.308 160.859 167.6 161.259 167.12C161.659 166.64 162.247 166.4 163.023 166.4H163.263V167.852H162.807C162.247 167.852 161.811 168.004 161.499 168.308C161.195 168.604 161.043 169.036 161.043 169.604V173H159.375ZM168.532 173V171.068H168.256V168.92C168.256 168.544 168.164 168.264 167.98 168.08C167.796 167.896 167.512 167.804 167.128 167.804C166.928 167.804 166.688 167.808 166.408 167.816C166.128 167.824 165.844 167.836 165.556 167.852C165.276 167.86 165.024 167.872 164.8 167.888V166.472C164.984 166.456 165.192 166.44 165.424 166.424C165.656 166.408 165.892 166.4 166.132 166.4C166.38 166.392 166.612 166.388 166.828 166.388C167.5 166.388 168.056 166.476 168.496 166.652C168.944 166.828 169.28 167.104 169.504 167.48C169.736 167.856 169.852 168.348 169.852 168.956V173H168.532ZM166.432 173.168C165.96 173.168 165.544 173.084 165.184 172.916C164.832 172.748 164.556 172.508 164.356 172.196C164.164 171.884 164.068 171.508 164.068 171.068C164.068 170.588 164.184 170.196 164.416 169.892C164.656 169.588 164.988 169.36 165.412 169.208C165.844 169.056 166.348 168.98 166.924 168.98H168.436V169.976H166.9C166.516 169.976 166.22 170.072 166.012 170.264C165.812 170.448 165.712 170.688 165.712 170.984C165.712 171.28 165.812 171.52 166.012 171.704C166.22 171.888 166.516 171.98 166.9 171.98C167.132 171.98 167.344 171.94 167.536 171.86C167.736 171.772 167.9 171.628 168.028 171.428C168.164 171.22 168.24 170.94 168.256 170.588L168.664 171.056C168.624 171.512 168.512 171.896 168.328 172.208C168.152 172.52 167.904 172.76 167.584 172.928C167.272 173.088 166.888 173.168 166.432 173.168ZM174.711 173.084C174.111 173.084 173.615 173.008 173.223 172.856C172.839 172.696 172.551 172.432 172.359 172.064C172.167 171.688 172.071 171.184 172.071 170.552L172.083 164.648H173.643L173.631 170.66C173.631 170.98 173.715 171.228 173.883 171.404C174.059 171.572 174.307 171.656 174.627 171.656H175.647V173.084H174.711ZM171.039 167.708V166.484H175.647V167.708H171.039ZM180.168 173.228C179.608 173.228 179.116 173.132 178.692 172.94C178.276 172.748 177.928 172.492 177.648 172.172C177.376 171.844 177.168 171.48 177.024 171.08C176.888 170.68 176.82 170.272 176.82 169.856V169.628C176.82 169.196 176.888 168.78 177.024 168.38C177.168 167.972 177.376 167.612 177.648 167.3C177.928 166.98 178.272 166.728 178.68 166.544C179.088 166.352 179.56 166.256 180.096 166.256C180.8 166.256 181.388 166.412 181.86 166.724C182.34 167.028 182.7 167.432 182.94 167.936C183.18 168.432 183.3 168.968 183.3 169.544V170.144H177.528V169.124H182.256L181.74 169.628C181.74 169.212 181.68 168.856 181.56 168.56C181.44 168.264 181.256 168.036 181.008 167.876C180.768 167.716 180.464 167.636 180.096 167.636C179.728 167.636 179.416 167.72 179.16 167.888C178.904 168.056 178.708 168.3 178.572 168.62C178.444 168.932 178.38 169.308 178.38 169.748C178.38 170.156 178.444 170.52 178.572 170.84C178.7 171.152 178.896 171.4 179.16 171.584C179.424 171.76 179.76 171.848 180.168 171.848C180.576 171.848 180.908 171.768 181.164 171.608C181.42 171.44 181.584 171.236 181.656 170.996H183.192C183.096 171.444 182.912 171.836 182.64 172.172C182.368 172.508 182.02 172.768 181.596 172.952C181.18 173.136 180.704 173.228 180.168 173.228ZM184.669 173V171.08H186.541V173H184.669ZM184.669 168.86V166.94H186.541V168.86H184.669ZM192.497 173V165.296L193.025 165.704H190.709V164.24H194.189V173H192.497ZM200.953 173.06V171.692H203.149C203.549 171.692 203.853 171.584 204.061 171.368C204.269 171.144 204.373 170.84 204.373 170.456C204.373 170.072 204.269 169.776 204.061 169.568C203.853 169.352 203.549 169.244 203.149 169.244H200.953V168.2H203.029C203.613 168.2 204.133 168.272 204.589 168.416C205.053 168.552 205.413 168.784 205.669 169.112C205.933 169.44 206.065 169.88 206.065 170.432V170.6C206.065 171.12 205.949 171.564 205.717 171.932C205.493 172.292 205.153 172.572 204.697 172.772C204.249 172.964 203.693 173.06 203.029 173.06H200.953ZM199.525 173.06V164.18H201.193V173.06H199.525ZM200.953 168.968V167.924H202.825C203.233 167.924 203.533 167.816 203.725 167.6C203.917 167.384 204.013 167.096 204.013 166.736C204.013 166.376 203.917 166.088 203.725 165.872C203.533 165.656 203.233 165.548 202.825 165.548H200.953V164.18H202.669C203.661 164.18 204.413 164.388 204.925 164.804C205.445 165.22 205.705 165.816 205.705 166.592V166.76C205.705 167.304 205.573 167.74 205.309 168.068C205.053 168.388 204.697 168.62 204.241 168.764C203.785 168.9 203.261 168.968 202.669 168.968H200.953ZM209.579 173V165.5H211.283V173H209.579ZM207.047 165.74V164.24H213.815V165.74H207.047ZM219.105 173.228C218.313 173.228 217.633 173.088 217.065 172.808C216.497 172.528 216.033 172.164 215.673 171.716C215.321 171.268 215.061 170.78 214.893 170.252C214.725 169.724 214.641 169.216 214.641 168.728V168.464C214.641 167.92 214.725 167.384 214.893 166.856C215.069 166.328 215.337 165.848 215.697 165.416C216.057 164.984 216.513 164.64 217.065 164.384C217.625 164.12 218.285 163.988 219.045 163.988C219.837 163.988 220.525 164.132 221.109 164.42C221.701 164.7 222.173 165.1 222.525 165.62C222.877 166.132 223.089 166.732 223.161 167.42H221.445C221.381 167.02 221.237 166.684 221.013 166.412C220.797 166.132 220.521 165.924 220.185 165.788C219.849 165.644 219.469 165.572 219.045 165.572C218.613 165.572 218.229 165.648 217.893 165.8C217.557 165.944 217.277 166.152 217.053 166.424C216.829 166.696 216.657 167.016 216.537 167.384C216.425 167.752 216.369 168.16 216.369 168.608C216.369 169.04 216.425 169.44 216.537 169.808C216.657 170.176 216.833 170.5 217.065 170.78C217.297 171.052 217.581 171.264 217.917 171.416C218.261 171.568 218.657 171.644 219.105 171.644C219.761 171.644 220.313 171.484 220.761 171.164C221.217 170.836 221.493 170.38 221.589 169.796H223.305C223.225 170.42 223.013 170.992 222.669 171.512C222.325 172.032 221.853 172.448 221.253 172.76C220.653 173.072 219.937 173.228 219.105 173.228ZM231.101 170.324C230.813 170.324 230.557 170.272 230.333 170.168C230.109 170.056 229.901 169.932 229.709 169.796C229.525 169.652 229.349 169.528 229.181 169.424C229.013 169.312 228.841 169.256 228.665 169.256C228.505 169.256 228.365 169.316 228.245 169.436C228.125 169.556 228.037 169.76 227.981 170.048L226.973 170.06C226.997 169.588 227.093 169.2 227.261 168.896C227.437 168.584 227.653 168.352 227.909 168.2C228.165 168.048 228.429 167.972 228.701 167.972C228.989 167.972 229.245 168.028 229.469 168.14C229.693 168.244 229.897 168.364 230.081 168.5C230.273 168.636 230.453 168.76 230.621 168.872C230.789 168.976 230.957 169.028 231.125 169.028C231.293 169.028 231.437 168.968 231.557 168.848C231.677 168.728 231.761 168.524 231.809 168.236H232.817C232.801 168.716 232.705 169.112 232.529 169.424C232.353 169.728 232.137 169.956 231.881 170.108C231.633 170.252 231.373 170.324 231.101 170.324ZM238.351 173V165.296L238.879 165.704H236.563V164.24H240.043V173H238.351ZM245.741 173.252C245.093 173.252 244.541 173.144 244.085 172.928C243.637 172.704 243.273 172.4 242.993 172.016C242.713 171.632 242.509 171.188 242.381 170.684C242.253 170.172 242.189 169.632 242.189 169.064V168.536C242.189 167.104 242.549 166.02 243.269 165.284C243.997 164.54 245.061 164.168 246.461 164.168C246.765 164.168 247.049 164.176 247.313 164.192C247.577 164.208 247.841 164.232 248.105 164.264V165.692C247.841 165.66 247.569 165.636 247.289 165.62C247.017 165.604 246.721 165.596 246.401 165.596C245.729 165.596 245.201 165.712 244.817 165.944C244.433 166.176 244.157 166.516 243.989 166.964C243.829 167.412 243.749 167.968 243.749 168.632V169.412L243.365 169.964C243.373 169.348 243.493 168.84 243.725 168.44C243.965 168.032 244.293 167.728 244.709 167.528C245.125 167.32 245.601 167.216 246.137 167.216C246.761 167.216 247.293 167.34 247.733 167.588C248.173 167.836 248.509 168.18 248.741 168.62C248.981 169.06 249.101 169.572 249.101 170.156C249.101 170.764 248.965 171.304 248.693 171.776C248.421 172.24 248.033 172.604 247.529 172.868C247.033 173.124 246.437 173.252 245.741 173.252ZM245.705 171.824C246.081 171.824 246.401 171.756 246.665 171.62C246.929 171.476 247.129 171.28 247.265 171.032C247.401 170.784 247.469 170.5 247.469 170.18C247.469 169.852 247.401 169.564 247.265 169.316C247.137 169.068 246.945 168.876 246.689 168.74C246.433 168.604 246.125 168.536 245.765 168.536C245.421 168.536 245.105 168.6 244.817 168.728C244.537 168.848 244.313 169.032 244.145 169.28C243.985 169.52 243.905 169.82 243.905 170.18C243.905 170.492 243.969 170.772 244.097 171.02C244.233 171.268 244.433 171.464 244.697 171.608C244.969 171.752 245.305 171.824 245.705 171.824ZM250.526 173V171.08H252.398V173H250.526ZM257.852 173.228C257.164 173.228 256.58 173.116 256.1 172.892C255.62 172.66 255.228 172.348 254.924 171.956C254.62 171.556 254.396 171.1 254.252 170.588C254.116 170.068 254.048 169.524 254.048 168.956V168.284C254.048 167.476 254.184 166.748 254.456 166.1C254.728 165.452 255.144 164.94 255.704 164.564C256.264 164.18 256.98 163.988 257.852 163.988C258.716 163.988 259.428 164.18 259.988 164.564C260.548 164.94 260.96 165.452 261.224 166.1C261.496 166.748 261.632 167.476 261.632 168.284V168.956C261.632 169.524 261.56 170.068 261.416 170.588C261.28 171.1 261.06 171.556 260.756 171.956C260.46 172.348 260.072 172.66 259.592 172.892C259.112 173.116 258.532 173.228 257.852 173.228ZM257.852 171.668C258.564 171.668 259.088 171.424 259.424 170.936C259.76 170.44 259.928 169.672 259.928 168.632C259.928 167.528 259.756 166.74 259.412 166.268C259.068 165.788 258.548 165.548 257.852 165.548C257.148 165.548 256.62 165.788 256.268 166.268C255.924 166.74 255.752 167.52 255.752 168.608C255.752 169.656 255.924 170.428 256.268 170.924C256.612 171.42 257.14 171.668 257.852 171.668ZM266.887 173.252C266.239 173.252 265.687 173.144 265.231 172.928C264.783 172.704 264.419 172.4 264.139 172.016C263.859 171.632 263.655 171.188 263.527 170.684C263.399 170.172 263.335 169.632 263.335 169.064V168.536C263.335 167.104 263.695 166.02 264.415 165.284C265.143 164.54 266.207 164.168 267.607 164.168C267.911 164.168 268.195 164.176 268.459 164.192C268.723 164.208 268.987 164.232 269.251 164.264V165.692C268.987 165.66 268.715 165.636 268.435 165.62C268.163 165.604 267.867 165.596 267.547 165.596C266.875 165.596 266.347 165.712 265.963 165.944C265.579 166.176 265.303 166.516 265.135 166.964C264.975 167.412 264.895 167.968 264.895 168.632V169.412L264.511 169.964C264.519 169.348 264.639 168.84 264.871 168.44C265.111 168.032 265.439 167.728 265.855 167.528C266.271 167.32 266.747 167.216 267.283 167.216C267.907 167.216 268.439 167.34 268.879 167.588C269.319 167.836 269.655 168.18 269.887 168.62C270.127 169.06 270.247 169.572 270.247 170.156C270.247 170.764 270.111 171.304 269.839 171.776C269.567 172.24 269.179 172.604 268.675 172.868C268.179 173.124 267.583 173.252 266.887 173.252ZM266.851 171.824C267.227 171.824 267.547 171.756 267.811 171.62C268.075 171.476 268.275 171.28 268.411 171.032C268.547 170.784 268.615 170.5 268.615 170.18C268.615 169.852 268.547 169.564 268.411 169.316C268.283 169.068 268.091 168.876 267.835 168.74C267.579 168.604 267.271 168.536 266.911 168.536C266.567 168.536 266.251 168.6 265.963 168.728C265.683 168.848 265.459 169.032 265.291 169.28C265.131 169.52 265.051 169.82 265.051 170.18C265.051 170.492 265.115 170.772 265.243 171.02C265.379 171.268 265.579 171.464 265.843 171.608C266.115 171.752 266.451 171.824 266.851 171.824ZM274.863 173.228C274.175 173.228 273.583 173.092 273.087 172.82C272.599 172.548 272.223 172.188 271.959 171.74C271.703 171.284 271.575 170.788 271.575 170.252H273.219C273.219 170.556 273.287 170.824 273.423 171.056C273.567 171.288 273.763 171.472 274.011 171.608C274.259 171.736 274.547 171.8 274.875 171.8C275.219 171.8 275.515 171.728 275.763 171.584C276.011 171.44 276.199 171.244 276.327 170.996C276.463 170.748 276.531 170.464 276.531 170.144C276.531 169.832 276.463 169.552 276.327 169.304C276.199 169.048 276.011 168.848 275.763 168.704C275.523 168.552 275.231 168.476 274.887 168.476C274.599 168.476 274.327 168.532 274.071 168.644C273.815 168.756 273.615 168.904 273.471 169.088H271.899L272.343 164.24H277.419V165.692H273.087L273.687 165.224L273.399 168.248L272.991 168.128C273.223 167.864 273.507 167.644 273.843 167.468C274.179 167.292 274.603 167.204 275.115 167.204C275.763 167.204 276.315 167.336 276.771 167.6C277.227 167.864 277.575 168.216 277.815 168.656C278.055 169.088 278.175 169.56 278.175 170.072V170.228C278.175 170.748 278.047 171.236 277.791 171.692C277.535 172.148 277.159 172.52 276.663 172.808C276.175 173.088 275.575 173.228 274.863 173.228ZM281.088 173V165.296L281.616 165.704H279.3V164.24H282.78V173H281.088ZM285.934 173L289.21 165.8L289.102 165.644H284.662V164.24H291.046V165.536L287.722 173H285.934ZM284.662 167.048V164.24H286.042V167.048H284.662ZM292.05 171.188V169.34L295.482 164L296.766 164.876L293.742 169.604L293.886 169.844H299.262V171.188H292.05ZM296.634 173V166.724H298.206V173H296.634ZM303.689 173V164.24H305.357V173H303.689ZM305.117 173V171.56H309.089V173H305.117ZM305.117 169.268V167.828H308.777V169.268H305.117ZM305.117 165.68V164.24H308.993V165.68H305.117ZM312.806 173V165.5H314.51V173H312.806ZM310.274 165.74V164.24H317.042V165.74H310.274ZM324.39 173V164.24H326.094V173H324.39ZM318.642 173V164.24H320.346V173H318.642ZM320.034 169.364V167.864H324.702V169.364H320.034Z" fill="#666666"/>
<rect x="456" y="155" width="33" height="33" rx="6" fill="#6DD7C3"/>
<g clip-path="url(#clip3_2232_15113)">
<path d="M472.22 168.38C472.094 168.505 472.022 168.674 472.021 168.852C472.019 169.029 472.089 169.2 472.213 169.327C472.338 169.453 472.508 169.525 472.685 169.526C472.863 169.527 473.034 169.458 473.16 169.333L475.667 166.853V178.78C475.667 178.957 475.737 179.126 475.862 179.251C475.987 179.376 476.157 179.447 476.333 179.447C476.51 179.447 476.68 179.376 476.805 179.251C476.93 179.126 477 178.957 477 178.78V166.853L479.467 169.333C479.529 169.395 479.603 169.444 479.684 169.477C479.765 169.51 479.851 169.527 479.939 169.527C480.027 169.527 480.113 169.509 480.194 169.475C480.275 169.442 480.348 169.392 480.41 169.33C480.472 169.268 480.521 169.194 480.554 169.113C480.587 169.032 480.604 168.945 480.604 168.858C480.603 168.77 480.586 168.683 480.552 168.603C480.518 168.522 480.469 168.448 480.407 168.387L476.333 164.313L472.22 168.38Z" fill="white"/>
<path d="M472.59 174.587C472.591 174.454 472.552 174.325 472.479 174.214C472.406 174.104 472.302 174.018 472.179 173.967C472.057 173.916 471.922 173.903 471.793 173.929C471.663 173.955 471.544 174.019 471.45 174.113L468.957 176.587V164.667C468.957 164.49 468.887 164.32 468.762 164.195C468.637 164.07 468.467 164 468.29 164C468.114 164 467.944 164.07 467.819 164.195C467.694 164.32 467.624 164.49 467.624 164.667V176.587L465.137 174.113C465.075 174.052 465.001 174.003 464.92 173.969C464.839 173.936 464.752 173.919 464.665 173.92C464.577 173.92 464.49 173.937 464.41 173.971C464.329 174.005 464.255 174.054 464.194 174.117C464.132 174.179 464.083 174.253 464.05 174.334C464.017 174.415 464 174.501 464 174.589C464.001 174.766 464.072 174.935 464.197 175.06L468.29 179.133L472.384 175.06C472.448 174.999 472.499 174.925 472.535 174.844C472.57 174.763 472.589 174.675 472.59 174.587Z" fill="white"/>
</g>
<path d="M351.003 165V169L353.669 170.333M357.669 169C357.669 172.682 354.685 175.667 351.003 175.667C347.321 175.667 344.336 172.682 344.336 169C344.336 165.318 347.321 162.333 351.003 162.333C354.685 162.333 357.669 165.318 357.669 169Z" stroke="#666666" stroke-width="1.5" stroke-linecap="round" stroke-linejoin="round"/>
<path d="M364.781 173V171.32C364.781 170.952 364.837 170.632 364.949 170.36C365.069 170.088 365.261 169.848 365.525 169.64C365.797 169.424 366.153 169.22 366.593 169.028L368.081 168.368C368.449 168.2 368.729 167.996 368.921 167.756C369.121 167.508 369.221 167.192 369.221 166.808C369.221 166.384 369.093 166.048 368.837 165.8C368.589 165.544 368.233 165.416 367.769 165.416C367.305 165.416 366.945 165.544 366.689 165.8C366.441 166.056 366.317 166.412 366.317 166.868H364.673C364.673 166.324 364.789 165.836 365.021 165.404C365.253 164.964 365.597 164.62 366.053 164.372C366.509 164.116 367.081 163.988 367.769 163.988C368.457 163.988 369.029 164.112 369.485 164.36C369.941 164.608 370.285 164.94 370.517 165.356C370.749 165.764 370.865 166.22 370.865 166.724V166.88C370.865 167.536 370.681 168.084 370.313 168.524C369.945 168.956 369.405 169.332 368.693 169.652L367.205 170.312C366.925 170.432 366.729 170.56 366.617 170.696C366.505 170.824 366.449 171 366.449 171.224V171.992L366.041 171.548H370.901V173H364.781ZM372.449 173V171.08H374.321V173H372.449ZM372.449 168.86V166.94H374.321V168.86H372.449ZM379.775 173.228C379.087 173.228 378.503 173.116 378.023 172.892C377.543 172.66 377.151 172.348 376.847 171.956C376.543 171.556 376.319 171.1 376.175 170.588C376.039 170.068 375.971 169.524 375.971 168.956V168.284C375.971 167.476 376.107 166.748 376.379 166.1C376.651 165.452 377.067 164.94 377.627 164.564C378.187 164.18 378.903 163.988 379.775 163.988C380.639 163.988 381.351 164.18 381.911 164.564C382.471 164.94 382.883 165.452 383.147 166.1C383.419 166.748 383.555 167.476 383.555 168.284V168.956C383.555 169.524 383.483 170.068 383.339 170.588C383.203 171.1 382.983 171.556 382.679 171.956C382.383 172.348 381.995 172.66 381.515 172.892C381.035 173.116 380.455 173.228 379.775 173.228ZM379.775 171.668C380.487 171.668 381.011 171.424 381.347 170.936C381.683 170.44 381.851 169.672 381.851 168.632C381.851 167.528 381.679 166.74 381.335 166.268C380.991 165.788 380.471 165.548 379.775 165.548C379.071 165.548 378.543 165.788 378.191 166.268C377.847 166.74 377.675 167.52 377.675 168.608C377.675 169.656 377.847 170.428 378.191 170.924C378.535 171.42 379.063 171.668 379.775 171.668ZM389.086 173.228C388.398 173.228 387.814 173.116 387.334 172.892C386.854 172.66 386.462 172.348 386.158 171.956C385.854 171.556 385.63 171.1 385.486 170.588C385.35 170.068 385.282 169.524 385.282 168.956V168.284C385.282 167.476 385.418 166.748 385.69 166.1C385.962 165.452 386.378 164.94 386.938 164.564C387.498 164.18 388.214 163.988 389.086 163.988C389.95 163.988 390.662 164.18 391.222 164.564C391.782 164.94 392.194 165.452 392.458 166.1C392.73 166.748 392.866 167.476 392.866 168.284V168.956C392.866 169.524 392.794 170.068 392.65 170.588C392.514 171.1 392.294 171.556 391.99 171.956C391.694 172.348 391.306 172.66 390.826 172.892C390.346 173.116 389.766 173.228 389.086 173.228ZM389.086 171.668C389.798 171.668 390.322 171.424 390.658 170.936C390.994 170.44 391.162 169.672 391.162 168.632C391.162 167.528 390.99 166.74 390.646 166.268C390.302 165.788 389.782 165.548 389.086 165.548C388.382 165.548 387.854 165.788 387.502 166.268C387.158 166.74 386.986 167.52 386.986 168.608C386.986 169.656 387.158 170.428 387.502 170.924C387.846 171.42 388.374 171.668 389.086 171.668Z" fill="#666666"/>
<defs>
<filter id="filter0_d_2232_15113" x="0" y="0" width="539" height="441" filterUnits="userSpaceOnUse" color-interpolation-filters="sRGB">
<feFlood flood-opacity="0" result="BackgroundImageFix"/>
<feColorMatrix in="SourceAlpha" type="matrix" values="0 0 0 0 0 0 0 0 0 0 0 0 0 0 0 0 0 0 127 0" result="hardAlpha"/>
<feOffset dy="11"/>
<feGaussianBlur stdDeviation="12"/>
<feComposite in2="hardAlpha" operator="out"/>
<feColorMatrix type="matrix" values="0 0 0 0 0 0 0 0 0 0 0 0 0 0 0 0 0 0 0.25 0"/>
<feBlend mode="normal" in2="BackgroundImageFix" result="effect1_dropShadow_2232_15113"/>
<feBlend mode="normal" in="SourceGraphic" in2="effect1_dropShadow_2232_15113" result="shape"/>
</filter>
<clipPath id="clip0_2232_15113">
<rect width="21" height="21" fill="white" transform="translate(342 86)"/>
</clipPath>
<clipPath id="clip1_2232_15113">
<rect width="21" height="21" fill="white" transform="translate(342 247)"/>
</clipPath>
<clipPath id="clip2_2232_15113">
<rect width="21" height="21" fill="white" transform="translate(342 247)"/>
</clipPath>
<clipPath id="clip3_2232_15113">
<rect width="24" height="24" fill="white" transform="translate(461 184) rotate(-90)"/>
</clipPath>
</defs>
</svg>
