<svg width="26" height="25" viewBox="0 0 26 25" fill="none" xmlns="http://www.w3.org/2000/svg">
<path fill-rule="evenodd" clip-rule="evenodd" d="M12.786 0C5.82889 0 0.19397 5.63492 0.19397 12.592C0.19397 18.164 3.79843 22.8702 8.80376 24.5387C9.43336 24.6489 9.66946 24.2711 9.66946 23.9406C9.66946 23.6415 9.65372 22.6499 9.65372 21.5953C6.48997 22.1777 5.67149 20.824 5.41965 20.1157C5.27799 19.7537 4.66413 18.6362 4.12897 18.3371C3.68825 18.101 3.05865 17.5186 4.11323 17.5029C5.10485 17.4872 5.81315 18.4158 6.04925 18.7936C7.18253 20.6981 8.99264 20.163 9.71668 19.8324C9.82686 19.0139 10.1574 18.463 10.5194 18.1482C7.71769 17.8334 4.79005 16.7474 4.79005 11.9309C4.79005 10.5615 5.27799 9.42827 6.08073 8.54683C5.95481 8.23203 5.51409 6.94134 6.20665 5.20994C6.20665 5.20994 7.26123 4.8794 9.66946 6.50062C10.6768 6.2173 11.7471 6.07564 12.8175 6.07564C13.8878 6.07564 14.9581 6.2173 15.9655 6.50062C18.3737 4.86366 19.4283 5.20994 19.4283 5.20994C20.1208 6.94134 19.6801 8.23203 19.5542 8.54683C20.3569 9.42827 20.8449 10.5458 20.8449 11.9309C20.8449 16.7631 17.9015 17.8334 15.0998 18.1482C15.5562 18.5417 15.9497 19.2973 15.9497 20.4778C15.9497 22.1619 15.934 23.5156 15.934 23.9406C15.934 24.2711 16.1701 24.6646 16.7997 24.5387C19.2994 23.6947 21.4715 22.0881 23.0103 19.9451C24.5492 17.802 25.3772 15.2303 25.378 12.592C25.378 5.63492 19.7431 0 12.786 0Z" fill="white"/>
</svg>
