<svg width="23" height="23" viewBox="0 0 23 23" fill="none" xmlns="http://www.w3.org/2000/svg">
<path d="M5.75753 22.2782V7.24713H0.981952V22.2782H5.75753ZM3.37036 5.19366C5.03569 5.19366 6.07227 4.03945 6.07227 2.59708C6.04125 1.12217 5.03575 0 3.40196 0C1.76843 0 0.700195 1.1222 0.700195 2.59708C0.700195 4.03952 1.73653 5.19366 3.33918 5.19366H3.37021H3.37036ZM8.4008 22.2782H13.1764V13.8841C13.1764 13.4349 13.2074 12.9861 13.3335 12.665C13.6788 11.7674 14.4645 10.8378 15.7837 10.8378C17.5118 10.8378 18.2032 12.2162 18.2032 14.2368V22.2781H22.9784V13.6594C22.9784 9.04246 20.6224 6.89425 17.4804 6.89425C14.9041 6.89425 13.773 8.40074 13.1446 9.4268H13.1765V7.24682H8.40091C8.46358 8.65725 8.40091 22.2779 8.40091 22.2779L8.4008 22.2782Z" fill="white"/>
</svg>
