<svg width="24" height="24" viewBox="0 0 24 24" fill="none" xmlns="http://www.w3.org/2000/svg">
<path d="M11.8594 7.74728C9.72511 7.74728 7.98336 9.48906 7.98336 11.6234C7.98336 13.7577 9.72511 15.4995 11.8594 15.4995C13.9937 15.4995 15.7354 13.7577 15.7354 11.6234C15.7354 9.48906 13.9937 7.74728 11.8594 7.74728ZM23.4846 11.6234C23.4846 10.0183 23.4992 8.42771 23.409 6.8255C23.3189 4.9645 22.8943 3.31286 21.5335 1.95201C20.1698 0.588243 18.5211 0.16661 16.6601 0.076468C15.055 -0.0136742 13.4645 0.000864912 11.8623 0.000864912C10.2572 0.000864912 8.66669 -0.0136742 7.06451 0.076468C5.20354 0.16661 3.55194 0.591151 2.19111 1.95201C0.827368 3.31577 0.405743 4.9645 0.315602 6.8255C0.225462 8.43061 0.240001 10.0212 0.240001 11.6234C0.240001 13.2256 0.225462 14.8191 0.315602 16.4213C0.405743 18.2823 0.830276 19.9339 2.19111 21.2948C3.55485 22.6585 5.20354 23.0802 7.06451 23.1703C8.66959 23.2605 10.2601 23.2459 11.8623 23.2459C13.4674 23.2459 15.0579 23.2605 16.6601 23.1703C18.5211 23.0802 20.1727 22.6556 21.5335 21.2948C22.8973 19.931 23.3189 18.2823 23.409 16.4213C23.5021 14.8191 23.4846 13.2285 23.4846 11.6234ZM11.8594 17.5873C8.5591 17.5873 5.89559 14.9238 5.89559 11.6234C5.89559 8.32302 8.5591 5.65947 11.8594 5.65947C15.1597 5.65947 17.8232 8.32302 17.8232 11.6234C17.8232 14.9238 15.1597 17.5873 11.8594 17.5873ZM18.0675 6.80805C17.2969 6.80805 16.6747 6.18578 16.6747 5.41521C16.6747 4.64464 17.2969 4.02237 18.0675 4.02237C18.838 4.02237 19.4603 4.64464 19.4603 5.41521C19.4605 5.59819 19.4246 5.77941 19.3547 5.9485C19.2848 6.11759 19.1822 6.27123 19.0529 6.40061C18.9235 6.53 18.7698 6.63258 18.6007 6.7025C18.4317 6.77241 18.2504 6.80828 18.0675 6.80805Z" fill="white"/>
</svg>
