<svg width="120" height="32" viewBox="0 0 120 32" fill="none" xmlns="http://www.w3.org/2000/svg">
<g clip-path="url(#clip0_601_1985)">
<path fill-rule="evenodd" clip-rule="evenodd" d="M25.7321 1.06551C26.3929 0.159851 27.5 -0.213068 28.5893 0.124335C29.6786 0.479496 30.375 1.42067 30.3571 2.55719V28.9279C30.3571 30.6149 28.9643 32 27.2679 32C25.5714 32 24.1786 30.6149 24.1786 28.9279V13.4074L17.5893 22.7303C17.0357 23.5117 16.1429 23.9734 15.1786 23.9734C14.2143 23.9734 13.3214 23.5117 12.7679 22.7303L6.17857 13.4074V28.9279C6.17857 30.6149 4.78571 32 3.08929 32C1.39286 32 0 30.6149 0 28.9279V2.55719C0 1.42067 0.696429 0.479496 1.78571 0.124335C2.85714 -0.230826 3.98214 0.142093 4.64286 1.06551L15.1786 15.7692L25.7321 1.06551ZM27.2857 30.8458C28.3571 30.8458 29.2143 29.9934 29.2143 28.9279H29.1964V2.55719C29.1964 1.79359 28.6964 1.3674 28.2321 1.22533C27.75 1.06551 27.0893 1.13654 26.6607 1.74032L15.1786 17.7581L3.69643 1.74032C3.25 1.13654 2.58929 1.08327 2.125 1.22533C1.66071 1.38516 1.16071 1.81135 1.16071 2.55719V28.9279C1.16071 29.9934 2.01786 30.8458 3.08929 30.8458C4.16071 30.8458 5.01786 29.9934 5.01786 28.9279V9.7492L13.7321 22.0733C14.0714 22.5705 14.6071 22.8369 15.1964 22.8369C15.7857 22.8369 16.3214 22.5527 16.6607 22.0733L25.3571 9.7492V28.9279C25.3571 29.9934 26.2143 30.8458 27.2857 30.8458ZM27.4643 2.29082C27.5536 2.16651 27.6429 2.11324 27.7857 2.11324C27.7857 2.11324 28.2321 2.131 28.2321 2.55719V28.9279C28.2321 29.4606 27.8036 29.8868 27.2679 29.8868C26.7321 29.8868 26.3036 29.4606 26.3036 28.9279V11.5783V6.71257L23.4821 10.6904L15.8393 21.505C15.6429 21.7892 15.3393 21.8424 15.1786 21.8424C15.0357 21.8424 14.7321 21.8069 14.5179 21.505L6.875 10.6904L4.05357 6.71257V11.5783V28.9279C4.05357 29.4606 3.625 29.8868 3.08929 29.8868C2.55357 29.8868 2.125 29.4606 2.125 28.9279V2.55719C2.125 2.43288 2.16072 2.32633 2.25 2.2553C2.33929 2.18427 2.46429 2.131 2.58929 2.131C2.71429 2.131 2.82143 2.18427 2.91072 2.30858L13.9286 17.6515L15.1786 19.4096L16.4464 17.6515L27.4643 2.29082Z" fill="url(#paint0_linear_601_1985)"/>
<path d="M47.1786 14.9522L47.1607 6.35728L42.9286 13.6203H42.5714L38.3393 6.3928V14.9522H37.625V4.90112H38.25L42.7679 12.6614L47.2857 4.90112H47.8929L47.9107 14.9522H47.1786Z" fill="white"/>
<path d="M58.6071 14.2774V14.9344H51.6428V4.90112H58.3928V5.55817H52.375V9.51821H57.75V10.1575H52.375V14.2774H58.6071Z" fill="white"/>
<path d="M61.5 4.90112H62.2321V14.2774H68.0536V14.9344H61.5V4.90112Z" fill="white"/>
<path d="M71.1607 5.55817H67.5178V4.90112H75.5357V5.55817H71.8928V14.9344H71.1607V5.55817Z" fill="white"/>
<path d="M77.9107 14.6326C77.2499 14.384 76.7142 14.0466 76.3392 13.6559L76.6785 13.1054C77.0357 13.4784 77.5178 13.7803 78.1071 14.0111C78.7142 14.242 79.3392 14.3663 79.9999 14.3663C80.9642 14.3663 81.6964 14.1887 82.1785 13.8158C82.6607 13.4606 82.9107 12.9811 82.9107 12.3951C82.9107 11.9512 82.7857 11.5783 82.5178 11.3119C82.2499 11.0455 81.9285 10.8324 81.5535 10.6904C81.1607 10.5483 80.6428 10.4062 79.9999 10.2464C79.2678 10.0688 78.6607 9.89124 78.2142 9.71366C77.7678 9.53608 77.3928 9.26971 77.0714 8.91455C76.7499 8.55938 76.6071 8.07992 76.6071 7.47614C76.6071 6.99668 76.7321 6.53497 76.9999 6.12653C77.2678 5.7181 77.6607 5.39845 78.1964 5.14984C78.7321 4.91898 79.3928 4.79468 80.1964 4.79468C80.7499 4.79468 81.3035 4.88347 81.8392 5.04329C82.3749 5.20311 82.8392 5.43397 83.2321 5.70034L82.9642 6.28635C82.5535 6.00223 82.1071 5.80689 81.6249 5.64706C81.1428 5.505 80.6607 5.43397 80.1964 5.43397C79.2678 5.43397 78.5535 5.62931 78.0714 6.00222C77.5892 6.37514 77.3571 6.85461 77.3571 7.45838C77.3571 7.90234 77.4821 8.27525 77.7499 8.54163C78.0178 8.808 78.3392 9.02109 78.7142 9.16316C79.1071 9.30522 79.6249 9.46504 80.2857 9.62487C81.0178 9.80245 81.6249 9.98003 82.0535 10.1576C82.4999 10.3352 82.8749 10.5838 83.1785 10.939C83.4821 11.2941 83.6428 11.7558 83.6428 12.3596C83.6428 12.8391 83.5178 13.3008 83.2499 13.6915C82.9821 14.0999 82.5714 14.4195 82.0357 14.6504C81.4821 14.8812 80.8214 15.0056 80.0178 15.0056C79.2857 15.0233 78.5892 14.8812 77.9107 14.6326Z" fill="white"/>
<path d="M99.875 4.90112L96.4643 14.9522H95.6785L92.5536 5.94885L89.4107 14.9522H88.625L85.1964 4.90112H85.9821L89.0536 13.94L92.2143 4.90112H92.9286L96.0714 13.9577L99.1786 4.90112H99.875Z" fill="white"/>
<path d="M108.161 12.1111H102.304L101.018 14.9346H100.232L104.875 4.88354H105.607L110.25 14.9346H109.464L108.161 12.1111ZM107.893 11.5073L105.232 5.71817L102.589 11.5073H107.893Z" fill="white"/>
<path d="M118.911 5.78903C119.625 6.3928 120 7.20967 120 8.27515C120 9.32288 119.643 10.1575 118.911 10.7435C118.196 11.3473 117.196 11.6314 115.929 11.6314H113.036V14.9167H112.304V4.90112H115.929C117.196 4.90112 118.196 5.20301 118.911 5.78903ZM118.393 10.2996C118.964 9.83786 119.25 9.16305 119.25 8.29291C119.25 7.42277 118.964 6.74796 118.393 6.26849C117.821 5.78903 117 5.55817 115.929 5.55817H113.036V10.9921H115.929C117 10.9921 117.821 10.7613 118.393 10.2996Z" fill="white"/>
<path d="M42.4821 25.1277C41.9821 24.8613 41.6071 24.4884 41.3214 24.0267C41.0357 23.565 40.8928 23.0322 40.8928 22.4285C40.8928 21.8424 41.0357 21.3097 41.3214 20.8302C41.6071 20.3685 42 19.9956 42.4821 19.7292C42.9821 19.4629 43.5357 19.3208 44.1428 19.3208C44.6428 19.3208 45.0892 19.4096 45.5 19.5872C45.9107 19.7648 46.25 20.0134 46.5357 20.333L45.8035 21.0078C45.3571 20.5461 44.8214 20.2975 44.1785 20.2975C43.7678 20.2975 43.3928 20.3863 43.0535 20.5639C42.7321 20.7414 42.4643 20.9901 42.2857 21.3097C42.1071 21.6293 42 22.0023 42 22.4107C42 22.8191 42.0893 23.1743 42.2857 23.5117C42.4643 23.8313 42.7321 24.08 43.0535 24.2575C43.375 24.4351 43.75 24.5239 44.1785 24.5239C44.8214 24.5239 45.3571 24.2931 45.8035 23.8136L46.5357 24.5062C46.25 24.8258 45.9107 25.0744 45.5 25.252C45.0892 25.4296 44.625 25.5184 44.1428 25.5184C43.5178 25.5184 42.9642 25.3941 42.4821 25.1277Z" fill="white"/>
<path d="M50.1964 20.7947V21.8246C50.1071 21.8069 50.0178 21.8069 49.9464 21.8069C49.5178 21.8069 49.1964 21.9312 48.9643 22.1798C48.7321 22.4284 48.6071 22.7836 48.6071 23.2275V25.465H47.5178V20.8657H48.5535V21.5405C48.8571 21.0255 49.4107 20.7947 50.1964 20.7947Z" fill="white"/>
<path d="M55.6072 20.8479L53.4464 25.8202C53.25 26.3174 53 26.6725 52.7143 26.8679C52.4286 27.0632 52.0714 27.1698 51.6607 27.1698C51.4286 27.1698 51.1964 27.1342 50.9822 27.0632C50.75 26.9922 50.5714 26.8856 50.4286 26.7613L50.8572 25.9622C50.9643 26.051 51.0893 26.1398 51.2322 26.1931C51.375 26.2463 51.5179 26.2819 51.6607 26.2819C51.8572 26.2819 52 26.2286 52.125 26.1398C52.25 26.051 52.3572 25.8734 52.4643 25.6426L52.5357 25.465L50.5179 20.8479H51.6429L53.0893 24.2397L54.5536 20.8479H55.6072Z" fill="white"/>
<path d="M60.0535 21.0788C60.4107 21.2741 60.6785 21.5405 60.8928 21.9134C61.0892 22.2686 61.1964 22.677 61.1964 23.1387C61.1964 23.6005 61.0892 24.0089 60.8928 24.3818C60.6964 24.737 60.4107 25.0211 60.0535 25.2164C59.6964 25.4118 59.3035 25.5006 58.8392 25.5006C58.2142 25.5006 57.7143 25.2875 57.3571 24.879V27.1165H56.2678V20.848H57.3035V21.4517C57.4821 21.2386 57.6964 21.0788 57.9642 20.9545C58.2321 20.848 58.5178 20.7947 58.8392 20.7947C59.3035 20.7947 59.6964 20.8835 60.0535 21.0788ZM59.7142 24.1865C59.9642 23.9201 60.1071 23.5827 60.1071 23.1387C60.1071 22.7125 59.9821 22.3574 59.7142 22.091C59.4642 21.8246 59.125 21.7003 58.7321 21.7003C58.4642 21.7003 58.2321 21.7536 58.0357 21.8779C57.8214 22.0022 57.6607 22.162 57.5357 22.3751C57.4107 22.5882 57.3571 22.8369 57.3571 23.1387C57.3571 23.4229 57.4107 23.6715 57.5357 23.9023C57.6607 24.1154 57.8214 24.293 58.0357 24.3996C58.25 24.5239 58.4821 24.5771 58.7321 24.5771C59.125 24.5771 59.4464 24.4528 59.7142 24.1865Z" fill="white"/>
<path d="M64.9999 25.1808C64.8749 25.2874 64.7142 25.3584 64.5356 25.4117C64.3571 25.4649 64.1606 25.4827 63.9642 25.4827C63.4642 25.4827 63.0713 25.3584 62.7856 25.092C62.4999 24.8256 62.3749 24.435 62.3749 23.9377V21.718H61.6071V20.8656H62.3749V19.8179H63.4642V20.8656H64.6963V21.718H63.4642V23.9022C63.4642 24.1331 63.5178 24.2929 63.6249 24.4172C63.7321 24.5415 63.8928 24.5948 64.1071 24.5948C64.3571 24.5948 64.5535 24.5238 64.7142 24.3994L64.9999 25.1808Z" fill="white"/>
<path d="M66.5535 25.1987C66.1785 25.0033 65.8928 24.7192 65.6785 24.364C65.4642 24.0089 65.3571 23.6005 65.3571 23.1387C65.3571 22.677 65.4642 22.2864 65.6785 21.9312C65.8928 21.576 66.1785 21.2919 66.5535 21.0966C66.9285 20.9012 67.3571 20.7947 67.8213 20.7947C68.2856 20.7947 68.7142 20.9012 69.0892 21.0966C69.4642 21.2919 69.7499 21.576 69.9642 21.9312C70.1785 22.2864 70.2856 22.6948 70.2856 23.1387C70.2856 23.6005 70.1785 23.9911 69.9642 24.364C69.7499 24.7192 69.4642 25.0033 69.0892 25.1987C68.7142 25.394 68.2856 25.5006 67.8213 25.5006C67.3571 25.5006 66.9285 25.394 66.5535 25.1987ZM68.8035 24.1865C69.0713 23.9201 69.1963 23.5827 69.1963 23.1387C69.1963 22.7125 69.0713 22.3574 68.8035 22.091C68.5356 21.8246 68.2142 21.7003 67.8213 21.7003C67.4285 21.7003 67.0892 21.8246 66.8392 22.091C66.5892 22.3574 66.4463 22.6948 66.4463 23.1387C66.4463 23.5649 66.5713 23.9201 66.8392 24.1865C67.0892 24.4528 67.4285 24.5771 67.8213 24.5771C68.2142 24.5771 68.5356 24.4528 68.8035 24.1865Z" fill="white"/>
<path d="M78.3571 24.506V25.4472H73.8214V19.4272H78.25V20.3684H74.9464V21.9311H77.875V22.8545H74.9464V24.5238H78.3571V24.506Z" fill="white"/>
<path d="M82.3749 25.4472L81.1963 23.849L79.9999 25.4472H78.8035L80.607 23.1209L78.8928 20.8479H80.0892L81.232 22.3573L82.3749 20.8479H83.5356L81.7856 23.0854L83.5892 25.4295H82.3749V25.4472Z" fill="white"/>
<path d="M85.0535 25.1987C84.6785 25.0033 84.3749 24.7192 84.1607 24.364C83.9464 24.0089 83.8392 23.6004 83.8392 23.1387C83.8392 22.677 83.9464 22.2864 84.1607 21.9312C84.3749 21.576 84.6785 21.2919 85.0535 21.0966C85.4285 20.9012 85.8571 20.7947 86.3392 20.7947C86.8035 20.7947 87.1964 20.8835 87.5357 21.0788C87.8749 21.2741 88.1428 21.5228 88.3035 21.8779L87.4642 22.3574C87.3392 22.1443 87.1607 21.9845 86.9642 21.8779C86.7678 21.7714 86.5535 21.7181 86.3035 21.7181C85.8928 21.7181 85.5714 21.8424 85.3035 22.1088C85.0357 22.3751 84.9107 22.7125 84.9107 23.1565C84.9107 23.6004 85.0357 23.9379 85.3035 24.2042C85.5714 24.4706 85.9107 24.5949 86.3035 24.5949C86.5357 24.5949 86.7499 24.5416 86.9642 24.4351C87.1607 24.3285 87.3214 24.1687 87.4642 23.9556L88.3035 24.4351C88.1249 24.7725 87.8571 25.0389 87.5178 25.2342C87.1785 25.4295 86.7857 25.5183 86.3214 25.5183C85.8749 25.5006 85.4464 25.394 85.0535 25.1987Z" fill="white"/>
<path d="M93.2321 21.2919C93.5893 21.6293 93.7678 22.1265 93.7678 22.8013V25.4295H92.6786V22.9256C92.6786 22.5172 92.5893 22.2153 92.3928 22.02C92.1964 21.8246 91.9286 21.7181 91.5714 21.7181C91.1786 21.7181 90.8571 21.8424 90.625 22.0732C90.3928 22.3041 90.2857 22.6593 90.2857 23.1032V25.4295H89.1964V19.0366H90.2857V21.3629C90.4643 21.1676 90.6786 21.0255 90.9464 20.9367C91.2143 20.8302 91.5 20.7947 91.8214 20.7947C92.4286 20.7947 92.8928 20.9545 93.2321 21.2919Z" fill="white"/>
<path d="M98.4822 21.2741C98.8393 21.5937 99.0179 22.091 99.0179 22.748V25.4472H98V24.879C97.875 25.0743 97.6786 25.2341 97.4286 25.3407C97.1786 25.4472 96.8929 25.5005 96.5357 25.5005C96.1786 25.5005 95.8929 25.4472 95.625 25.3229C95.3572 25.1986 95.1607 25.0388 95.0179 24.8257C94.875 24.6126 94.8036 24.3817 94.8036 24.1154C94.8036 23.7069 94.9643 23.3695 95.2679 23.1209C95.5714 22.8723 96.0714 22.748 96.7322 22.748H97.9286V22.677C97.9286 22.3573 97.8393 22.1087 97.6429 21.9311C97.4464 21.7535 97.1607 21.6648 96.7857 21.6648C96.5179 21.6648 96.2679 21.7003 96.0179 21.7891C95.7679 21.8779 95.5536 21.9844 95.375 22.1265L94.9464 21.3451C95.1964 21.1675 95.4822 21.0255 95.8214 20.9189C96.1607 20.8124 96.5179 20.7769 96.9107 20.7769C97.5893 20.7946 98.1072 20.9544 98.4822 21.2741ZM97.4822 24.5238C97.6964 24.3995 97.8393 24.2219 97.9286 23.9911V23.4583H96.8036C96.1786 23.4583 95.875 23.6537 95.875 24.0621C95.875 24.2574 95.9464 24.4173 96.1072 24.5238C96.2679 24.6304 96.4822 24.7014 96.75 24.7014C97.0357 24.7191 97.2679 24.6481 97.4822 24.5238Z" fill="white"/>
<path d="M104.429 21.2918C104.786 21.6292 104.964 22.1265 104.964 22.8013V25.4295H103.875V22.9256C103.875 22.5171 103.786 22.2153 103.589 22.0199C103.393 21.8246 103.125 21.718 102.768 21.718C102.375 21.718 102.054 21.8423 101.821 22.0732C101.589 22.304 101.482 22.6592 101.482 23.1032V25.4295H100.393V20.8301H101.429V21.4161C101.607 21.203 101.839 21.0432 102.107 20.9367C102.375 20.8301 102.679 20.7769 103.018 20.7769C103.607 20.7946 104.071 20.9544 104.429 21.2918Z" fill="white"/>
<path d="M110.964 20.8478V24.7546C110.964 26.3706 110.125 27.1875 108.464 27.1875C108.018 27.1875 107.607 27.1342 107.196 27.0276C106.804 26.9211 106.464 26.7613 106.214 26.5482L106.696 25.7313C106.893 25.8911 107.161 26.0332 107.464 26.1397C107.768 26.2463 108.089 26.2818 108.411 26.2818C108.911 26.2818 109.286 26.1753 109.536 25.9444C109.768 25.7135 109.893 25.3584 109.893 24.8967V24.6481C109.714 24.8434 109.482 25.0032 109.214 25.1098C108.946 25.2163 108.661 25.2696 108.339 25.2696C107.893 25.2696 107.5 25.1808 107.143 24.9855C106.786 24.7901 106.5 24.5415 106.304 24.2041C106.107 23.8667 106 23.476 106 23.0498C106 22.6059 106.107 22.233 106.304 21.8956C106.5 21.5582 106.786 21.2918 107.143 21.1142C107.5 20.9366 107.893 20.8301 108.339 20.8301C108.679 20.8301 108.982 20.8834 109.25 20.9899C109.518 21.0964 109.75 21.274 109.946 21.4871V20.8834H110.964V20.8478ZM109.5 23.9555C109.768 23.7069 109.893 23.3872 109.893 22.9966C109.893 22.6059 109.768 22.304 109.5 22.0554C109.232 21.8068 108.893 21.7002 108.5 21.7002C108.089 21.7002 107.75 21.8245 107.482 22.0554C107.214 22.304 107.089 22.6059 107.089 22.9966C107.089 23.3872 107.214 23.7069 107.482 23.9555C107.75 24.2041 108.089 24.3284 108.5 24.3284C108.911 24.3107 109.232 24.2041 109.5 23.9555Z" fill="white"/>
<path d="M116.714 23.4761H113.089C113.161 23.8135 113.321 24.0799 113.589 24.2753C113.857 24.4706 114.196 24.5771 114.589 24.5771C115.089 24.5771 115.518 24.4173 115.839 24.0799L116.411 24.737C116.196 24.9856 115.946 25.1632 115.625 25.3052C115.304 25.4295 114.946 25.5006 114.554 25.5006C114.054 25.5006 113.607 25.394 113.214 25.1987C112.821 25.0033 112.536 24.7192 112.321 24.364C112.107 24.0089 112 23.6005 112 23.1387C112 22.6948 112.107 22.2864 112.304 21.9312C112.5 21.576 112.786 21.2919 113.161 21.0966C113.518 20.9012 113.929 20.7947 114.393 20.7947C114.839 20.7947 115.25 20.9012 115.607 21.0966C115.964 21.2919 116.232 21.576 116.446 21.9312C116.643 22.2864 116.75 22.7125 116.75 23.1743C116.732 23.2453 116.714 23.3518 116.714 23.4761ZM113.518 21.949C113.286 22.1443 113.125 22.4284 113.089 22.7658H115.714C115.661 22.4284 115.518 22.162 115.286 21.949C115.054 21.7359 114.75 21.6471 114.411 21.6471C114.036 21.6471 113.75 21.7536 113.518 21.949Z" fill="white"/>
</g>
<defs>
<linearGradient id="paint0_linear_601_1985" x1="15.1854" y1="2.87087e-05" x2="15.1854" y2="31.9982" gradientUnits="userSpaceOnUse">
<stop stop-color="#EABDC4"/>
<stop offset="0.9996" stop-color="#91DDCF"/>
</linearGradient>
<clipPath id="clip0_601_1985">
<rect width="120" height="32" fill="white"/>
</clipPath>
</defs>
</svg>
