<svg width="28" height="25" viewBox="0 0 28 25" fill="none" xmlns="http://www.w3.org/2000/svg">
<path d="M27.9995 12.2046C27.9995 10.5095 26.6434 9.15342 24.9484 9.32293C24.2703 9.32293 23.4228 9.66194 22.9143 10.1705C20.5412 8.6449 17.829 7.62785 14.9474 7.62785L16.3035 1.18655L20.7107 2.2036C20.7107 3.39016 21.7277 4.2377 22.9143 4.2377C24.1008 4.2377 24.9484 3.22065 24.9484 2.03409C24.9484 0.847539 23.9313 0 22.7448 0C21.8972 0 21.2192 0.508523 20.8802 1.18655L16.134 0H15.7949C15.6254 0 15.6254 0.169507 15.6254 0.339015L13.9304 7.62785C11.0487 7.62785 8.3366 8.47539 5.96349 10.1705C4.77693 8.98391 2.91235 8.98391 1.72579 10.1705C0.539238 11.357 0.539238 13.2216 1.72579 14.4082C1.8953 14.5777 2.23432 14.9167 2.57333 14.9167V15.7642C2.57333 20.3409 7.82807 24.0701 14.4389 24.0701C21.0497 24.0701 26.3044 20.3409 26.3044 15.7642V14.9167C27.3215 14.4082 27.9995 13.3911 27.9995 12.2046ZM7.65857 14.4082C7.65857 13.2216 8.67561 12.3741 9.69266 12.3741C10.8792 12.3741 11.7268 13.3911 11.7268 14.4082C11.7268 15.4252 10.7097 16.4423 9.69266 16.4423C8.50611 16.4423 7.65857 15.5947 7.65857 14.4082ZM19.5241 20.0019C17.9985 21.019 16.3035 21.697 14.4389 21.5275C12.5743 21.5275 10.8792 21.019 9.35365 20.0019C9.18414 19.8324 9.18414 19.4934 9.35365 19.1544C9.52315 18.9849 9.86217 18.9849 10.0317 19.1544C11.2182 20.0019 12.7438 20.5104 14.2694 20.3409C15.7949 20.5104 17.3205 20.0019 18.5071 19.1544C18.6766 18.9849 19.0156 18.9849 19.3546 19.1544C19.6936 19.3239 19.6936 19.6629 19.5241 20.0019ZM19.0156 16.4423C17.829 16.4423 16.9815 15.4252 16.9815 14.4082C16.9815 13.3911 17.9985 12.3741 19.0156 12.3741C20.2021 12.3741 21.0497 13.3911 21.0497 14.4082C21.2192 15.5947 20.2021 16.4423 19.0156 16.4423Z" fill="white"/>
</svg>
