<svg width="25" height="20" viewBox="0 0 25 20" fill="none" xmlns="http://www.w3.org/2000/svg">
<path d="M24.6482 2.6513C23.772 3.03955 22.8308 3.30188 21.8412 3.42046C22.8622 2.80953 23.6261 1.848 23.9903 0.715275C23.031 1.28505 21.9812 1.68611 20.8863 1.90102C20.1501 1.11493 19.1749 0.593894 18.1122 0.41881C17.0495 0.243727 15.9588 0.42439 15.0093 0.932752C14.0598 1.44111 13.3047 2.24873 12.8612 3.23022C12.4177 4.2117 12.3107 5.31214 12.5567 6.36069C10.613 6.2631 8.71157 5.7579 6.97576 4.87788C5.23995 3.99786 3.70857 2.76269 2.48102 1.25253C2.06128 1.97657 1.81994 2.81604 1.81994 3.71007C1.81947 4.51491 2.01767 5.30741 2.39694 6.01728C2.77622 6.72714 3.32485 7.33241 3.99416 7.77939C3.21794 7.75469 2.45885 7.54495 1.78006 7.16763V7.23059C1.77999 8.3594 2.17045 9.45347 2.8852 10.3272C3.59996 11.2009 4.59498 11.8004 5.70143 12.0239C4.98135 12.2188 4.22642 12.2475 3.49363 12.1079C3.8058 13.0792 4.41389 13.9285 5.23276 14.537C6.05163 15.1455 7.04029 15.4827 8.06033 15.5014C6.32875 16.8608 4.19027 17.5981 1.98888 17.5949C1.59893 17.595 1.20931 17.5722 0.822021 17.5267C3.05655 18.9634 5.65771 19.7259 8.31427 19.7229C17.3071 19.7229 22.2232 12.2747 22.2232 5.81504C22.2232 5.60517 22.2179 5.3932 22.2085 5.18334C23.1647 4.4918 23.9902 3.63546 24.6461 2.65444L24.6482 2.6513Z" fill="white"/>
</svg>
